<?xml version="1.0" encoding="utf-8" standalone="no"?>
<!DOCTYPE svg PUBLIC "-//W3C//DTD SVG 1.1//EN"
  "http://www.w3.org/Graphics/SVG/1.1/DTD/svg11.dtd">
<!-- Created with matplotlib (https://matplotlib.org/) -->
<svg height="280.699062pt" version="1.1" viewBox="0 0 508.970625 280.699062" width="508.970625pt" xmlns="http://www.w3.org/2000/svg" xmlns:xlink="http://www.w3.org/1999/xlink">
 <defs>
  <style type="text/css">
*{stroke-linecap:butt;stroke-linejoin:round;white-space:pre;}
  </style>
 </defs>
 <g id="figure_1">
  <g id="patch_1">
   <path d="M 0 280.699062 
L 508.970625 280.699062 
L 508.970625 0 
L 0 0 
z
" style="fill:#ffffff;"/>
  </g>
  <g id="axes_1">
   <g id="patch_2">
    <path d="M 48.635313 242.0925 
L 383.435313 242.0925 
L 383.435313 24.6525 
L 48.635313 24.6525 
z
" style="fill:#ffffff;"/>
   </g>
   <g id="PolyCollection_1">
    <defs>
     <path d="M 63.853494 -150.592646 
L 63.853494 -114.845617 
L 79.872633 -108.926111 
L 95.891772 -77.44499 
L 111.910911 -92.500965 
L 127.930049 -116.48156 
L 143.949188 -134.167011 
L 159.968327 -168.534036 
L 175.987466 -156.739516 
L 192.006604 -140.613686 
L 208.025743 -116.553648 
L 224.044882 -109.151004 
L 240.064021 -164.603599 
L 256.083159 -85.595239 
L 272.102298 -100.439098 
L 288.121437 -108.50968 
L 304.140576 -129.143644 
L 320.159714 -114.26758 
L 336.178853 -112.925871 
L 352.197992 -67.894097 
L 368.217131 -137.861613 
L 368.217131 -216.603973 
L 368.217131 -216.603973 
L 352.197992 -108.382892 
L 336.178853 -154.152927 
L 320.159714 -143.017492 
L 304.140576 -164.830748 
L 288.121437 -135.449783 
L 272.102298 -149.332298 
L 256.083159 -115.599659 
L 240.064021 -217.303336 
L 224.044882 -133.54186 
L 208.025743 -148.959645 
L 192.006604 -181.02335 
L 175.987466 -196.369681 
L 159.968327 -231.856491 
L 143.949188 -180.070031 
L 127.930049 -183.600353 
L 111.910911 -146.589097 
L 95.891772 -111.453094 
L 79.872633 -133.01214 
L 63.853494 -150.592646 
z
" id="m89d4a61ec1" style="stroke:#008000;stroke-opacity:0.2;"/>
    </defs>
    <g clip-path="url(#p5e5c4db62b)">
     <use style="fill:#008000;fill-opacity:0.2;stroke:#008000;stroke-opacity:0.2;" x="0" xlink:href="#m89d4a61ec1" y="280.699062"/>
    </g>
   </g>
   <g id="PolyCollection_2">
    <defs>
     <path d="M 63.853494 -156.143379 
L 63.853494 -112.185248 
L 79.872633 -85.945422 
L 95.891772 -52.99313 
L 111.910911 -48.490199 
L 127.930049 -153.942015 
L 143.949188 -118.743153 
L 159.968327 -140.426624 
L 175.987466 -81.201517 
L 192.006604 -55.650736 
L 208.025743 -105.068698 
L 224.044882 -109.917191 
L 240.064021 -123.720529 
L 256.083159 -82.743662 
L 272.102298 -144.29652 
L 288.121437 -84.543395 
L 304.140576 -71.215067 
L 320.159714 -65.113626 
L 336.178853 -69.74978 
L 352.197992 -78.441954 
L 368.217131 -83.13058 
L 368.217131 -144.512783 
L 368.217131 -144.512783 
L 352.197992 -111.751742 
L 336.178853 -95.070122 
L 320.159714 -98.171843 
L 304.140576 -111.410921 
L 288.121437 -149.758491 
L 272.102298 -246.162926 
L 256.083159 -126.681196 
L 240.064021 -160.50839 
L 224.044882 -185.652059 
L 208.025743 -172.279684 
L 192.006604 -91.403427 
L 175.987466 -108.053884 
L 159.968327 -199.300791 
L 143.949188 -155.824714 
L 127.930049 -215.595894 
L 111.910911 -58.551054 
L 95.891772 -76.262658 
L 79.872633 -114.330216 
L 63.853494 -156.143379 
z
" id="m62705ad840" style="stroke:#c0c0c0;stroke-opacity:0.2;"/>
    </defs>
    <g clip-path="url(#p5e5c4db62b)">
     <use style="fill:#c0c0c0;fill-opacity:0.2;stroke:#c0c0c0;stroke-opacity:0.2;" x="0" xlink:href="#m62705ad840" y="280.699062"/>
    </g>
   </g>
   <g id="matplotlib.axis_1">
    <g id="xtick_1">
     <g id="line2d_1">
      <defs>
       <path d="M 0 0 
L 0 3.5 
" id="m64f5d0d276" style="stroke:#000000;stroke-width:0.8;"/>
      </defs>
      <g>
       <use style="stroke:#000000;stroke-width:0.8;" x="63.853494" xlink:href="#m64f5d0d276" y="242.0925"/>
      </g>
     </g>
     <g id="text_1">
      <text style="font-family:Arial;font-size:10px;font-style:normal;font-weight:normal;text-anchor:middle;" transform="rotate(-0, 63.853494, 256.250312)" x="63.853494" y="256.250312">10</text>
     </g>
    </g>
    <g id="xtick_2">
     <g id="line2d_2">
      <g>
       <use style="stroke:#000000;stroke-width:0.8;" x="127.930049" xlink:href="#m64f5d0d276" y="242.0925"/>
      </g>
     </g>
     <g id="text_2">
      <text style="font-family:Arial;font-size:10px;font-style:normal;font-weight:normal;text-anchor:middle;" transform="rotate(-0, 127.930049, 256.250312)" x="127.930049" y="256.250312">12</text>
     </g>
    </g>
    <g id="xtick_3">
     <g id="line2d_3">
      <g>
       <use style="stroke:#000000;stroke-width:0.8;" x="192.006604" xlink:href="#m64f5d0d276" y="242.0925"/>
      </g>
     </g>
     <g id="text_3">
      <text style="font-family:Arial;font-size:10px;font-style:normal;font-weight:normal;text-anchor:middle;" transform="rotate(-0, 192.006604, 256.250312)" x="192.006604" y="256.250312">14</text>
     </g>
    </g>
    <g id="xtick_4">
     <g id="line2d_4">
      <g>
       <use style="stroke:#000000;stroke-width:0.8;" x="256.083159" xlink:href="#m64f5d0d276" y="242.0925"/>
      </g>
     </g>
     <g id="text_4">
      <text style="font-family:Arial;font-size:10px;font-style:normal;font-weight:normal;text-anchor:middle;" transform="rotate(-0, 256.083159, 256.250312)" x="256.083159" y="256.250312">16</text>
     </g>
    </g>
    <g id="xtick_5">
     <g id="line2d_5">
      <g>
       <use style="stroke:#000000;stroke-width:0.8;" x="320.159714" xlink:href="#m64f5d0d276" y="242.0925"/>
      </g>
     </g>
     <g id="text_5">
      <text style="font-family:Arial;font-size:10px;font-style:normal;font-weight:normal;text-anchor:middle;" transform="rotate(-0, 320.159714, 256.250312)" x="320.159714" y="256.250312">18</text>
     </g>
    </g>
    <g id="text_6">
     <text style="font-family:Arial;font-size:12px;font-style:normal;font-weight:normal;text-anchor:middle;" transform="rotate(-0, 216.035313, 270.973437)" x="216.035313" y="270.973437">Host Age (in Weeks)</text>
    </g>
   </g>
   <g id="matplotlib.axis_2">
    <g id="ytick_1">
     <g id="line2d_6">
      <defs>
       <path d="M 0 0 
L -3.5 0 
" id="m1e2def320c" style="stroke:#000000;stroke-width:0.8;"/>
      </defs>
      <g>
       <use style="stroke:#000000;stroke-width:0.8;" x="48.635313" xlink:href="#m1e2def320c" y="236.437339"/>
      </g>
     </g>
     <g id="text_7">
      <text style="font-family:Arial;font-size:10px;font-style:normal;font-weight:normal;text-anchor:end;" transform="rotate(-0, 41.635313, 240.016245)" x="41.635313" y="240.016245">0.06</text>
     </g>
    </g>
    <g id="ytick_2">
     <g id="line2d_7">
      <g>
       <use style="stroke:#000000;stroke-width:0.8;" x="48.635313" xlink:href="#m1e2def320c" y="206.425429"/>
      </g>
     </g>
     <g id="text_8">
      <text style="font-family:Arial;font-size:10px;font-style:normal;font-weight:normal;text-anchor:end;" transform="rotate(-0, 41.635313, 210.004335)" x="41.635313" y="210.004335">0.08</text>
     </g>
    </g>
    <g id="ytick_3">
     <g id="line2d_8">
      <g>
       <use style="stroke:#000000;stroke-width:0.8;" x="48.635313" xlink:href="#m1e2def320c" y="176.413519"/>
      </g>
     </g>
     <g id="text_9">
      <text style="font-family:Arial;font-size:10px;font-style:normal;font-weight:normal;text-anchor:end;" transform="rotate(-0, 41.635313, 179.992425)" x="41.635313" y="179.992425">0.10</text>
     </g>
    </g>
    <g id="ytick_4">
     <g id="line2d_9">
      <g>
       <use style="stroke:#000000;stroke-width:0.8;" x="48.635313" xlink:href="#m1e2def320c" y="146.401608"/>
      </g>
     </g>
     <g id="text_10">
      <text style="font-family:Arial;font-size:10px;font-style:normal;font-weight:normal;text-anchor:end;" transform="rotate(-0, 41.635313, 149.980515)" x="41.635313" y="149.980515">0.12</text>
     </g>
    </g>
    <g id="ytick_5">
     <g id="line2d_10">
      <g>
       <use style="stroke:#000000;stroke-width:0.8;" x="48.635313" xlink:href="#m1e2def320c" y="116.389698"/>
      </g>
     </g>
     <g id="text_11">
      <text style="font-family:Arial;font-size:10px;font-style:normal;font-weight:normal;text-anchor:end;" transform="rotate(-0, 41.635313, 119.968605)" x="41.635313" y="119.968605">0.14</text>
     </g>
    </g>
    <g id="ytick_6">
     <g id="line2d_11">
      <g>
       <use style="stroke:#000000;stroke-width:0.8;" x="48.635313" xlink:href="#m1e2def320c" y="86.377788"/>
      </g>
     </g>
     <g id="text_12">
      <text style="font-family:Arial;font-size:10px;font-style:normal;font-weight:normal;text-anchor:end;" transform="rotate(-0, 41.635313, 89.956694)" x="41.635313" y="89.956694">0.16</text>
     </g>
    </g>
    <g id="ytick_7">
     <g id="line2d_12">
      <g>
       <use style="stroke:#000000;stroke-width:0.8;" x="48.635313" xlink:href="#m1e2def320c" y="56.365878"/>
      </g>
     </g>
     <g id="text_13">
      <text style="font-family:Arial;font-size:10px;font-style:normal;font-weight:normal;text-anchor:end;" transform="rotate(-0, 41.635313, 59.944784)" x="41.635313" y="59.944784">0.18</text>
     </g>
    </g>
    <g id="ytick_8">
     <g id="line2d_13">
      <g>
       <use style="stroke:#000000;stroke-width:0.8;" x="48.635313" xlink:href="#m1e2def320c" y="26.353968"/>
      </g>
     </g>
     <g id="text_14">
      <text style="font-family:Arial;font-size:10px;font-style:normal;font-weight:normal;text-anchor:end;" transform="rotate(-0, 41.635313, 29.932874)" x="41.635313" y="29.932874">0.20</text>
     </g>
    </g>
    <g id="text_15">
     <text style="font-family:Arial;font-size:12px;font-style:normal;font-weight:normal;text-anchor:middle;" transform="rotate(-90, 15.789375, 133.3725)" x="15.789375" y="133.3725">Relative Abundance</text>
    </g>
   </g>
   <g id="line2d_14">
    <path clip-path="url(#p5e5c4db62b)" d="M 63.853494 147.419169 
L 79.872633 159.5073 
L 95.891772 186.564606 
L 111.910911 161.763097 
L 127.930049 129.593468 
L 143.949188 122.05371 
L 159.968327 80.814082 
L 175.987466 103.71087 
L 192.006604 120.312824 
L 208.025743 148.289613 
L 224.044882 159.127247 
L 240.064021 91.512179 
L 256.083159 180.198443 
L 272.102298 157.114416 
L 288.121437 157.983745 
L 304.140576 133.499429 
L 320.159714 152.125805 
L 336.178853 147.444803 
L 352.197992 192.007942 
L 368.217131 103.32896 
" style="fill:none;stroke:#008000;stroke-linecap:square;stroke-width:1.5;"/>
   </g>
   <g id="line2d_15">
    <path clip-path="url(#p5e5c4db62b)" d="M 63.853494 145.972517 
L 79.872633 181.489063 
L 95.891772 216.024827 
L 111.910911 227.381458 
L 127.930049 95.376457 
L 143.949188 143.472638 
L 159.968327 111.267345 
L 175.987466 185.628406 
L 192.006604 206.599294 
L 208.025743 142.515262 
L 224.044882 130.579821 
L 240.064021 139.11262 
L 256.083159 175.322399 
L 272.102298 87.33405 
L 288.121437 162.15541 
L 304.140576 190.818745 
L 320.159714 199.118607 
L 336.178853 198.407541 
L 352.197992 185.608344 
L 368.217131 166.164353 
" style="fill:none;stroke:#c0c0c0;stroke-linecap:square;stroke-width:1.5;"/>
   </g>
   <g id="line2d_16"/>
   <g id="line2d_17"/>
   <g id="line2d_18"/>
   <g id="patch_3">
    <path d="M 48.635313 242.0925 
L 48.635313 24.6525 
" style="fill:none;stroke:#000000;stroke-linecap:square;stroke-linejoin:miter;stroke-width:0.8;"/>
   </g>
   <g id="patch_4">
    <path d="M 383.435313 242.0925 
L 383.435313 24.6525 
" style="fill:none;stroke:#000000;stroke-linecap:square;stroke-linejoin:miter;stroke-width:0.8;"/>
   </g>
   <g id="patch_5">
    <path d="M 48.635312 242.0925 
L 383.435312 242.0925 
" style="fill:none;stroke:#000000;stroke-linecap:square;stroke-linejoin:miter;stroke-width:0.8;"/>
   </g>
   <g id="patch_6">
    <path d="M 48.635312 24.6525 
L 383.435312 24.6525 
" style="fill:none;stroke:#000000;stroke-linecap:square;stroke-linejoin:miter;stroke-width:0.8;"/>
   </g>
   <g id="text_16">
    <text style="font-family:Arial;font-size:16px;font-style:normal;font-weight:normal;text-anchor:middle;" transform="rotate(-0, 216.035313, 18.6525)" x="216.035313" y="18.6525">Lachnospiraceae</text>
   </g>
   <g id="legend_1">
    <g id="patch_7">
     <path d="M 402.175313 70.205625 
L 499.770625 70.205625 
Q 501.770625 70.205625 501.770625 68.205625 
L 501.770625 26.6525 
Q 501.770625 24.6525 499.770625 24.6525 
L 402.175313 24.6525 
Q 400.175313 24.6525 400.175313 26.6525 
L 400.175313 68.205625 
Q 400.175313 70.205625 402.175313 70.205625 
z
" style="fill:#ffffff;opacity:0.8;stroke:#cccccc;stroke-linejoin:miter;"/>
    </g>
    <g id="line2d_19">
     <path d="M 404.175313 32.310312 
L 424.175313 32.310312 
" style="fill:none;"/>
    </g>
    <g id="line2d_20"/>
    <g id="text_17">
     <text style="font-family:Arial;font-size:10px;font-style:normal;font-weight:normal;text-anchor:start;" transform="rotate(-0, 432.175313, 35.810312)" x="432.175313" y="35.810312">exposure_type</text>
    </g>
    <g id="line2d_21">
     <path d="M 404.175313 46.572812 
L 424.175313 46.572812 
" style="fill:none;stroke:#008000;stroke-linecap:square;stroke-width:1.5;"/>
    </g>
    <g id="line2d_22"/>
    <g id="text_18">
     <text style="font-family:Arial;font-size:10px;font-style:normal;font-weight:normal;text-anchor:start;" transform="rotate(-0, 432.175313, 50.072812)" x="432.175313" y="50.072812">IHC</text>
    </g>
    <g id="line2d_23">
     <path d="M 404.175313 60.718125 
L 424.175313 60.718125 
" style="fill:none;stroke:#c0c0c0;stroke-linecap:square;stroke-width:1.5;"/>
    </g>
    <g id="line2d_24"/>
    <g id="text_19">
     <text style="font-family:Arial;font-size:10px;font-style:normal;font-weight:normal;text-anchor:start;" transform="rotate(-0, 432.175313, 64.218125)" x="432.175313" y="64.218125">Air</text>
    </g>
   </g>
  </g>
 </g>
 <defs>
  <clipPath id="p5e5c4db62b">
   <rect height="217.44" width="334.8" x="48.635313" y="24.6525"/>
  </clipPath>
 </defs>
</svg>
