<?xml version="1.0" encoding="utf-8" standalone="no"?>
<!DOCTYPE svg PUBLIC "-//W3C//DTD SVG 1.1//EN"
  "http://www.w3.org/Graphics/SVG/1.1/DTD/svg11.dtd">
<!-- Created with matplotlib (https://matplotlib.org/) -->
<svg height="280.699062pt" version="1.1" viewBox="0 0 503.409688 280.699062" width="503.409688pt" xmlns="http://www.w3.org/2000/svg" xmlns:xlink="http://www.w3.org/1999/xlink">
 <defs>
  <style type="text/css">
*{stroke-linecap:butt;stroke-linejoin:round;white-space:pre;}
  </style>
 </defs>
 <g id="figure_1">
  <g id="patch_1">
   <path d="M 0 280.699062 
L 503.409688 280.699062 
L 503.409688 0 
L 0 0 
z
" style="fill:#ffffff;"/>
  </g>
  <g id="axes_1">
   <g id="patch_2">
    <path d="M 43.074375 242.0925 
L 377.874375 242.0925 
L 377.874375 24.6525 
L 43.074375 24.6525 
z
" style="fill:#ffffff;"/>
   </g>
   <g id="PolyCollection_1">
    <defs>
     <path d="M 58.292557 -50.535438 
L 58.292557 -48.490199 
L 74.311696 -108.538584 
L 90.330834 -139.78517 
L 106.349973 -166.912705 
L 122.369112 -134.339307 
L 138.388251 -139.593084 
L 154.407389 -115.597155 
L 170.426528 -134.65561 
L 186.445667 -158.319693 
L 202.464806 -196.86587 
L 218.483944 -151.513902 
L 234.503083 -125.30023 
L 250.522222 -163.391191 
L 266.541361 -197.14753 
L 282.560499 -162.258456 
L 298.579638 -164.957404 
L 314.598777 -188.701154 
L 330.617916 -192.545241 
L 346.637054 -215.985547 
L 362.656193 -154.171688 
L 362.656193 -178.566462 
L 362.656193 -178.566462 
L 346.637054 -246.162926 
L 330.617916 -224.59816 
L 314.598777 -212.691492 
L 298.579638 -199.478668 
L 282.560499 -187.137933 
L 266.541361 -230.777315 
L 250.522222 -181.486152 
L 234.503083 -151.534005 
L 218.483944 -179.325807 
L 202.464806 -230.358157 
L 186.445667 -180.869192 
L 170.426528 -156.375848 
L 154.407389 -151.051532 
L 138.388251 -166.183033 
L 122.369112 -175.851907 
L 106.349973 -204.847283 
L 90.330834 -158.286876 
L 74.311696 -137.104121 
L 58.292557 -50.535438 
z
" id="m39dbaca213" style="stroke:#008000;stroke-opacity:0.2;"/>
    </defs>
    <g clip-path="url(#pc7477dbdd6)">
     <use style="fill:#008000;fill-opacity:0.2;stroke:#008000;stroke-opacity:0.2;" x="0" xlink:href="#m39dbaca213" y="280.699062"/>
    </g>
   </g>
   <g id="PolyCollection_2">
    <defs>
     <path d="M 58.292557 -58.585241 
L 58.292557 -52.594218 
L 74.311696 -126.942985 
L 90.330834 -147.732733 
L 106.349973 -124.719353 
L 122.369112 -91.875689 
L 138.388251 -107.628708 
L 154.407389 -68.720423 
L 170.426528 -76.525764 
L 186.445667 -97.452373 
L 202.464806 -103.961466 
L 218.483944 -105.305782 
L 234.503083 -90.670863 
L 250.522222 -122.208435 
L 266.541361 -82.851116 
L 282.560499 -98.375383 
L 298.579638 -92.504155 
L 314.598777 -102.043021 
L 330.617916 -110.970634 
L 346.637054 -92.012696 
L 362.656193 -87.339421 
L 362.656193 -111.554234 
L 362.656193 -111.554234 
L 346.637054 -124.571981 
L 330.617916 -128.497798 
L 314.598777 -127.899855 
L 298.579638 -117.266423 
L 282.560499 -117.796781 
L 266.541361 -103.024217 
L 250.522222 -153.272344 
L 234.503083 -111.642161 
L 218.483944 -131.049612 
L 202.464806 -123.620733 
L 186.445667 -121.893477 
L 170.426528 -90.533542 
L 154.407389 -85.565483 
L 138.388251 -126.524933 
L 122.369112 -111.115673 
L 106.349973 -147.820859 
L 90.330834 -169.494269 
L 74.311696 -152.234004 
L 58.292557 -58.585241 
z
" id="m76676fc464" style="stroke:#c0c0c0;stroke-opacity:0.2;"/>
    </defs>
    <g clip-path="url(#pc7477dbdd6)">
     <use style="fill:#c0c0c0;fill-opacity:0.2;stroke:#c0c0c0;stroke-opacity:0.2;" x="0" xlink:href="#m76676fc464" y="280.699062"/>
    </g>
   </g>
   <g id="matplotlib.axis_1">
    <g id="xtick_1">
     <g id="line2d_1">
      <defs>
       <path d="M 0 0 
L 0 3.5 
" id="m50791353e3" style="stroke:#000000;stroke-width:0.8;"/>
      </defs>
      <g>
       <use style="stroke:#000000;stroke-width:0.8;" x="58.292557" xlink:href="#m50791353e3" y="242.0925"/>
      </g>
     </g>
     <g id="text_1">
      <text style="font-family:Arial;font-size:10px;font-style:normal;font-weight:normal;text-anchor:middle;" transform="rotate(-0, 58.292557, 256.250312)" x="58.292557" y="256.250312">10</text>
     </g>
    </g>
    <g id="xtick_2">
     <g id="line2d_2">
      <g>
       <use style="stroke:#000000;stroke-width:0.8;" x="122.369112" xlink:href="#m50791353e3" y="242.0925"/>
      </g>
     </g>
     <g id="text_2">
      <text style="font-family:Arial;font-size:10px;font-style:normal;font-weight:normal;text-anchor:middle;" transform="rotate(-0, 122.369112, 256.250312)" x="122.369112" y="256.250312">12</text>
     </g>
    </g>
    <g id="xtick_3">
     <g id="line2d_3">
      <g>
       <use style="stroke:#000000;stroke-width:0.8;" x="186.445667" xlink:href="#m50791353e3" y="242.0925"/>
      </g>
     </g>
     <g id="text_3">
      <text style="font-family:Arial;font-size:10px;font-style:normal;font-weight:normal;text-anchor:middle;" transform="rotate(-0, 186.445667, 256.250312)" x="186.445667" y="256.250312">14</text>
     </g>
    </g>
    <g id="xtick_4">
     <g id="line2d_4">
      <g>
       <use style="stroke:#000000;stroke-width:0.8;" x="250.522222" xlink:href="#m50791353e3" y="242.0925"/>
      </g>
     </g>
     <g id="text_4">
      <text style="font-family:Arial;font-size:10px;font-style:normal;font-weight:normal;text-anchor:middle;" transform="rotate(-0, 250.522222, 256.250312)" x="250.522222" y="256.250312">16</text>
     </g>
    </g>
    <g id="xtick_5">
     <g id="line2d_5">
      <g>
       <use style="stroke:#000000;stroke-width:0.8;" x="314.598777" xlink:href="#m50791353e3" y="242.0925"/>
      </g>
     </g>
     <g id="text_5">
      <text style="font-family:Arial;font-size:10px;font-style:normal;font-weight:normal;text-anchor:middle;" transform="rotate(-0, 314.598777, 256.250312)" x="314.598777" y="256.250312">18</text>
     </g>
    </g>
    <g id="text_6">
     <text style="font-family:Arial;font-size:12px;font-style:normal;font-weight:normal;text-anchor:middle;" transform="rotate(-0, 210.474375, 270.973437)" x="210.474375" y="270.973437">Host Age (in Weeks)</text>
    </g>
   </g>
   <g id="matplotlib.axis_2">
    <g id="ytick_1">
     <g id="line2d_6">
      <defs>
       <path d="M 0 0 
L -3.5 0 
" id="mf757cc774b" style="stroke:#000000;stroke-width:0.8;"/>
      </defs>
      <g>
       <use style="stroke:#000000;stroke-width:0.8;" x="43.074375" xlink:href="#mf757cc774b" y="234.243776"/>
      </g>
     </g>
     <g id="text_7">
      <text style="font-family:Arial;font-size:10px;font-style:normal;font-weight:normal;text-anchor:end;" transform="rotate(-0, 36.074375, 237.822682)" x="36.074375" y="237.822682">0.0</text>
     </g>
    </g>
    <g id="ytick_2">
     <g id="line2d_7">
      <g>
       <use style="stroke:#000000;stroke-width:0.8;" x="43.074375" xlink:href="#mf757cc774b" y="199.131385"/>
      </g>
     </g>
     <g id="text_8">
      <text style="font-family:Arial;font-size:10px;font-style:normal;font-weight:normal;text-anchor:end;" transform="rotate(-0, 36.074375, 202.710291)" x="36.074375" y="202.710291">0.1</text>
     </g>
    </g>
    <g id="ytick_3">
     <g id="line2d_8">
      <g>
       <use style="stroke:#000000;stroke-width:0.8;" x="43.074375" xlink:href="#mf757cc774b" y="164.018993"/>
      </g>
     </g>
     <g id="text_9">
      <text style="font-family:Arial;font-size:10px;font-style:normal;font-weight:normal;text-anchor:end;" transform="rotate(-0, 36.074375, 167.5979)" x="36.074375" y="167.5979">0.2</text>
     </g>
    </g>
    <g id="ytick_4">
     <g id="line2d_9">
      <g>
       <use style="stroke:#000000;stroke-width:0.8;" x="43.074375" xlink:href="#mf757cc774b" y="128.906602"/>
      </g>
     </g>
     <g id="text_10">
      <text style="font-family:Arial;font-size:10px;font-style:normal;font-weight:normal;text-anchor:end;" transform="rotate(-0, 36.074375, 132.485509)" x="36.074375" y="132.485509">0.3</text>
     </g>
    </g>
    <g id="ytick_5">
     <g id="line2d_10">
      <g>
       <use style="stroke:#000000;stroke-width:0.8;" x="43.074375" xlink:href="#mf757cc774b" y="93.794211"/>
      </g>
     </g>
     <g id="text_11">
      <text style="font-family:Arial;font-size:10px;font-style:normal;font-weight:normal;text-anchor:end;" transform="rotate(-0, 36.074375, 97.373117)" x="36.074375" y="97.373117">0.4</text>
     </g>
    </g>
    <g id="ytick_6">
     <g id="line2d_11">
      <g>
       <use style="stroke:#000000;stroke-width:0.8;" x="43.074375" xlink:href="#mf757cc774b" y="58.68182"/>
      </g>
     </g>
     <g id="text_12">
      <text style="font-family:Arial;font-size:10px;font-style:normal;font-weight:normal;text-anchor:end;" transform="rotate(-0, 36.074375, 62.260726)" x="36.074375" y="62.260726">0.5</text>
     </g>
    </g>
    <g id="text_13">
     <text style="font-family:Arial;font-size:12px;font-style:normal;font-weight:normal;text-anchor:middle;" transform="rotate(-90, 15.789375, 133.3725)" x="15.789375" y="133.3725">Relative Abundance</text>
    </g>
   </g>
   <g id="line2d_12">
    <path clip-path="url(#pc7477dbdd6)" d="M 58.292557 231.208734 
L 74.311696 158.132504 
L 90.330834 131.703545 
L 106.349973 94.947412 
L 122.369112 125.877298 
L 138.388251 128.26976 
L 154.407389 147.285842 
L 170.426528 134.890104 
L 186.445667 110.733645 
L 202.464806 67.772602 
L 218.483944 115.088844 
L 234.503083 142.280293 
L 250.522222 108.22096 
L 266.541361 66.758922 
L 282.560499 106.177431 
L 298.579638 99.240074 
L 314.598777 79.908856 
L 330.617916 71.503163 
L 346.637054 49.146396 
L 362.656193 114.337637 
" style="fill:none;stroke:#008000;stroke-linecap:square;stroke-width:1.5;"/>
   </g>
   <g id="line2d_13">
    <path clip-path="url(#pc7477dbdd6)" d="M 58.292557 225.391093 
L 74.311696 140.823014 
L 90.330834 122.308686 
L 106.349973 143.903954 
L 122.369112 179.92571 
L 138.388251 163.590259 
L 154.407389 203.640917 
L 170.426528 197.413318 
L 186.445667 171.783151 
L 202.464806 167.091328 
L 218.483944 162.667073 
L 234.503083 179.728816 
L 250.522222 142.653218 
L 266.541361 188.049753 
L 282.560499 172.972079 
L 298.579638 176.184978 
L 314.598777 165.955339 
L 330.617916 161.199101 
L 346.637054 172.297945 
L 362.656193 182.140315 
" style="fill:none;stroke:#c0c0c0;stroke-linecap:square;stroke-width:1.5;"/>
   </g>
   <g id="line2d_14"/>
   <g id="line2d_15"/>
   <g id="line2d_16"/>
   <g id="patch_3">
    <path d="M 43.074375 242.0925 
L 43.074375 24.6525 
" style="fill:none;stroke:#000000;stroke-linecap:square;stroke-linejoin:miter;stroke-width:0.8;"/>
   </g>
   <g id="patch_4">
    <path d="M 377.874375 242.0925 
L 377.874375 24.6525 
" style="fill:none;stroke:#000000;stroke-linecap:square;stroke-linejoin:miter;stroke-width:0.8;"/>
   </g>
   <g id="patch_5">
    <path d="M 43.074375 242.0925 
L 377.874375 242.0925 
" style="fill:none;stroke:#000000;stroke-linecap:square;stroke-linejoin:miter;stroke-width:0.8;"/>
   </g>
   <g id="patch_6">
    <path d="M 43.074375 24.6525 
L 377.874375 24.6525 
" style="fill:none;stroke:#000000;stroke-linecap:square;stroke-linejoin:miter;stroke-width:0.8;"/>
   </g>
   <g id="text_14">
    <text style="font-family:Arial;font-size:16px;font-style:normal;font-weight:normal;text-anchor:middle;" transform="rotate(-0, 210.474375, 18.6525)" x="210.474375" y="18.6525">Verrucomicrobiaceae</text>
   </g>
   <g id="legend_1">
    <g id="patch_7">
     <path d="M 396.614375 70.205625 
L 494.209687 70.205625 
Q 496.209687 70.205625 496.209687 68.205625 
L 496.209687 26.6525 
Q 496.209687 24.6525 494.209687 24.6525 
L 396.614375 24.6525 
Q 394.614375 24.6525 394.614375 26.6525 
L 394.614375 68.205625 
Q 394.614375 70.205625 396.614375 70.205625 
z
" style="fill:#ffffff;opacity:0.8;stroke:#cccccc;stroke-linejoin:miter;"/>
    </g>
    <g id="line2d_17">
     <path d="M 398.614375 32.310312 
L 418.614375 32.310312 
" style="fill:none;"/>
    </g>
    <g id="line2d_18"/>
    <g id="text_15">
     <text style="font-family:Arial;font-size:10px;font-style:normal;font-weight:normal;text-anchor:start;" transform="rotate(-0, 426.614375, 35.810312)" x="426.614375" y="35.810312">exposure_type</text>
    </g>
    <g id="line2d_19">
     <path d="M 398.614375 46.572812 
L 418.614375 46.572812 
" style="fill:none;stroke:#008000;stroke-linecap:square;stroke-width:1.5;"/>
    </g>
    <g id="line2d_20"/>
    <g id="text_16">
     <text style="font-family:Arial;font-size:10px;font-style:normal;font-weight:normal;text-anchor:start;" transform="rotate(-0, 426.614375, 50.072812)" x="426.614375" y="50.072812">IHC</text>
    </g>
    <g id="line2d_21">
     <path d="M 398.614375 60.718125 
L 418.614375 60.718125 
" style="fill:none;stroke:#c0c0c0;stroke-linecap:square;stroke-width:1.5;"/>
    </g>
    <g id="line2d_22"/>
    <g id="text_17">
     <text style="font-family:Arial;font-size:10px;font-style:normal;font-weight:normal;text-anchor:start;" transform="rotate(-0, 426.614375, 64.218125)" x="426.614375" y="64.218125">Air</text>
    </g>
   </g>
  </g>
 </g>
 <defs>
  <clipPath id="pc7477dbdd6">
   <rect height="217.44" width="334.8" x="43.074375" y="24.6525"/>
  </clipPath>
 </defs>
</svg>
