<?xml version="1.0" encoding="utf-8" standalone="no"?>
<!DOCTYPE svg PUBLIC "-//W3C//DTD SVG 1.1//EN"
  "http://www.w3.org/Graphics/SVG/1.1/DTD/svg11.dtd">
<!-- Created with matplotlib (https://matplotlib.org/) -->
<svg height="280.699062pt" version="1.1" viewBox="0 0 503.409688 280.699062" width="503.409688pt" xmlns="http://www.w3.org/2000/svg" xmlns:xlink="http://www.w3.org/1999/xlink">
 <defs>
  <style type="text/css">
*{stroke-linecap:butt;stroke-linejoin:round;white-space:pre;}
  </style>
 </defs>
 <g id="figure_1">
  <g id="patch_1">
   <path d="M 0 280.699062 
L 503.409688 280.699062 
L 503.409688 0 
L 0 0 
z
" style="fill:#ffffff;"/>
  </g>
  <g id="axes_1">
   <g id="patch_2">
    <path d="M 43.074375 242.0925 
L 377.874375 242.0925 
L 377.874375 24.6525 
L 43.074375 24.6525 
z
" style="fill:#ffffff;"/>
   </g>
   <g id="PolyCollection_1">
    <defs>
     <path d="M 58.292557 -246.162926 
L 58.292557 -220.238769 
L 74.311696 -128.01903 
L 90.330834 -134.326466 
L 106.349973 -88.317568 
L 122.369112 -110.112125 
L 138.388251 -108.276939 
L 154.407389 -76.666864 
L 170.426528 -70.287935 
L 186.445667 -65.196918 
L 202.464806 -48.490199 
L 218.483944 -104.044384 
L 234.503083 -82.23449 
L 250.522222 -114.833389 
L 266.541361 -65.919217 
L 282.560499 -105.157418 
L 298.579638 -84.224368 
L 314.598777 -79.909386 
L 330.617916 -70.143797 
L 346.637054 -64.370786 
L 362.656193 -77.889685 
L 362.656193 -89.68999 
L 362.656193 -89.68999 
L 346.637054 -79.333068 
L 330.617916 -92.233309 
L 314.598777 -93.978644 
L 298.579638 -102.082819 
L 282.560499 -118.681361 
L 266.541361 -77.871564 
L 250.522222 -130.30963 
L 234.503083 -92.48245 
L 218.483944 -114.756675 
L 202.464806 -53.393039 
L 186.445667 -81.688395 
L 170.426528 -92.94932 
L 154.407389 -93.924241 
L 138.388251 -127.975489 
L 122.369112 -122.341126 
L 106.349973 -103.335062 
L 90.330834 -144.55909 
L 74.311696 -153.671212 
L 58.292557 -246.162926 
z
" id="mc68d9a4db1" style="stroke:#008000;stroke-opacity:0.2;"/>
    </defs>
    <g clip-path="url(#pe0be642f8b)">
     <use style="fill:#008000;fill-opacity:0.2;stroke:#008000;stroke-opacity:0.2;" x="0" xlink:href="#mc68d9a4db1" y="280.699062"/>
    </g>
   </g>
   <g id="PolyCollection_2">
    <defs>
     <path d="M 58.292557 -226.804988 
L 58.292557 -201.400973 
L 74.311696 -124.38437 
L 90.330834 -107.565686 
L 106.349973 -111.709084 
L 122.369112 -103.09526 
L 138.388251 -114.222674 
L 154.407389 -75.060871 
L 170.426528 -86.804264 
L 186.445667 -118.4462 
L 202.464806 -108.419039 
L 218.483944 -111.295688 
L 234.503083 -114.72821 
L 250.522222 -111.684131 
L 266.541361 -92.780593 
L 282.560499 -93.496672 
L 298.579638 -93.496458 
L 314.598777 -101.242485 
L 330.617916 -103.361658 
L 346.637054 -116.131928 
L 362.656193 -109.864388 
L 362.656193 -132.70384 
L 362.656193 -132.70384 
L 346.637054 -130.764732 
L 330.617916 -114.875117 
L 314.598777 -114.44163 
L 298.579638 -107.211883 
L 282.560499 -101.452472 
L 266.541361 -106.359816 
L 250.522222 -124.599933 
L 234.503083 -123.923097 
L 218.483944 -129.566243 
L 202.464806 -121.67985 
L 186.445667 -134.652141 
L 170.426528 -101.209766 
L 154.407389 -85.84385 
L 138.388251 -126.083179 
L 122.369112 -116.203139 
L 106.349973 -130.174202 
L 90.330834 -121.091286 
L 74.311696 -137.179091 
L 58.292557 -226.804988 
z
" id="mc7ef846bb1" style="stroke:#c0c0c0;stroke-opacity:0.2;"/>
    </defs>
    <g clip-path="url(#pe0be642f8b)">
     <use style="fill:#c0c0c0;fill-opacity:0.2;stroke:#c0c0c0;stroke-opacity:0.2;" x="0" xlink:href="#mc7ef846bb1" y="280.699062"/>
    </g>
   </g>
   <g id="matplotlib.axis_1">
    <g id="xtick_1">
     <g id="line2d_1">
      <defs>
       <path d="M 0 0 
L 0 3.5 
" id="mc09ebfce66" style="stroke:#000000;stroke-width:0.8;"/>
      </defs>
      <g>
       <use style="stroke:#000000;stroke-width:0.8;" x="58.292557" xlink:href="#mc09ebfce66" y="242.0925"/>
      </g>
     </g>
     <g id="text_1">
      <text style="font-family:Arial;font-size:10px;font-style:normal;font-weight:normal;text-anchor:middle;" transform="rotate(-0, 58.292557, 256.250312)" x="58.292557" y="256.250312">10</text>
     </g>
    </g>
    <g id="xtick_2">
     <g id="line2d_2">
      <g>
       <use style="stroke:#000000;stroke-width:0.8;" x="122.369112" xlink:href="#mc09ebfce66" y="242.0925"/>
      </g>
     </g>
     <g id="text_2">
      <text style="font-family:Arial;font-size:10px;font-style:normal;font-weight:normal;text-anchor:middle;" transform="rotate(-0, 122.369112, 256.250312)" x="122.369112" y="256.250312">12</text>
     </g>
    </g>
    <g id="xtick_3">
     <g id="line2d_3">
      <g>
       <use style="stroke:#000000;stroke-width:0.8;" x="186.445667" xlink:href="#mc09ebfce66" y="242.0925"/>
      </g>
     </g>
     <g id="text_3">
      <text style="font-family:Arial;font-size:10px;font-style:normal;font-weight:normal;text-anchor:middle;" transform="rotate(-0, 186.445667, 256.250312)" x="186.445667" y="256.250312">14</text>
     </g>
    </g>
    <g id="xtick_4">
     <g id="line2d_4">
      <g>
       <use style="stroke:#000000;stroke-width:0.8;" x="250.522222" xlink:href="#mc09ebfce66" y="242.0925"/>
      </g>
     </g>
     <g id="text_4">
      <text style="font-family:Arial;font-size:10px;font-style:normal;font-weight:normal;text-anchor:middle;" transform="rotate(-0, 250.522222, 256.250312)" x="250.522222" y="256.250312">16</text>
     </g>
    </g>
    <g id="xtick_5">
     <g id="line2d_5">
      <g>
       <use style="stroke:#000000;stroke-width:0.8;" x="314.598777" xlink:href="#mc09ebfce66" y="242.0925"/>
      </g>
     </g>
     <g id="text_5">
      <text style="font-family:Arial;font-size:10px;font-style:normal;font-weight:normal;text-anchor:middle;" transform="rotate(-0, 314.598777, 256.250312)" x="314.598777" y="256.250312">18</text>
     </g>
    </g>
    <g id="text_6">
     <text style="font-family:Arial;font-size:12px;font-style:normal;font-weight:normal;text-anchor:middle;" transform="rotate(-0, 210.474375, 270.973437)" x="210.474375" y="270.973437">Host Age (in Weeks)</text>
    </g>
   </g>
   <g id="matplotlib.axis_2">
    <g id="ytick_1">
     <g id="line2d_6">
      <defs>
       <path d="M 0 0 
L -3.5 0 
" id="m8086647a06" style="stroke:#000000;stroke-width:0.8;"/>
      </defs>
      <g>
       <use style="stroke:#000000;stroke-width:0.8;" x="43.074375" xlink:href="#m8086647a06" y="237.100657"/>
      </g>
     </g>
     <g id="text_7">
      <text style="font-family:Arial;font-size:10px;font-style:normal;font-weight:normal;text-anchor:end;" transform="rotate(-0, 36.074375, 240.679563)" x="36.074375" y="240.679563">0.0</text>
     </g>
    </g>
    <g id="ytick_2">
     <g id="line2d_7">
      <g>
       <use style="stroke:#000000;stroke-width:0.8;" x="43.074375" xlink:href="#m8086647a06" y="204.283504"/>
      </g>
     </g>
     <g id="text_8">
      <text style="font-family:Arial;font-size:10px;font-style:normal;font-weight:normal;text-anchor:end;" transform="rotate(-0, 36.074375, 207.86241)" x="36.074375" y="207.86241">0.1</text>
     </g>
    </g>
    <g id="ytick_3">
     <g id="line2d_8">
      <g>
       <use style="stroke:#000000;stroke-width:0.8;" x="43.074375" xlink:href="#m8086647a06" y="171.466351"/>
      </g>
     </g>
     <g id="text_9">
      <text style="font-family:Arial;font-size:10px;font-style:normal;font-weight:normal;text-anchor:end;" transform="rotate(-0, 36.074375, 175.045257)" x="36.074375" y="175.045257">0.2</text>
     </g>
    </g>
    <g id="ytick_4">
     <g id="line2d_9">
      <g>
       <use style="stroke:#000000;stroke-width:0.8;" x="43.074375" xlink:href="#m8086647a06" y="138.649198"/>
      </g>
     </g>
     <g id="text_10">
      <text style="font-family:Arial;font-size:10px;font-style:normal;font-weight:normal;text-anchor:end;" transform="rotate(-0, 36.074375, 142.228104)" x="36.074375" y="142.228104">0.3</text>
     </g>
    </g>
    <g id="ytick_5">
     <g id="line2d_10">
      <g>
       <use style="stroke:#000000;stroke-width:0.8;" x="43.074375" xlink:href="#m8086647a06" y="105.832045"/>
      </g>
     </g>
     <g id="text_11">
      <text style="font-family:Arial;font-size:10px;font-style:normal;font-weight:normal;text-anchor:end;" transform="rotate(-0, 36.074375, 109.410951)" x="36.074375" y="109.410951">0.4</text>
     </g>
    </g>
    <g id="ytick_6">
     <g id="line2d_11">
      <g>
       <use style="stroke:#000000;stroke-width:0.8;" x="43.074375" xlink:href="#m8086647a06" y="73.014892"/>
      </g>
     </g>
     <g id="text_12">
      <text style="font-family:Arial;font-size:10px;font-style:normal;font-weight:normal;text-anchor:end;" transform="rotate(-0, 36.074375, 76.593798)" x="36.074375" y="76.593798">0.5</text>
     </g>
    </g>
    <g id="ytick_7">
     <g id="line2d_12">
      <g>
       <use style="stroke:#000000;stroke-width:0.8;" x="43.074375" xlink:href="#m8086647a06" y="40.197739"/>
      </g>
     </g>
     <g id="text_13">
      <text style="font-family:Arial;font-size:10px;font-style:normal;font-weight:normal;text-anchor:end;" transform="rotate(-0, 36.074375, 43.776645)" x="36.074375" y="43.776645">0.6</text>
     </g>
    </g>
    <g id="text_14">
     <text style="font-family:Arial;font-size:12px;font-style:normal;font-weight:normal;text-anchor:middle;" transform="rotate(-90, 15.789375, 133.3725)" x="15.789375" y="133.3725">Relative Abundance</text>
    </g>
   </g>
   <g id="line2d_13">
    <path clip-path="url(#pe0be642f8b)" d="M 58.292557 46.782618 
L 74.311696 139.271222 
L 90.330834 141.231136 
L 106.349973 185.059731 
L 122.369112 164.559734 
L 138.388251 161.942942 
L 154.407389 195.070132 
L 170.426528 198.41327 
L 186.445667 207.656378 
L 202.464806 229.773102 
L 218.483944 171.270092 
L 234.503083 193.627581 
L 250.522222 158.155222 
L 266.541361 208.767345 
L 282.560499 168.728663 
L 298.579638 187.546756 
L 314.598777 193.394176 
L 330.617916 199.416504 
L 346.637054 208.504106 
L 362.656193 196.95148 
" style="fill:none;stroke:#008000;stroke-linecap:square;stroke-width:1.5;"/>
   </g>
   <g id="line2d_14">
    <path clip-path="url(#pe0be642f8b)" d="M 58.292557 66.097551 
L 74.311696 149.808102 
L 90.330834 166.340011 
L 106.349973 159.072335 
L 122.369112 171.163382 
L 138.388251 160.854887 
L 154.407389 200.141874 
L 170.426528 187.07936 
L 186.445667 154.194935 
L 202.464806 165.339946 
L 218.483944 159.845803 
L 234.503083 161.489585 
L 250.522222 162.779458 
L 266.541361 181.180121 
L 282.560499 183.193657 
L 298.579638 179.622379 
L 314.598777 173.072354 
L 330.617916 171.549466 
L 346.637054 156.738849 
L 362.656193 158.961514 
" style="fill:none;stroke:#c0c0c0;stroke-linecap:square;stroke-width:1.5;"/>
   </g>
   <g id="line2d_15"/>
   <g id="line2d_16"/>
   <g id="line2d_17"/>
   <g id="patch_3">
    <path d="M 43.074375 242.0925 
L 43.074375 24.6525 
" style="fill:none;stroke:#000000;stroke-linecap:square;stroke-linejoin:miter;stroke-width:0.8;"/>
   </g>
   <g id="patch_4">
    <path d="M 377.874375 242.0925 
L 377.874375 24.6525 
" style="fill:none;stroke:#000000;stroke-linecap:square;stroke-linejoin:miter;stroke-width:0.8;"/>
   </g>
   <g id="patch_5">
    <path d="M 43.074375 242.0925 
L 377.874375 242.0925 
" style="fill:none;stroke:#000000;stroke-linecap:square;stroke-linejoin:miter;stroke-width:0.8;"/>
   </g>
   <g id="patch_6">
    <path d="M 43.074375 24.6525 
L 377.874375 24.6525 
" style="fill:none;stroke:#000000;stroke-linecap:square;stroke-linejoin:miter;stroke-width:0.8;"/>
   </g>
   <g id="text_15">
    <text style="font-family:Arial;font-size:16px;font-style:normal;font-weight:normal;text-anchor:middle;" transform="rotate(-0, 210.474375, 18.6525)" x="210.474375" y="18.6525">S24-7</text>
   </g>
   <g id="legend_1">
    <g id="patch_7">
     <path d="M 396.614375 70.205625 
L 494.209687 70.205625 
Q 496.209687 70.205625 496.209687 68.205625 
L 496.209687 26.6525 
Q 496.209687 24.6525 494.209687 24.6525 
L 396.614375 24.6525 
Q 394.614375 24.6525 394.614375 26.6525 
L 394.614375 68.205625 
Q 394.614375 70.205625 396.614375 70.205625 
z
" style="fill:#ffffff;opacity:0.8;stroke:#cccccc;stroke-linejoin:miter;"/>
    </g>
    <g id="line2d_18">
     <path d="M 398.614375 32.310312 
L 418.614375 32.310312 
" style="fill:none;"/>
    </g>
    <g id="line2d_19"/>
    <g id="text_16">
     <text style="font-family:Arial;font-size:10px;font-style:normal;font-weight:normal;text-anchor:start;" transform="rotate(-0, 426.614375, 35.810312)" x="426.614375" y="35.810312">exposure_type</text>
    </g>
    <g id="line2d_20">
     <path d="M 398.614375 46.572812 
L 418.614375 46.572812 
" style="fill:none;stroke:#008000;stroke-linecap:square;stroke-width:1.5;"/>
    </g>
    <g id="line2d_21"/>
    <g id="text_17">
     <text style="font-family:Arial;font-size:10px;font-style:normal;font-weight:normal;text-anchor:start;" transform="rotate(-0, 426.614375, 50.072812)" x="426.614375" y="50.072812">IHC</text>
    </g>
    <g id="line2d_22">
     <path d="M 398.614375 60.718125 
L 418.614375 60.718125 
" style="fill:none;stroke:#c0c0c0;stroke-linecap:square;stroke-width:1.5;"/>
    </g>
    <g id="line2d_23"/>
    <g id="text_18">
     <text style="font-family:Arial;font-size:10px;font-style:normal;font-weight:normal;text-anchor:start;" transform="rotate(-0, 426.614375, 64.218125)" x="426.614375" y="64.218125">Air</text>
    </g>
   </g>
  </g>
 </g>
 <defs>
  <clipPath id="pe0be642f8b">
   <rect height="217.44" width="334.8" x="43.074375" y="24.6525"/>
  </clipPath>
 </defs>
</svg>
