<?xml version="1.0" encoding="utf-8" standalone="no"?>
<!DOCTYPE svg PUBLIC "-//W3C//DTD SVG 1.1//EN"
  "http://www.w3.org/Graphics/SVG/1.1/DTD/svg11.dtd">
<!-- Created with matplotlib (https://matplotlib.org/) -->
<svg height="280.699062pt" version="1.1" viewBox="0 0 503.409688 280.699062" width="503.409688pt" xmlns="http://www.w3.org/2000/svg" xmlns:xlink="http://www.w3.org/1999/xlink">
 <defs>
  <style type="text/css">
*{stroke-linecap:butt;stroke-linejoin:round;white-space:pre;}
  </style>
 </defs>
 <g id="figure_1">
  <g id="patch_1">
   <path d="M 0 280.699062 
L 503.409688 280.699062 
L 503.409688 0 
L 0 0 
z
" style="fill:#ffffff;"/>
  </g>
  <g id="axes_1">
   <g id="patch_2">
    <path d="M 43.074375 242.0925 
L 377.874375 242.0925 
L 377.874375 24.6525 
L 43.074375 24.6525 
z
" style="fill:#ffffff;"/>
   </g>
   <g id="PolyCollection_1">
    <defs>
     <path d="M 58.292557 -53.091522 
L 58.292557 -48.490199 
L 73.510739 -121.348568 
L 88.72892 -203.126846 
L 103.947102 -161.573651 
L 119.165284 -137.600153 
L 134.383466 -117.773279 
L 149.601648 -157.906464 
L 164.81983 -141.115064 
L 180.038011 -127.580406 
L 195.256193 -129.530368 
L 210.474375 -148.026699 
L 225.692557 -156.637098 
L 240.910739 -119.125399 
L 256.12892 -140.726933 
L 271.347102 -128.263877 
L 286.565284 -123.206654 
L 301.783466 -132.433541 
L 317.001648 -131.001216 
L 332.21983 -127.783199 
L 347.438011 -119.221233 
L 362.656193 -143.083381 
L 362.656193 -206.05407 
L 362.656193 -206.05407 
L 347.438011 -148.441678 
L 332.21983 -170.752251 
L 317.001648 -191.904037 
L 301.783466 -180.093096 
L 286.565284 -149.353905 
L 271.347102 -163.826982 
L 256.12892 -186.63401 
L 240.910739 -154.035702 
L 225.692557 -202.113661 
L 210.474375 -193.425832 
L 195.256193 -168.191211 
L 180.038011 -155.289303 
L 164.81983 -173.060644 
L 149.601648 -199.233958 
L 134.383466 -170.674467 
L 119.165284 -185.353448 
L 103.947102 -203.160862 
L 88.72892 -238.131985 
L 73.510739 -148.133168 
L 58.292557 -53.091522 
z
" id="madecc55b25" style="stroke:#c0c0c0;stroke-opacity:0.2;"/>
    </defs>
    <g clip-path="url(#p59b979a5d8)">
     <use style="fill:#c0c0c0;fill-opacity:0.2;stroke:#c0c0c0;stroke-opacity:0.2;" x="0" xlink:href="#madecc55b25" y="280.699062"/>
    </g>
   </g>
   <g id="PolyCollection_2">
    <defs>
     <path d="M 58.292557 -56.841121 
L 58.292557 -51.894161 
L 73.510739 -148.076858 
L 88.72892 -231.514082 
L 103.947102 -203.025498 
L 119.165284 -171.546403 
L 134.383466 -152.4101 
L 149.601648 -176.806969 
L 164.81983 -154.300003 
L 180.038011 -179.873801 
L 195.256193 -156.760172 
L 210.474375 -144.701733 
L 225.692557 -149.091053 
L 240.910739 -149.726793 
L 256.12892 -148.57475 
L 271.347102 -171.859534 
L 286.565284 -143.719673 
L 301.783466 -165.275886 
L 317.001648 -155.17616 
L 332.21983 -181.653875 
L 347.438011 -146.351194 
L 362.656193 -166.399703 
L 362.656193 -188.528285 
L 362.656193 -188.528285 
L 347.438011 -163.362215 
L 332.21983 -202.112755 
L 317.001648 -176.163853 
L 301.783466 -186.515476 
L 286.565284 -168.466495 
L 271.347102 -194.97392 
L 256.12892 -169.496158 
L 240.910739 -171.682065 
L 225.692557 -171.482187 
L 210.474375 -166.889297 
L 195.256193 -177.54814 
L 180.038011 -205.219268 
L 164.81983 -184.76074 
L 149.601648 -205.879899 
L 134.383466 -188.453992 
L 119.165284 -195.408455 
L 103.947102 -230.010533 
L 88.72892 -246.162926 
L 73.510739 -183.501137 
L 58.292557 -56.841121 
z
" id="m6c52003f73" style="stroke:#ff0000;stroke-opacity:0.2;"/>
    </defs>
    <g clip-path="url(#p59b979a5d8)">
     <use style="fill:#ff0000;fill-opacity:0.2;stroke:#ff0000;stroke-opacity:0.2;" x="0" xlink:href="#m6c52003f73" y="280.699062"/>
    </g>
   </g>
   <g id="matplotlib.axis_1">
    <g id="xtick_1">
     <g id="line2d_1">
      <defs>
       <path d="M 0 0 
L 0 3.5 
" id="ma73ada8321" style="stroke:#000000;stroke-width:0.8;"/>
      </defs>
      <g>
       <use style="stroke:#000000;stroke-width:0.8;" x="58.292557" xlink:href="#ma73ada8321" y="242.0925"/>
      </g>
     </g>
     <g id="text_1">
      <text style="font-family:Arial;font-size:10px;font-style:normal;font-weight:normal;text-anchor:middle;" transform="rotate(-0, 58.292557, 256.250312)" x="58.292557" y="256.250312">10</text>
     </g>
    </g>
    <g id="xtick_2">
     <g id="line2d_2">
      <g>
       <use style="stroke:#000000;stroke-width:0.8;" x="119.165284" xlink:href="#ma73ada8321" y="242.0925"/>
      </g>
     </g>
     <g id="text_2">
      <text style="font-family:Arial;font-size:10px;font-style:normal;font-weight:normal;text-anchor:middle;" transform="rotate(-0, 119.165284, 256.250312)" x="119.165284" y="256.250312">12</text>
     </g>
    </g>
    <g id="xtick_3">
     <g id="line2d_3">
      <g>
       <use style="stroke:#000000;stroke-width:0.8;" x="180.038011" xlink:href="#ma73ada8321" y="242.0925"/>
      </g>
     </g>
     <g id="text_3">
      <text style="font-family:Arial;font-size:10px;font-style:normal;font-weight:normal;text-anchor:middle;" transform="rotate(-0, 180.038011, 256.250312)" x="180.038011" y="256.250312">14</text>
     </g>
    </g>
    <g id="xtick_4">
     <g id="line2d_4">
      <g>
       <use style="stroke:#000000;stroke-width:0.8;" x="240.910739" xlink:href="#ma73ada8321" y="242.0925"/>
      </g>
     </g>
     <g id="text_4">
      <text style="font-family:Arial;font-size:10px;font-style:normal;font-weight:normal;text-anchor:middle;" transform="rotate(-0, 240.910739, 256.250312)" x="240.910739" y="256.250312">16</text>
     </g>
    </g>
    <g id="xtick_5">
     <g id="line2d_5">
      <g>
       <use style="stroke:#000000;stroke-width:0.8;" x="301.783466" xlink:href="#ma73ada8321" y="242.0925"/>
      </g>
     </g>
     <g id="text_5">
      <text style="font-family:Arial;font-size:10px;font-style:normal;font-weight:normal;text-anchor:middle;" transform="rotate(-0, 301.783466, 256.250312)" x="301.783466" y="256.250312">18</text>
     </g>
    </g>
    <g id="xtick_6">
     <g id="line2d_6">
      <g>
       <use style="stroke:#000000;stroke-width:0.8;" x="362.656193" xlink:href="#ma73ada8321" y="242.0925"/>
      </g>
     </g>
     <g id="text_6">
      <text style="font-family:Arial;font-size:10px;font-style:normal;font-weight:normal;text-anchor:middle;" transform="rotate(-0, 362.656193, 256.250312)" x="362.656193" y="256.250312">20</text>
     </g>
    </g>
    <g id="text_7">
     <text style="font-family:Arial;font-size:12px;font-style:normal;font-weight:normal;text-anchor:middle;" transform="rotate(-0, 210.474375, 270.973437)" x="210.474375" y="270.973437">Host Age (in Weeks)</text>
    </g>
   </g>
   <g id="matplotlib.axis_2">
    <g id="ytick_1">
     <g id="line2d_7">
      <defs>
       <path d="M 0 0 
L -3.5 0 
" id="md45df63b5f" style="stroke:#000000;stroke-width:0.8;"/>
      </defs>
      <g>
       <use style="stroke:#000000;stroke-width:0.8;" x="43.074375" xlink:href="#md45df63b5f" y="236.254568"/>
      </g>
     </g>
     <g id="text_8">
      <text style="font-family:Arial;font-size:10px;font-style:normal;font-weight:normal;text-anchor:end;" transform="rotate(-0, 36.074375, 239.833474)" x="36.074375" y="239.833474">0.0</text>
     </g>
    </g>
    <g id="ytick_2">
     <g id="line2d_8">
      <g>
       <use style="stroke:#000000;stroke-width:0.8;" x="43.074375" xlink:href="#md45df63b5f" y="196.053139"/>
      </g>
     </g>
     <g id="text_9">
      <text style="font-family:Arial;font-size:10px;font-style:normal;font-weight:normal;text-anchor:end;" transform="rotate(-0, 36.074375, 199.632046)" x="36.074375" y="199.632046">0.1</text>
     </g>
    </g>
    <g id="ytick_3">
     <g id="line2d_9">
      <g>
       <use style="stroke:#000000;stroke-width:0.8;" x="43.074375" xlink:href="#md45df63b5f" y="155.851711"/>
      </g>
     </g>
     <g id="text_10">
      <text style="font-family:Arial;font-size:10px;font-style:normal;font-weight:normal;text-anchor:end;" transform="rotate(-0, 36.074375, 159.430617)" x="36.074375" y="159.430617">0.2</text>
     </g>
    </g>
    <g id="ytick_4">
     <g id="line2d_10">
      <g>
       <use style="stroke:#000000;stroke-width:0.8;" x="43.074375" xlink:href="#md45df63b5f" y="115.650283"/>
      </g>
     </g>
     <g id="text_11">
      <text style="font-family:Arial;font-size:10px;font-style:normal;font-weight:normal;text-anchor:end;" transform="rotate(-0, 36.074375, 119.229189)" x="36.074375" y="119.229189">0.3</text>
     </g>
    </g>
    <g id="ytick_5">
     <g id="line2d_11">
      <g>
       <use style="stroke:#000000;stroke-width:0.8;" x="43.074375" xlink:href="#md45df63b5f" y="75.448855"/>
      </g>
     </g>
     <g id="text_12">
      <text style="font-family:Arial;font-size:10px;font-style:normal;font-weight:normal;text-anchor:end;" transform="rotate(-0, 36.074375, 79.027761)" x="36.074375" y="79.027761">0.4</text>
     </g>
    </g>
    <g id="ytick_6">
     <g id="line2d_12">
      <g>
       <use style="stroke:#000000;stroke-width:0.8;" x="43.074375" xlink:href="#md45df63b5f" y="35.247427"/>
      </g>
     </g>
     <g id="text_13">
      <text style="font-family:Arial;font-size:10px;font-style:normal;font-weight:normal;text-anchor:end;" transform="rotate(-0, 36.074375, 38.826333)" x="36.074375" y="38.826333">0.5</text>
     </g>
    </g>
    <g id="text_14">
     <text style="font-family:Arial;font-size:12px;font-style:normal;font-weight:normal;text-anchor:middle;" transform="rotate(-90, 15.789375, 133.3725)" x="15.789375" y="133.3725">Relative Abundance</text>
    </g>
   </g>
   <g id="line2d_13">
    <path clip-path="url(#p59b979a5d8)" d="M 58.292557 229.958364 
L 73.510739 145.63314 
L 88.72892 60.337448 
L 103.947102 99.131885 
L 119.165284 119.089473 
L 134.383466 137.357965 
L 149.601648 100.672756 
L 164.81983 123.385052 
L 180.038011 139.650009 
L 195.256193 132.970128 
L 210.474375 109.018027 
L 225.692557 101.170502 
L 240.910739 144.649495 
L 256.12892 117.148597 
L 271.347102 134.173375 
L 286.565284 144.556612 
L 301.783466 123.579985 
L 317.001648 119.460061 
L 332.21983 131.448594 
L 347.438011 147.1921 
L 362.656193 106.717558 
" style="fill:none;stroke:#c0c0c0;stroke-linecap:square;stroke-width:1.5;"/>
   </g>
   <g id="line2d_14">
    <path clip-path="url(#p59b979a5d8)" d="M 58.292557 226.432912 
L 73.510739 115.120253 
L 88.72892 41.93662 
L 103.947102 63.342755 
L 119.165284 97.683656 
L 134.383466 109.343407 
L 149.601648 90.041893 
L 164.81983 111.230367 
L 180.038011 88.147125 
L 195.256193 113.247473 
L 210.474375 124.654284 
L 225.692557 120.937248 
L 240.910739 119.582983 
L 256.12892 121.370408 
L 271.347102 98.042023 
L 286.565284 124.639468 
L 301.783466 104.688165 
L 317.001648 115.376587 
L 332.21983 88.749909 
L 347.438011 126.411775 
L 362.656193 103.342019 
" style="fill:none;stroke:#ff0000;stroke-linecap:square;stroke-width:1.5;"/>
   </g>
   <g id="line2d_15"/>
   <g id="line2d_16"/>
   <g id="line2d_17"/>
   <g id="patch_3">
    <path d="M 43.074375 242.0925 
L 43.074375 24.6525 
" style="fill:none;stroke:#000000;stroke-linecap:square;stroke-linejoin:miter;stroke-width:0.8;"/>
   </g>
   <g id="patch_4">
    <path d="M 377.874375 242.0925 
L 377.874375 24.6525 
" style="fill:none;stroke:#000000;stroke-linecap:square;stroke-linejoin:miter;stroke-width:0.8;"/>
   </g>
   <g id="patch_5">
    <path d="M 43.074375 242.0925 
L 377.874375 242.0925 
" style="fill:none;stroke:#000000;stroke-linecap:square;stroke-linejoin:miter;stroke-width:0.8;"/>
   </g>
   <g id="patch_6">
    <path d="M 43.074375 24.6525 
L 377.874375 24.6525 
" style="fill:none;stroke:#000000;stroke-linecap:square;stroke-linejoin:miter;stroke-width:0.8;"/>
   </g>
   <g id="text_15">
    <text style="font-family:Arial;font-size:16px;font-style:normal;font-weight:normal;text-anchor:middle;" transform="rotate(-0, 210.474375, 18.6525)" x="210.474375" y="18.6525">Verrucomicrobiaceae</text>
   </g>
   <g id="legend_1">
    <g id="patch_7">
     <path d="M 396.614375 70.205625 
L 494.209687 70.205625 
Q 496.209687 70.205625 496.209687 68.205625 
L 496.209687 26.6525 
Q 496.209687 24.6525 494.209687 24.6525 
L 396.614375 24.6525 
Q 394.614375 24.6525 394.614375 26.6525 
L 394.614375 68.205625 
Q 394.614375 70.205625 396.614375 70.205625 
z
" style="fill:#ffffff;opacity:0.8;stroke:#cccccc;stroke-linejoin:miter;"/>
    </g>
    <g id="line2d_18">
     <path d="M 398.614375 32.310312 
L 418.614375 32.310312 
" style="fill:none;"/>
    </g>
    <g id="line2d_19"/>
    <g id="text_16">
     <text style="font-family:Arial;font-size:10px;font-style:normal;font-weight:normal;text-anchor:start;" transform="rotate(-0, 426.614375, 35.810312)" x="426.614375" y="35.810312">exposure_type</text>
    </g>
    <g id="line2d_20">
     <path d="M 398.614375 46.572812 
L 418.614375 46.572812 
" style="fill:none;stroke:#c0c0c0;stroke-linecap:square;stroke-width:1.5;"/>
    </g>
    <g id="line2d_21"/>
    <g id="text_17">
     <text style="font-family:Arial;font-size:10px;font-style:normal;font-weight:normal;text-anchor:start;" transform="rotate(-0, 426.614375, 50.072812)" x="426.614375" y="50.072812">Air</text>
    </g>
    <g id="line2d_22">
     <path d="M 398.614375 60.718125 
L 418.614375 60.718125 
" style="fill:none;stroke:#ff0000;stroke-linecap:square;stroke-width:1.5;"/>
    </g>
    <g id="line2d_23"/>
    <g id="text_18">
     <text style="font-family:Arial;font-size:10px;font-style:normal;font-weight:normal;text-anchor:start;" transform="rotate(-0, 426.614375, 64.218125)" x="426.614375" y="64.218125">IC</text>
    </g>
   </g>
  </g>
 </g>
 <defs>
  <clipPath id="p59b979a5d8">
   <rect height="217.44" width="334.8" x="43.074375" y="24.6525"/>
  </clipPath>
 </defs>
</svg>
