<?xml version="1.0" encoding="utf-8" standalone="no"?>
<!DOCTYPE svg PUBLIC "-//W3C//DTD SVG 1.1//EN"
  "http://www.w3.org/Graphics/SVG/1.1/DTD/svg11.dtd">
<!-- Created with matplotlib (https://matplotlib.org/) -->
<svg height="280.699062pt" version="1.1" viewBox="0 0 520.0925 280.699062" width="520.0925pt" xmlns="http://www.w3.org/2000/svg" xmlns:xlink="http://www.w3.org/1999/xlink">
 <defs>
  <style type="text/css">
*{stroke-linecap:butt;stroke-linejoin:round;white-space:pre;}
  </style>
 </defs>
 <g id="figure_1">
  <g id="patch_1">
   <path d="M 0 280.699062 
L 520.0925 280.699062 
L 520.0925 0 
L 0 0 
z
" style="fill:#ffffff;"/>
  </g>
  <g id="axes_1">
   <g id="patch_2">
    <path d="M 59.757188 242.0925 
L 394.557187 242.0925 
L 394.557187 24.6525 
L 59.757188 24.6525 
z
" style="fill:#ffffff;"/>
   </g>
   <g id="PolyCollection_1">
    <defs>
     <path d="M 74.975369 -82.686806 
L 74.975369 -56.027704 
L 90.193551 -85.883244 
L 105.411733 -121.7225 
L 120.629915 -152.545395 
L 135.848097 -177.449628 
L 151.066278 -163.896756 
L 166.28446 -127.799729 
L 181.502642 -154.75258 
L 196.720824 -151.685903 
L 211.939006 -138.819539 
L 227.157187 -112.155174 
L 242.375369 -108.530166 
L 257.593551 -140.422494 
L 272.811733 -108.59471 
L 288.029915 -120.53606 
L 303.248097 -183.259961 
L 318.466278 -123.086863 
L 333.68446 -131.801631 
L 348.902642 -195.217254 
L 364.120824 -135.432586 
L 379.339006 -154.561088 
L 379.339006 -180.937363 
L 379.339006 -180.937363 
L 364.120824 -155.506225 
L 348.902642 -236.934321 
L 333.68446 -175.073883 
L 318.466278 -144.066802 
L 303.248097 -231.140102 
L 288.029915 -149.556686 
L 272.811733 -153.142814 
L 257.593551 -205.670796 
L 242.375369 -172.898525 
L 227.157187 -163.040968 
L 211.939006 -205.98351 
L 196.720824 -233.781947 
L 181.502642 -205.195338 
L 166.28446 -165.380099 
L 151.066278 -188.446212 
L 135.848097 -208.842972 
L 120.629915 -215.70816 
L 105.411733 -158.502708 
L 90.193551 -112.156405 
L 74.975369 -82.686806 
z
" id="m4ed83c155b" style="stroke:#c0c0c0;stroke-opacity:0.2;"/>
    </defs>
    <g clip-path="url(#p3887cd15dc)">
     <use style="fill:#c0c0c0;fill-opacity:0.2;stroke:#c0c0c0;stroke-opacity:0.2;" x="0" xlink:href="#m4ed83c155b" y="280.699062"/>
    </g>
   </g>
   <g id="PolyCollection_2">
    <defs>
     <path d="M 74.975369 -68.125699 
L 74.975369 -48.490199 
L 90.193551 -94.510986 
L 105.411733 -147.545228 
L 120.629915 -159.977632 
L 135.848097 -190.310506 
L 151.066278 -191.32266 
L 166.28446 -181.206364 
L 181.502642 -158.587937 
L 196.720824 -140.729641 
L 211.939006 -136.475268 
L 227.157187 -146.467778 
L 242.375369 -118.297233 
L 257.593551 -151.182525 
L 272.811733 -134.441154 
L 288.029915 -107.038428 
L 303.248097 -129.001736 
L 318.466278 -141.794886 
L 333.68446 -129.556248 
L 348.902642 -181.326622 
L 364.120824 -163.179027 
L 379.339006 -127.660334 
L 379.339006 -148.680113 
L 379.339006 -148.680113 
L 364.120824 -196.786652 
L 348.902642 -217.784148 
L 333.68446 -160.124455 
L 318.466278 -173.043173 
L 303.248097 -153.646019 
L 288.029915 -142.969118 
L 272.811733 -162.697758 
L 257.593551 -185.684334 
L 242.375369 -145.413167 
L 227.157187 -180.505834 
L 211.939006 -173.33405 
L 196.720824 -174.662182 
L 181.502642 -203.297354 
L 166.28446 -218.301741 
L 151.066278 -246.162926 
L 135.848097 -234.092199 
L 120.629915 -222.975669 
L 105.411733 -182.158271 
L 90.193551 -120.874217 
L 74.975369 -68.125699 
z
" id="me21caaeb45" style="stroke:#ff0000;stroke-opacity:0.2;"/>
    </defs>
    <g clip-path="url(#p3887cd15dc)">
     <use style="fill:#ff0000;fill-opacity:0.2;stroke:#ff0000;stroke-opacity:0.2;" x="0" xlink:href="#me21caaeb45" y="280.699062"/>
    </g>
   </g>
   <g id="matplotlib.axis_1">
    <g id="xtick_1">
     <g id="line2d_1">
      <defs>
       <path d="M 0 0 
L 0 3.5 
" id="m1475e23e6d" style="stroke:#000000;stroke-width:0.8;"/>
      </defs>
      <g>
       <use style="stroke:#000000;stroke-width:0.8;" x="74.975369" xlink:href="#m1475e23e6d" y="242.0925"/>
      </g>
     </g>
     <g id="text_1">
      <text style="font-family:Arial;font-size:10px;font-style:normal;font-weight:normal;text-anchor:middle;" transform="rotate(-0, 74.975369, 256.250312)" x="74.975369" y="256.250312">10</text>
     </g>
    </g>
    <g id="xtick_2">
     <g id="line2d_2">
      <g>
       <use style="stroke:#000000;stroke-width:0.8;" x="135.848097" xlink:href="#m1475e23e6d" y="242.0925"/>
      </g>
     </g>
     <g id="text_2">
      <text style="font-family:Arial;font-size:10px;font-style:normal;font-weight:normal;text-anchor:middle;" transform="rotate(-0, 135.848097, 256.250312)" x="135.848097" y="256.250312">12</text>
     </g>
    </g>
    <g id="xtick_3">
     <g id="line2d_3">
      <g>
       <use style="stroke:#000000;stroke-width:0.8;" x="196.720824" xlink:href="#m1475e23e6d" y="242.0925"/>
      </g>
     </g>
     <g id="text_3">
      <text style="font-family:Arial;font-size:10px;font-style:normal;font-weight:normal;text-anchor:middle;" transform="rotate(-0, 196.720824, 256.250312)" x="196.720824" y="256.250312">14</text>
     </g>
    </g>
    <g id="xtick_4">
     <g id="line2d_4">
      <g>
       <use style="stroke:#000000;stroke-width:0.8;" x="257.593551" xlink:href="#m1475e23e6d" y="242.0925"/>
      </g>
     </g>
     <g id="text_4">
      <text style="font-family:Arial;font-size:10px;font-style:normal;font-weight:normal;text-anchor:middle;" transform="rotate(-0, 257.593551, 256.250312)" x="257.593551" y="256.250312">16</text>
     </g>
    </g>
    <g id="xtick_5">
     <g id="line2d_5">
      <g>
       <use style="stroke:#000000;stroke-width:0.8;" x="318.466278" xlink:href="#m1475e23e6d" y="242.0925"/>
      </g>
     </g>
     <g id="text_5">
      <text style="font-family:Arial;font-size:10px;font-style:normal;font-weight:normal;text-anchor:middle;" transform="rotate(-0, 318.466278, 256.250312)" x="318.466278" y="256.250312">18</text>
     </g>
    </g>
    <g id="xtick_6">
     <g id="line2d_6">
      <g>
       <use style="stroke:#000000;stroke-width:0.8;" x="379.339006" xlink:href="#m1475e23e6d" y="242.0925"/>
      </g>
     </g>
     <g id="text_6">
      <text style="font-family:Arial;font-size:10px;font-style:normal;font-weight:normal;text-anchor:middle;" transform="rotate(-0, 379.339006, 256.250312)" x="379.339006" y="256.250312">20</text>
     </g>
    </g>
    <g id="text_7">
     <text style="font-family:Arial;font-size:12px;font-style:normal;font-weight:normal;text-anchor:middle;" transform="rotate(-0, 227.157188, 270.973437)" x="227.157188" y="270.973437">Host Age (in Weeks)</text>
    </g>
   </g>
   <g id="matplotlib.axis_2">
    <g id="ytick_1">
     <g id="line2d_7">
      <defs>
       <path d="M 0 0 
L -3.5 0 
" id="mf70d391b68" style="stroke:#000000;stroke-width:0.8;"/>
      </defs>
      <g>
       <use style="stroke:#000000;stroke-width:0.8;" x="59.757188" xlink:href="#mf70d391b68" y="217.529551"/>
      </g>
     </g>
     <g id="text_8">
      <text style="font-family:Arial;font-size:10px;font-style:normal;font-weight:normal;text-anchor:end;" transform="rotate(-0, 52.757188, 221.108457)" x="52.757188" y="221.108457">0.0005</text>
     </g>
    </g>
    <g id="ytick_2">
     <g id="line2d_8">
      <g>
       <use style="stroke:#000000;stroke-width:0.8;" x="59.757188" xlink:href="#mf70d391b68" y="182.297866"/>
      </g>
     </g>
     <g id="text_9">
      <text style="font-family:Arial;font-size:10px;font-style:normal;font-weight:normal;text-anchor:end;" transform="rotate(-0, 52.757188, 185.876773)" x="52.757188" y="185.876773">0.0010</text>
     </g>
    </g>
    <g id="ytick_3">
     <g id="line2d_9">
      <g>
       <use style="stroke:#000000;stroke-width:0.8;" x="59.757188" xlink:href="#mf70d391b68" y="147.066182"/>
      </g>
     </g>
     <g id="text_10">
      <text style="font-family:Arial;font-size:10px;font-style:normal;font-weight:normal;text-anchor:end;" transform="rotate(-0, 52.757188, 150.645088)" x="52.757188" y="150.645088">0.0015</text>
     </g>
    </g>
    <g id="ytick_4">
     <g id="line2d_10">
      <g>
       <use style="stroke:#000000;stroke-width:0.8;" x="59.757188" xlink:href="#mf70d391b68" y="111.834498"/>
      </g>
     </g>
     <g id="text_11">
      <text style="font-family:Arial;font-size:10px;font-style:normal;font-weight:normal;text-anchor:end;" transform="rotate(-0, 52.757188, 115.413404)" x="52.757188" y="115.413404">0.0020</text>
     </g>
    </g>
    <g id="ytick_5">
     <g id="line2d_11">
      <g>
       <use style="stroke:#000000;stroke-width:0.8;" x="59.757188" xlink:href="#mf70d391b68" y="76.602814"/>
      </g>
     </g>
     <g id="text_12">
      <text style="font-family:Arial;font-size:10px;font-style:normal;font-weight:normal;text-anchor:end;" transform="rotate(-0, 52.757188, 80.18172)" x="52.757188" y="80.18172">0.0025</text>
     </g>
    </g>
    <g id="ytick_6">
     <g id="line2d_12">
      <g>
       <use style="stroke:#000000;stroke-width:0.8;" x="59.757188" xlink:href="#mf70d391b68" y="41.371129"/>
      </g>
     </g>
     <g id="text_13">
      <text style="font-family:Arial;font-size:10px;font-style:normal;font-weight:normal;text-anchor:end;" transform="rotate(-0, 52.757188, 44.950036)" x="52.757188" y="44.950036">0.0030</text>
     </g>
    </g>
    <g id="text_14">
     <text style="font-family:Arial;font-size:12px;font-style:normal;font-weight:normal;text-anchor:middle;" transform="rotate(-90, 15.789375, 133.3725)" x="15.789375" y="133.3725">Relative Abundance</text>
    </g>
   </g>
   <g id="line2d_13">
    <path clip-path="url(#p3887cd15dc)" d="M 74.975369 211.85503 
L 90.193551 181.981838 
L 105.411733 140.623408 
L 120.629915 95.822913 
L 135.848097 87.076823 
L 151.066278 104.366966 
L 166.28446 133.784515 
L 181.502642 100.517473 
L 196.720824 86.151815 
L 211.939006 108.060295 
L 227.157187 143.470066 
L 242.375369 139.382671 
L 257.593551 108.542757 
L 272.811733 148.122613 
L 288.029915 146.575255 
L 303.248097 73.492596 
L 318.466278 147.76721 
L 333.68446 129.071728 
L 348.902642 63.558306 
L 364.120824 135.699689 
L 379.339006 113.163719 
" style="fill:none;stroke:#c0c0c0;stroke-linecap:square;stroke-width:1.5;"/>
   </g>
   <g id="line2d_14">
    <path clip-path="url(#p3887cd15dc)" d="M 74.975369 222.340714 
L 90.193551 172.852903 
L 105.411733 117.219093 
L 120.629915 89.159474 
L 135.848097 67.882443 
L 151.066278 61.220951 
L 166.28446 81.089203 
L 181.502642 99.868756 
L 196.720824 122.966054 
L 211.939006 126.189828 
L 227.157187 117.50025 
L 242.375369 148.317435 
L 257.593551 111.443955 
L 272.811733 132.501223 
L 288.029915 155.797474 
L 303.248097 139.353015 
L 318.466278 122.915748 
L 333.68446 134.961104 
L 348.902642 81.776763 
L 364.120824 101.174037 
L 379.339006 142.890303 
" style="fill:none;stroke:#ff0000;stroke-linecap:square;stroke-width:1.5;"/>
   </g>
   <g id="line2d_15"/>
   <g id="line2d_16"/>
   <g id="line2d_17"/>
   <g id="patch_3">
    <path d="M 59.757188 242.0925 
L 59.757188 24.6525 
" style="fill:none;stroke:#000000;stroke-linecap:square;stroke-linejoin:miter;stroke-width:0.8;"/>
   </g>
   <g id="patch_4">
    <path d="M 394.557187 242.0925 
L 394.557187 24.6525 
" style="fill:none;stroke:#000000;stroke-linecap:square;stroke-linejoin:miter;stroke-width:0.8;"/>
   </g>
   <g id="patch_5">
    <path d="M 59.757187 242.0925 
L 394.557188 242.0925 
" style="fill:none;stroke:#000000;stroke-linecap:square;stroke-linejoin:miter;stroke-width:0.8;"/>
   </g>
   <g id="patch_6">
    <path d="M 59.757187 24.6525 
L 394.557188 24.6525 
" style="fill:none;stroke:#000000;stroke-linecap:square;stroke-linejoin:miter;stroke-width:0.8;"/>
   </g>
   <g id="text_15">
    <text style="font-family:Arial;font-size:16px;font-style:normal;font-weight:normal;text-anchor:middle;" transform="rotate(-0, 227.157188, 18.6525)" x="227.157188" y="18.6525">Coriobacteriaceae</text>
   </g>
   <g id="legend_1">
    <g id="patch_7">
     <path d="M 413.297188 70.205625 
L 510.8925 70.205625 
Q 512.8925 70.205625 512.8925 68.205625 
L 512.8925 26.6525 
Q 512.8925 24.6525 510.8925 24.6525 
L 413.297188 24.6525 
Q 411.297188 24.6525 411.297188 26.6525 
L 411.297188 68.205625 
Q 411.297188 70.205625 413.297188 70.205625 
z
" style="fill:#ffffff;opacity:0.8;stroke:#cccccc;stroke-linejoin:miter;"/>
    </g>
    <g id="line2d_18">
     <path d="M 415.297188 32.310312 
L 435.297188 32.310312 
" style="fill:none;"/>
    </g>
    <g id="line2d_19"/>
    <g id="text_16">
     <text style="font-family:Arial;font-size:10px;font-style:normal;font-weight:normal;text-anchor:start;" transform="rotate(-0, 443.297188, 35.810312)" x="443.297188" y="35.810312">exposure_type</text>
    </g>
    <g id="line2d_20">
     <path d="M 415.297188 46.572812 
L 435.297188 46.572812 
" style="fill:none;stroke:#c0c0c0;stroke-linecap:square;stroke-width:1.5;"/>
    </g>
    <g id="line2d_21"/>
    <g id="text_17">
     <text style="font-family:Arial;font-size:10px;font-style:normal;font-weight:normal;text-anchor:start;" transform="rotate(-0, 443.297188, 50.072812)" x="443.297188" y="50.072812">Air</text>
    </g>
    <g id="line2d_22">
     <path d="M 415.297188 60.718125 
L 435.297188 60.718125 
" style="fill:none;stroke:#ff0000;stroke-linecap:square;stroke-width:1.5;"/>
    </g>
    <g id="line2d_23"/>
    <g id="text_18">
     <text style="font-family:Arial;font-size:10px;font-style:normal;font-weight:normal;text-anchor:start;" transform="rotate(-0, 443.297188, 64.218125)" x="443.297188" y="64.218125">IC</text>
    </g>
   </g>
  </g>
 </g>
 <defs>
  <clipPath id="p3887cd15dc">
   <rect height="217.44" width="334.8" x="59.757188" y="24.6525"/>
  </clipPath>
 </defs>
</svg>
