<?xml version="1.0" encoding="utf-8" standalone="no"?>
<!DOCTYPE svg PUBLIC "-//W3C//DTD SVG 1.1//EN"
  "http://www.w3.org/Graphics/SVG/1.1/DTD/svg11.dtd">
<!-- Created with matplotlib (https://matplotlib.org/) -->
<svg height="280.746562pt" version="1.1" viewBox="0 0 508.970625 280.746562" width="508.970625pt" xmlns="http://www.w3.org/2000/svg" xmlns:xlink="http://www.w3.org/1999/xlink">
 <defs>
  <style type="text/css">
*{stroke-linecap:butt;stroke-linejoin:round;white-space:pre;}
  </style>
 </defs>
 <g id="figure_1">
  <g id="patch_1">
   <path d="M 0 280.746562 
L 508.970625 280.746562 
L 508.970625 0 
L 0 0 
z
" style="fill:#ffffff;"/>
  </g>
  <g id="axes_1">
   <g id="patch_2">
    <path d="M 48.635313 242.14 
L 383.435313 242.14 
L 383.435313 24.7 
L 48.635313 24.7 
z
" style="fill:#ffffff;"/>
   </g>
   <g id="PolyCollection_1">
    <defs>
     <path d="M 63.853494 -93.08221 
L 63.853494 -73.963398 
L 79.071676 -102.917409 
L 139.944403 -138.667441 
L 216.035312 -130.622517 
L 292.126222 -151.110408 
L 368.217131 -158.705275 
L 368.217131 -225.253021 
L 368.217131 -225.253021 
L 292.126222 -228.045232 
L 216.035312 -191.251168 
L 139.944403 -191.065029 
L 79.071676 -131.728836 
L 63.853494 -93.08221 
z
" id="m018e6ea786" style="stroke:#c0c0c0;stroke-opacity:0.2;"/>
    </defs>
    <g clip-path="url(#p56f8f4d861)">
     <use style="fill:#c0c0c0;fill-opacity:0.2;stroke:#c0c0c0;stroke-opacity:0.2;" x="0" xlink:href="#m018e6ea786" y="280.746562"/>
    </g>
   </g>
   <g id="PolyCollection_2">
    <defs>
     <path d="M 63.853494 -65.435402 
L 63.853494 -48.490199 
L 79.071676 -201.586891 
L 139.944403 -182.764337 
L 216.035312 -167.536096 
L 292.126222 -175.226011 
L 368.217131 -192.411505 
L 368.217131 -246.162926 
L 368.217131 -246.162926 
L 292.126222 -220.298609 
L 216.035312 -202.76642 
L 139.944403 -211.531437 
L 79.071676 -232.130162 
L 63.853494 -65.435402 
z
" id="m4a1b763184" style="stroke:#ff0000;stroke-opacity:0.2;"/>
    </defs>
    <g clip-path="url(#p56f8f4d861)">
     <use style="fill:#ff0000;fill-opacity:0.2;stroke:#ff0000;stroke-opacity:0.2;" x="0" xlink:href="#m4a1b763184" y="280.746562"/>
    </g>
   </g>
   <g id="matplotlib.axis_1">
    <g id="xtick_1">
     <g id="line2d_1">
      <defs>
       <path d="M 0 0 
L 0 3.5 
" id="mc13cd23e50" style="stroke:#000000;stroke-width:0.8;"/>
      </defs>
      <g>
       <use style="stroke:#000000;stroke-width:0.8;" x="63.853494" xlink:href="#mc13cd23e50" y="242.14"/>
      </g>
     </g>
     <g id="text_1">
      <text style="font-family:Arial;font-size:10px;font-style:normal;font-weight:normal;text-anchor:middle;" transform="rotate(-0, 63.853494, 256.297812)" x="63.853494" y="256.297812">10</text>
     </g>
    </g>
    <g id="xtick_2">
     <g id="line2d_2">
      <g>
       <use style="stroke:#000000;stroke-width:0.8;" x="124.726222" xlink:href="#mc13cd23e50" y="242.14"/>
      </g>
     </g>
     <g id="text_2">
      <text style="font-family:Arial;font-size:10px;font-style:normal;font-weight:normal;text-anchor:middle;" transform="rotate(-0, 124.726222, 256.297812)" x="124.726222" y="256.297812">12</text>
     </g>
    </g>
    <g id="xtick_3">
     <g id="line2d_3">
      <g>
       <use style="stroke:#000000;stroke-width:0.8;" x="185.598949" xlink:href="#mc13cd23e50" y="242.14"/>
      </g>
     </g>
     <g id="text_3">
      <text style="font-family:Arial;font-size:10px;font-style:normal;font-weight:normal;text-anchor:middle;" transform="rotate(-0, 185.598949, 256.297812)" x="185.598949" y="256.297812">14</text>
     </g>
    </g>
    <g id="xtick_4">
     <g id="line2d_4">
      <g>
       <use style="stroke:#000000;stroke-width:0.8;" x="246.471676" xlink:href="#mc13cd23e50" y="242.14"/>
      </g>
     </g>
     <g id="text_4">
      <text style="font-family:Arial;font-size:10px;font-style:normal;font-weight:normal;text-anchor:middle;" transform="rotate(-0, 246.471676, 256.297812)" x="246.471676" y="256.297812">16</text>
     </g>
    </g>
    <g id="xtick_5">
     <g id="line2d_5">
      <g>
       <use style="stroke:#000000;stroke-width:0.8;" x="307.344403" xlink:href="#mc13cd23e50" y="242.14"/>
      </g>
     </g>
     <g id="text_5">
      <text style="font-family:Arial;font-size:10px;font-style:normal;font-weight:normal;text-anchor:middle;" transform="rotate(-0, 307.344403, 256.297812)" x="307.344403" y="256.297812">18</text>
     </g>
    </g>
    <g id="xtick_6">
     <g id="line2d_6">
      <g>
       <use style="stroke:#000000;stroke-width:0.8;" x="368.217131" xlink:href="#mc13cd23e50" y="242.14"/>
      </g>
     </g>
     <g id="text_6">
      <text style="font-family:Arial;font-size:10px;font-style:normal;font-weight:normal;text-anchor:middle;" transform="rotate(-0, 368.217131, 256.297812)" x="368.217131" y="256.297812">20</text>
     </g>
    </g>
    <g id="text_7">
     <text style="font-family:Arial;font-size:12px;font-style:normal;font-weight:normal;text-anchor:middle;" transform="rotate(-0, 216.035313, 271.020938)" x="216.035313" y="271.020938">Host Age (in Weeks)</text>
    </g>
   </g>
   <g id="matplotlib.axis_2">
    <g id="ytick_1">
     <g id="line2d_7">
      <defs>
       <path d="M 0 0 
L -3.5 0 
" id="m1cd1f300e2" style="stroke:#000000;stroke-width:0.8;"/>
      </defs>
      <g>
       <use style="stroke:#000000;stroke-width:0.8;" x="48.635313" xlink:href="#m1cd1f300e2" y="229.06831"/>
      </g>
     </g>
     <g id="text_8">
      <text style="font-family:Arial;font-size:10px;font-style:normal;font-weight:normal;text-anchor:end;" transform="rotate(-0, 41.635313, 232.647216)" x="41.635313" y="232.647216">0.02</text>
     </g>
    </g>
    <g id="ytick_2">
     <g id="line2d_8">
      <g>
       <use style="stroke:#000000;stroke-width:0.8;" x="48.635313" xlink:href="#m1cd1f300e2" y="185.20582"/>
      </g>
     </g>
     <g id="text_9">
      <text style="font-family:Arial;font-size:10px;font-style:normal;font-weight:normal;text-anchor:end;" transform="rotate(-0, 41.635313, 188.784726)" x="41.635313" y="188.784726">0.04</text>
     </g>
    </g>
    <g id="ytick_3">
     <g id="line2d_9">
      <g>
       <use style="stroke:#000000;stroke-width:0.8;" x="48.635313" xlink:href="#m1cd1f300e2" y="141.34333"/>
      </g>
     </g>
     <g id="text_10">
      <text style="font-family:Arial;font-size:10px;font-style:normal;font-weight:normal;text-anchor:end;" transform="rotate(-0, 41.635313, 144.922236)" x="41.635313" y="144.922236">0.06</text>
     </g>
    </g>
    <g id="ytick_4">
     <g id="line2d_10">
      <g>
       <use style="stroke:#000000;stroke-width:0.8;" x="48.635313" xlink:href="#m1cd1f300e2" y="97.48084"/>
      </g>
     </g>
     <g id="text_11">
      <text style="font-family:Arial;font-size:10px;font-style:normal;font-weight:normal;text-anchor:end;" transform="rotate(-0, 41.635313, 101.059746)" x="41.635313" y="101.059746">0.08</text>
     </g>
    </g>
    <g id="ytick_5">
     <g id="line2d_11">
      <g>
       <use style="stroke:#000000;stroke-width:0.8;" x="48.635313" xlink:href="#m1cd1f300e2" y="53.61835"/>
      </g>
     </g>
     <g id="text_12">
      <text style="font-family:Arial;font-size:10px;font-style:normal;font-weight:normal;text-anchor:end;" transform="rotate(-0, 41.635313, 57.197256)" x="41.635313" y="57.197256">0.10</text>
     </g>
    </g>
    <g id="text_13">
     <text style="font-family:Arial;font-size:12px;font-style:normal;font-weight:normal;text-anchor:middle;" transform="rotate(-90, 15.789375, 133.42)" x="15.789375" y="133.42">Relative Abundance</text>
    </g>
   </g>
   <g id="line2d_12">
    <path clip-path="url(#p56f8f4d861)" d="M 63.853494 196.467239 
L 79.071676 162.73558 
L 139.944403 116.460642 
L 216.035312 118.964529 
L 292.126222 91.552328 
L 368.217131 89.181242 
" style="fill:none;stroke:#c0c0c0;stroke-linecap:square;stroke-width:1.5;"/>
   </g>
   <g id="line2d_13">
    <path clip-path="url(#p56f8f4d861)" d="M 63.853494 223.579592 
L 79.071676 62.988676 
L 139.944403 82.392156 
L 216.035312 96.274579 
L 292.126222 83.25042 
L 368.217131 59.785074 
" style="fill:none;stroke:#ff0000;stroke-linecap:square;stroke-width:1.5;"/>
   </g>
   <g id="line2d_14"/>
   <g id="line2d_15"/>
   <g id="line2d_16"/>
   <g id="patch_3">
    <path d="M 48.635313 242.14 
L 48.635313 24.7 
" style="fill:none;stroke:#000000;stroke-linecap:square;stroke-linejoin:miter;stroke-width:0.8;"/>
   </g>
   <g id="patch_4">
    <path d="M 383.435313 242.14 
L 383.435313 24.7 
" style="fill:none;stroke:#000000;stroke-linecap:square;stroke-linejoin:miter;stroke-width:0.8;"/>
   </g>
   <g id="patch_5">
    <path d="M 48.635312 242.14 
L 383.435313 242.14 
" style="fill:none;stroke:#000000;stroke-linecap:square;stroke-linejoin:miter;stroke-width:0.8;"/>
   </g>
   <g id="patch_6">
    <path d="M 48.635312 24.7 
L 383.435313 24.7 
" style="fill:none;stroke:#000000;stroke-linecap:square;stroke-linejoin:miter;stroke-width:0.8;"/>
   </g>
   <g id="text_14">
    <text style="font-family:Arial;font-size:16px;font-style:normal;font-weight:normal;text-anchor:middle;" transform="rotate(-0, 216.035313, 18.7)" x="216.035313" y="18.7">16:0 LysoPE</text>
   </g>
   <g id="legend_1">
    <g id="patch_7">
     <path d="M 402.175313 70.253125 
L 499.770625 70.253125 
Q 501.770625 70.253125 501.770625 68.253125 
L 501.770625 26.7 
Q 501.770625 24.7 499.770625 24.7 
L 402.175313 24.7 
Q 400.175313 24.7 400.175313 26.7 
L 400.175313 68.253125 
Q 400.175313 70.253125 402.175313 70.253125 
z
" style="fill:#ffffff;opacity:0.8;stroke:#cccccc;stroke-linejoin:miter;"/>
    </g>
    <g id="line2d_17">
     <path d="M 404.175313 32.357812 
L 424.175313 32.357812 
" style="fill:none;"/>
    </g>
    <g id="line2d_18"/>
    <g id="text_15">
     <text style="font-family:Arial;font-size:10px;font-style:normal;font-weight:normal;text-anchor:start;" transform="rotate(-0, 432.175313, 35.857812)" x="432.175313" y="35.857812">exposure_type</text>
    </g>
    <g id="line2d_19">
     <path d="M 404.175313 46.620312 
L 424.175313 46.620312 
" style="fill:none;stroke:#c0c0c0;stroke-linecap:square;stroke-width:1.5;"/>
    </g>
    <g id="line2d_20"/>
    <g id="text_16">
     <text style="font-family:Arial;font-size:10px;font-style:normal;font-weight:normal;text-anchor:start;" transform="rotate(-0, 432.175313, 50.120312)" x="432.175313" y="50.120312">Air</text>
    </g>
    <g id="line2d_21">
     <path d="M 404.175313 60.765625 
L 424.175313 60.765625 
" style="fill:none;stroke:#ff0000;stroke-linecap:square;stroke-width:1.5;"/>
    </g>
    <g id="line2d_22"/>
    <g id="text_17">
     <text style="font-family:Arial;font-size:10px;font-style:normal;font-weight:normal;text-anchor:start;" transform="rotate(-0, 432.175313, 64.265625)" x="432.175313" y="64.265625">IC</text>
    </g>
   </g>
  </g>
 </g>
 <defs>
  <clipPath id="p56f8f4d861">
   <rect height="217.44" width="334.8" x="48.635313" y="24.7"/>
  </clipPath>
 </defs>
</svg>
