<?xml version="1.0" encoding="utf-8" standalone="no"?>
<!DOCTYPE svg PUBLIC "-//W3C//DTD SVG 1.1//EN"
  "http://www.w3.org/Graphics/SVG/1.1/DTD/svg11.dtd">
<!-- Created with matplotlib (https://matplotlib.org/) -->
<svg height="280.699062pt" version="1.1" viewBox="0 0 514.531563 280.699062" width="514.531563pt" xmlns="http://www.w3.org/2000/svg" xmlns:xlink="http://www.w3.org/1999/xlink">
 <defs>
  <style type="text/css">
*{stroke-linecap:butt;stroke-linejoin:round;white-space:pre;}
  </style>
 </defs>
 <g id="figure_1">
  <g id="patch_1">
   <path d="M 0 280.699062 
L 514.531563 280.699062 
L 514.531563 0 
L 0 0 
z
" style="fill:#ffffff;"/>
  </g>
  <g id="axes_1">
   <g id="patch_2">
    <path d="M 54.19625 242.0925 
L 388.99625 242.0925 
L 388.99625 24.6525 
L 54.19625 24.6525 
z
" style="fill:#ffffff;"/>
   </g>
   <g id="PolyCollection_1">
    <defs>
     <path d="M 69.414432 -67.845529 
L 69.414432 -48.490199 
L 84.632614 -126.725806 
L 145.505341 -114.141757 
L 221.59625 -130.311903 
L 297.687159 -127.491909 
L 373.778068 -126.479159 
L 373.778068 -162.313675 
L 373.778068 -162.313675 
L 297.687159 -174.752039 
L 221.59625 -192.228198 
L 145.505341 -144.301975 
L 84.632614 -180.025045 
L 69.414432 -67.845529 
z
" id="md41fea7bc2" style="stroke:#0000ff;stroke-opacity:0.2;"/>
    </defs>
    <g clip-path="url(#p7bfcd6221a)">
     <use style="fill:#0000ff;fill-opacity:0.2;stroke:#0000ff;stroke-opacity:0.2;" x="0" xlink:href="#md41fea7bc2" y="280.699062"/>
    </g>
   </g>
   <g id="PolyCollection_2">
    <defs>
     <path d="M 69.414432 -106.747083 
L 69.414432 -79.214599 
L 84.632614 -134.072183 
L 145.505341 -128.793208 
L 221.59625 -159.924984 
L 297.687159 -84.505433 
L 373.778068 -96.056622 
L 373.778068 -148.306952 
L 373.778068 -148.306952 
L 297.687159 -168.913091 
L 221.59625 -246.162926 
L 145.505341 -206.61991 
L 84.632614 -186.02386 
L 69.414432 -106.747083 
z
" id="m1f623ca357" style="stroke:#c0c0c0;stroke-opacity:0.2;"/>
    </defs>
    <g clip-path="url(#p7bfcd6221a)">
     <use style="fill:#c0c0c0;fill-opacity:0.2;stroke:#c0c0c0;stroke-opacity:0.2;" x="0" xlink:href="#m1f623ca357" y="280.699062"/>
    </g>
   </g>
   <g id="matplotlib.axis_1">
    <g id="xtick_1">
     <g id="line2d_1">
      <defs>
       <path d="M 0 0 
L 0 3.5 
" id="m83af7790e6" style="stroke:#000000;stroke-width:0.8;"/>
      </defs>
      <g>
       <use style="stroke:#000000;stroke-width:0.8;" x="69.414432" xlink:href="#m83af7790e6" y="242.0925"/>
      </g>
     </g>
     <g id="text_1">
      <text style="font-family:Arial;font-size:10px;font-style:normal;font-weight:normal;text-anchor:middle;" transform="rotate(-0, 69.414432, 256.250312)" x="69.414432" y="256.250312">10</text>
     </g>
    </g>
    <g id="xtick_2">
     <g id="line2d_2">
      <g>
       <use style="stroke:#000000;stroke-width:0.8;" x="130.287159" xlink:href="#m83af7790e6" y="242.0925"/>
      </g>
     </g>
     <g id="text_2">
      <text style="font-family:Arial;font-size:10px;font-style:normal;font-weight:normal;text-anchor:middle;" transform="rotate(-0, 130.287159, 256.250312)" x="130.287159" y="256.250312">12</text>
     </g>
    </g>
    <g id="xtick_3">
     <g id="line2d_3">
      <g>
       <use style="stroke:#000000;stroke-width:0.8;" x="191.159886" xlink:href="#m83af7790e6" y="242.0925"/>
      </g>
     </g>
     <g id="text_3">
      <text style="font-family:Arial;font-size:10px;font-style:normal;font-weight:normal;text-anchor:middle;" transform="rotate(-0, 191.159886, 256.250312)" x="191.159886" y="256.250312">14</text>
     </g>
    </g>
    <g id="xtick_4">
     <g id="line2d_4">
      <g>
       <use style="stroke:#000000;stroke-width:0.8;" x="252.032614" xlink:href="#m83af7790e6" y="242.0925"/>
      </g>
     </g>
     <g id="text_4">
      <text style="font-family:Arial;font-size:10px;font-style:normal;font-weight:normal;text-anchor:middle;" transform="rotate(-0, 252.032614, 256.250312)" x="252.032614" y="256.250312">16</text>
     </g>
    </g>
    <g id="xtick_5">
     <g id="line2d_5">
      <g>
       <use style="stroke:#000000;stroke-width:0.8;" x="312.905341" xlink:href="#m83af7790e6" y="242.0925"/>
      </g>
     </g>
     <g id="text_5">
      <text style="font-family:Arial;font-size:10px;font-style:normal;font-weight:normal;text-anchor:middle;" transform="rotate(-0, 312.905341, 256.250312)" x="312.905341" y="256.250312">18</text>
     </g>
    </g>
    <g id="xtick_6">
     <g id="line2d_6">
      <g>
       <use style="stroke:#000000;stroke-width:0.8;" x="373.778068" xlink:href="#m83af7790e6" y="242.0925"/>
      </g>
     </g>
     <g id="text_6">
      <text style="font-family:Arial;font-size:10px;font-style:normal;font-weight:normal;text-anchor:middle;" transform="rotate(-0, 373.778068, 256.250312)" x="373.778068" y="256.250312">20</text>
     </g>
    </g>
    <g id="text_7">
     <text style="font-family:Arial;font-size:12px;font-style:normal;font-weight:normal;text-anchor:middle;" transform="rotate(-0, 221.59625, 270.973437)" x="221.59625" y="270.973437">Host Age (in Weeks)</text>
    </g>
   </g>
   <g id="matplotlib.axis_2">
    <g id="ytick_1">
     <g id="line2d_7">
      <defs>
       <path d="M 0 0 
L -3.5 0 
" id="m730f0af999" style="stroke:#000000;stroke-width:0.8;"/>
      </defs>
      <g>
       <use style="stroke:#000000;stroke-width:0.8;" x="54.19625" xlink:href="#m730f0af999" y="206.609367"/>
      </g>
     </g>
     <g id="text_8">
      <text style="font-family:Arial;font-size:10px;font-style:normal;font-weight:normal;text-anchor:end;" transform="rotate(-0, 47.19625, 210.188273)" x="47.19625" y="210.188273">0.002</text>
     </g>
    </g>
    <g id="ytick_2">
     <g id="line2d_8">
      <g>
       <use style="stroke:#000000;stroke-width:0.8;" x="54.19625" xlink:href="#m730f0af999" y="160.233587"/>
      </g>
     </g>
     <g id="text_9">
      <text style="font-family:Arial;font-size:10px;font-style:normal;font-weight:normal;text-anchor:end;" transform="rotate(-0, 47.19625, 163.812493)" x="47.19625" y="163.812493">0.004</text>
     </g>
    </g>
    <g id="ytick_3">
     <g id="line2d_9">
      <g>
       <use style="stroke:#000000;stroke-width:0.8;" x="54.19625" xlink:href="#m730f0af999" y="113.857807"/>
      </g>
     </g>
     <g id="text_10">
      <text style="font-family:Arial;font-size:10px;font-style:normal;font-weight:normal;text-anchor:end;" transform="rotate(-0, 47.19625, 117.436714)" x="47.19625" y="117.436714">0.006</text>
     </g>
    </g>
    <g id="ytick_4">
     <g id="line2d_10">
      <g>
       <use style="stroke:#000000;stroke-width:0.8;" x="54.19625" xlink:href="#m730f0af999" y="67.482028"/>
      </g>
     </g>
     <g id="text_11">
      <text style="font-family:Arial;font-size:10px;font-style:normal;font-weight:normal;text-anchor:end;" transform="rotate(-0, 47.19625, 71.060934)" x="47.19625" y="71.060934">0.008</text>
     </g>
    </g>
    <g id="text_12">
     <text style="font-family:Arial;font-size:12px;font-style:normal;font-weight:normal;text-anchor:middle;" transform="rotate(-90, 15.789375, 133.3725)" x="15.789375" y="133.3725">Relative Abundance</text>
    </g>
   </g>
   <g id="line2d_11">
    <path clip-path="url(#p7bfcd6221a)" d="M 69.414432 222.260311 
L 84.632614 127.549394 
L 145.505341 151.863835 
L 221.59625 119.863425 
L 297.687159 129.241007 
L 373.778068 136.4114 
" style="fill:none;stroke:#0000ff;stroke-linecap:square;stroke-width:1.5;"/>
   </g>
   <g id="line2d_12">
    <path clip-path="url(#p7bfcd6221a)" d="M 69.414432 187.474917 
L 84.632614 121.236541 
L 145.505341 111.576126 
L 221.59625 78.085301 
L 297.687159 153.572032 
L 373.778068 159.413934 
" style="fill:none;stroke:#c0c0c0;stroke-linecap:square;stroke-width:1.5;"/>
   </g>
   <g id="line2d_13"/>
   <g id="line2d_14"/>
   <g id="line2d_15"/>
   <g id="patch_3">
    <path d="M 54.19625 242.0925 
L 54.19625 24.6525 
" style="fill:none;stroke:#000000;stroke-linecap:square;stroke-linejoin:miter;stroke-width:0.8;"/>
   </g>
   <g id="patch_4">
    <path d="M 388.99625 242.0925 
L 388.99625 24.6525 
" style="fill:none;stroke:#000000;stroke-linecap:square;stroke-linejoin:miter;stroke-width:0.8;"/>
   </g>
   <g id="patch_5">
    <path d="M 54.19625 242.0925 
L 388.99625 242.0925 
" style="fill:none;stroke:#000000;stroke-linecap:square;stroke-linejoin:miter;stroke-width:0.8;"/>
   </g>
   <g id="patch_6">
    <path d="M 54.19625 24.6525 
L 388.99625 24.6525 
" style="fill:none;stroke:#000000;stroke-linecap:square;stroke-linejoin:miter;stroke-width:0.8;"/>
   </g>
   <g id="text_13">
    <text style="font-family:Arial;font-size:16px;font-style:normal;font-weight:normal;text-anchor:middle;" transform="rotate(-0, 221.59625, 18.6525)" x="221.59625" y="18.6525">UDCA</text>
   </g>
   <g id="legend_1">
    <g id="patch_7">
     <path d="M 407.73625 70.205625 
L 505.331563 70.205625 
Q 507.331563 70.205625 507.331563 68.205625 
L 507.331563 26.6525 
Q 507.331563 24.6525 505.331563 24.6525 
L 407.73625 24.6525 
Q 405.73625 24.6525 405.73625 26.6525 
L 405.73625 68.205625 
Q 405.73625 70.205625 407.73625 70.205625 
z
" style="fill:#ffffff;opacity:0.8;stroke:#cccccc;stroke-linejoin:miter;"/>
    </g>
    <g id="line2d_16">
     <path d="M 409.73625 32.310312 
L 429.73625 32.310312 
" style="fill:none;"/>
    </g>
    <g id="line2d_17"/>
    <g id="text_14">
     <text style="font-family:Arial;font-size:10px;font-style:normal;font-weight:normal;text-anchor:start;" transform="rotate(-0, 437.73625, 35.810312)" x="437.73625" y="35.810312">exposure_type</text>
    </g>
    <g id="line2d_18">
     <path d="M 409.73625 46.572812 
L 429.73625 46.572812 
" style="fill:none;stroke:#0000ff;stroke-linecap:square;stroke-width:1.5;"/>
    </g>
    <g id="line2d_19"/>
    <g id="text_15">
     <text style="font-family:Arial;font-size:10px;font-style:normal;font-weight:normal;text-anchor:start;" transform="rotate(-0, 437.73625, 50.072812)" x="437.73625" y="50.072812">IH</text>
    </g>
    <g id="line2d_20">
     <path d="M 409.73625 60.718125 
L 429.73625 60.718125 
" style="fill:none;stroke:#c0c0c0;stroke-linecap:square;stroke-width:1.5;"/>
    </g>
    <g id="line2d_21"/>
    <g id="text_16">
     <text style="font-family:Arial;font-size:10px;font-style:normal;font-weight:normal;text-anchor:start;" transform="rotate(-0, 437.73625, 64.218125)" x="437.73625" y="64.218125">Air</text>
    </g>
   </g>
  </g>
 </g>
 <defs>
  <clipPath id="p7bfcd6221a">
   <rect height="217.44" width="334.8" x="54.19625" y="24.6525"/>
  </clipPath>
 </defs>
</svg>
