<?xml version="1.0" encoding="utf-8" standalone="no"?>
<!DOCTYPE svg PUBLIC "-//W3C//DTD SVG 1.1//EN"
  "http://www.w3.org/Graphics/SVG/1.1/DTD/svg11.dtd">
<!-- Created with matplotlib (https://matplotlib.org/) -->
<svg height="280.699062pt" version="1.1" viewBox="0 0 503.409688 280.699062" width="503.409688pt" xmlns="http://www.w3.org/2000/svg" xmlns:xlink="http://www.w3.org/1999/xlink">
 <defs>
  <style type="text/css">
*{stroke-linecap:butt;stroke-linejoin:round;white-space:pre;}
  </style>
 </defs>
 <g id="figure_1">
  <g id="patch_1">
   <path d="M 0 280.699062 
L 503.409688 280.699062 
L 503.409688 0 
L 0 0 
z
" style="fill:#ffffff;"/>
  </g>
  <g id="axes_1">
   <g id="patch_2">
    <path d="M 43.074375 242.0925 
L 377.874375 242.0925 
L 377.874375 24.6525 
L 43.074375 24.6525 
z
" style="fill:#ffffff;"/>
   </g>
   <g id="PolyCollection_1">
    <defs>
     <path d="M 58.292557 -48.866104 
L 58.292557 -48.597487 
L 73.510739 -52.677438 
L 88.72892 -72.725 
L 103.947102 -85.227901 
L 119.165284 -104.968381 
L 134.383466 -161.475969 
L 149.601648 -87.12011 
L 164.81983 -79.316472 
L 180.038011 -79.441488 
L 195.256193 -67.971448 
L 210.474375 -88.42331 
L 225.692557 -93.043361 
L 240.910739 -109.077444 
L 256.12892 -79.260763 
L 271.347102 -74.345243 
L 286.565284 -134.930733 
L 301.783466 -91.190161 
L 317.001648 -97.319319 
L 332.21983 -129.888777 
L 347.438011 -133.724926 
L 362.656193 -104.293509 
L 362.656193 -140.4588 
L 362.656193 -140.4588 
L 347.438011 -199.684859 
L 332.21983 -184.195539 
L 317.001648 -142.497764 
L 301.783466 -138.035281 
L 286.565284 -184.249378 
L 271.347102 -106.035599 
L 256.12892 -103.635125 
L 240.910739 -146.743678 
L 225.692557 -150.753546 
L 210.474375 -131.420421 
L 195.256193 -82.435483 
L 180.038011 -124.313305 
L 164.81983 -110.425016 
L 149.601648 -120.886971 
L 134.383466 -246.162926 
L 119.165284 -164.444809 
L 103.947102 -144.614666 
L 88.72892 -112.436106 
L 73.510739 -57.093595 
L 58.292557 -48.866104 
z
" id="me0725ce762" style="stroke:#c0c0c0;stroke-opacity:0.2;"/>
    </defs>
    <g clip-path="url(#p75604862df)">
     <use style="fill:#c0c0c0;fill-opacity:0.2;stroke:#c0c0c0;stroke-opacity:0.2;" x="0" xlink:href="#me0725ce762" y="280.699062"/>
    </g>
   </g>
   <g id="PolyCollection_2">
    <defs>
     <path d="M 58.292557 -48.845355 
L 58.292557 -48.490199 
L 73.510739 -50.846558 
L 88.72892 -59.422366 
L 103.947102 -60.456274 
L 119.165284 -62.356989 
L 134.383466 -62.62306 
L 149.601648 -60.323014 
L 164.81983 -66.802787 
L 180.038011 -58.76772 
L 195.256193 -59.058754 
L 210.474375 -57.406552 
L 225.692557 -59.393955 
L 240.910739 -55.586598 
L 256.12892 -57.321663 
L 271.347102 -60.983766 
L 286.565284 -59.650966 
L 301.783466 -55.640547 
L 317.001648 -54.275045 
L 332.21983 -56.123449 
L 347.438011 -57.858498 
L 362.656193 -56.764008 
L 362.656193 -59.318552 
L 362.656193 -59.318552 
L 347.438011 -59.849612 
L 332.21983 -57.40332 
L 317.001648 -55.80881 
L 301.783466 -58.271374 
L 286.565284 -62.662167 
L 271.347102 -63.068348 
L 256.12892 -58.431796 
L 240.910739 -57.625505 
L 225.692557 -62.654611 
L 210.474375 -61.640478 
L 195.256193 -64.364108 
L 180.038011 -63.112513 
L 164.81983 -71.269989 
L 149.601648 -65.305028 
L 134.383466 -67.883118 
L 119.165284 -67.354054 
L 103.947102 -66.579879 
L 88.72892 -63.439359 
L 73.510739 -52.080081 
L 58.292557 -48.845355 
z
" id="m7b8dc321b8" style="stroke:#0000ff;stroke-opacity:0.2;"/>
    </defs>
    <g clip-path="url(#p75604862df)">
     <use style="fill:#0000ff;fill-opacity:0.2;stroke:#0000ff;stroke-opacity:0.2;" x="0" xlink:href="#m7b8dc321b8" y="280.699062"/>
    </g>
   </g>
   <g id="matplotlib.axis_1">
    <g id="xtick_1">
     <g id="line2d_1">
      <defs>
       <path d="M 0 0 
L 0 3.5 
" id="m9f73fd8afb" style="stroke:#000000;stroke-width:0.8;"/>
      </defs>
      <g>
       <use style="stroke:#000000;stroke-width:0.8;" x="58.292557" xlink:href="#m9f73fd8afb" y="242.0925"/>
      </g>
     </g>
     <g id="text_1">
      <text style="font-family:Arial;font-size:10px;font-style:normal;font-weight:normal;text-anchor:middle;" transform="rotate(-0, 58.292557, 256.250312)" x="58.292557" y="256.250312">10</text>
     </g>
    </g>
    <g id="xtick_2">
     <g id="line2d_2">
      <g>
       <use style="stroke:#000000;stroke-width:0.8;" x="119.165284" xlink:href="#m9f73fd8afb" y="242.0925"/>
      </g>
     </g>
     <g id="text_2">
      <text style="font-family:Arial;font-size:10px;font-style:normal;font-weight:normal;text-anchor:middle;" transform="rotate(-0, 119.165284, 256.250312)" x="119.165284" y="256.250312">12</text>
     </g>
    </g>
    <g id="xtick_3">
     <g id="line2d_3">
      <g>
       <use style="stroke:#000000;stroke-width:0.8;" x="180.038011" xlink:href="#m9f73fd8afb" y="242.0925"/>
      </g>
     </g>
     <g id="text_3">
      <text style="font-family:Arial;font-size:10px;font-style:normal;font-weight:normal;text-anchor:middle;" transform="rotate(-0, 180.038011, 256.250312)" x="180.038011" y="256.250312">14</text>
     </g>
    </g>
    <g id="xtick_4">
     <g id="line2d_4">
      <g>
       <use style="stroke:#000000;stroke-width:0.8;" x="240.910739" xlink:href="#m9f73fd8afb" y="242.0925"/>
      </g>
     </g>
     <g id="text_4">
      <text style="font-family:Arial;font-size:10px;font-style:normal;font-weight:normal;text-anchor:middle;" transform="rotate(-0, 240.910739, 256.250312)" x="240.910739" y="256.250312">16</text>
     </g>
    </g>
    <g id="xtick_5">
     <g id="line2d_5">
      <g>
       <use style="stroke:#000000;stroke-width:0.8;" x="301.783466" xlink:href="#m9f73fd8afb" y="242.0925"/>
      </g>
     </g>
     <g id="text_5">
      <text style="font-family:Arial;font-size:10px;font-style:normal;font-weight:normal;text-anchor:middle;" transform="rotate(-0, 301.783466, 256.250312)" x="301.783466" y="256.250312">18</text>
     </g>
    </g>
    <g id="xtick_6">
     <g id="line2d_6">
      <g>
       <use style="stroke:#000000;stroke-width:0.8;" x="362.656193" xlink:href="#m9f73fd8afb" y="242.0925"/>
      </g>
     </g>
     <g id="text_6">
      <text style="font-family:Arial;font-size:10px;font-style:normal;font-weight:normal;text-anchor:middle;" transform="rotate(-0, 362.656193, 256.250312)" x="362.656193" y="256.250312">20</text>
     </g>
    </g>
    <g id="text_7">
     <text style="font-family:Arial;font-size:12px;font-style:normal;font-weight:normal;text-anchor:middle;" transform="rotate(-0, 210.474375, 270.973437)" x="210.474375" y="270.973437">Host Age (in Weeks)</text>
    </g>
   </g>
   <g id="matplotlib.axis_2">
    <g id="ytick_1">
     <g id="line2d_7">
      <defs>
       <path d="M 0 0 
L -3.5 0 
" id="m1ff2f2bf8e" style="stroke:#000000;stroke-width:0.8;"/>
      </defs>
      <g>
       <use style="stroke:#000000;stroke-width:0.8;" x="43.074375" xlink:href="#m1ff2f2bf8e" y="232.456082"/>
      </g>
     </g>
     <g id="text_8">
      <text style="font-family:Arial;font-size:10px;font-style:normal;font-weight:normal;text-anchor:end;" transform="rotate(-0, 36.074375, 236.034988)" x="36.074375" y="236.034988">0.0</text>
     </g>
    </g>
    <g id="ytick_2">
     <g id="line2d_8">
      <g>
       <use style="stroke:#000000;stroke-width:0.8;" x="43.074375" xlink:href="#m1ff2f2bf8e" y="186.768451"/>
      </g>
     </g>
     <g id="text_9">
      <text style="font-family:Arial;font-size:10px;font-style:normal;font-weight:normal;text-anchor:end;" transform="rotate(-0, 36.074375, 190.347357)" x="36.074375" y="190.347357">0.1</text>
     </g>
    </g>
    <g id="ytick_3">
     <g id="line2d_9">
      <g>
       <use style="stroke:#000000;stroke-width:0.8;" x="43.074375" xlink:href="#m1ff2f2bf8e" y="141.08082"/>
      </g>
     </g>
     <g id="text_10">
      <text style="font-family:Arial;font-size:10px;font-style:normal;font-weight:normal;text-anchor:end;" transform="rotate(-0, 36.074375, 144.659726)" x="36.074375" y="144.659726">0.2</text>
     </g>
    </g>
    <g id="ytick_4">
     <g id="line2d_10">
      <g>
       <use style="stroke:#000000;stroke-width:0.8;" x="43.074375" xlink:href="#m1ff2f2bf8e" y="95.393189"/>
      </g>
     </g>
     <g id="text_11">
      <text style="font-family:Arial;font-size:10px;font-style:normal;font-weight:normal;text-anchor:end;" transform="rotate(-0, 36.074375, 98.972095)" x="36.074375" y="98.972095">0.3</text>
     </g>
    </g>
    <g id="ytick_5">
     <g id="line2d_11">
      <g>
       <use style="stroke:#000000;stroke-width:0.8;" x="43.074375" xlink:href="#m1ff2f2bf8e" y="49.705557"/>
      </g>
     </g>
     <g id="text_12">
      <text style="font-family:Arial;font-size:10px;font-style:normal;font-weight:normal;text-anchor:end;" transform="rotate(-0, 36.074375, 53.284464)" x="36.074375" y="53.284464">0.4</text>
     </g>
    </g>
    <g id="text_13">
     <text style="font-family:Arial;font-size:12px;font-style:normal;font-weight:normal;text-anchor:middle;" transform="rotate(-90, 15.789375, 133.3725)" x="15.789375" y="133.3725">Relative Abundance</text>
    </g>
   </g>
   <g id="line2d_12">
    <path clip-path="url(#p75604862df)" d="M 58.292557 231.967658 
L 73.510739 225.740217 
L 88.72892 188.207689 
L 103.947102 165.447135 
L 119.165284 146.737126 
L 134.383466 77.146547 
L 149.601648 176.734197 
L 164.81983 185.545137 
L 180.038011 177.366595 
L 195.256193 205.166282 
L 210.474375 169.806791 
L 225.692557 160.600453 
L 240.910739 152.658828 
L 256.12892 189.526329 
L 271.347102 190.751434 
L 286.565284 120.189246 
L 301.783466 164.932498 
L 317.001648 160.672003 
L 332.21983 125.956944 
L 347.438011 113.449215 
L 362.656193 158.827062 
" style="fill:none;stroke:#c0c0c0;stroke-linecap:square;stroke-width:1.5;"/>
   </g>
   <g id="line2d_13">
    <path clip-path="url(#p75604862df)" d="M 58.292557 232.033294 
L 73.510739 229.236202 
L 88.72892 219.342402 
L 103.947102 217.250219 
L 119.165284 215.849492 
L 134.383466 215.677039 
L 149.601648 218.006851 
L 164.81983 211.712651 
L 180.038011 219.68207 
L 195.256193 219.016922 
L 210.474375 221.160975 
L 225.692557 219.687671 
L 240.910739 224.081056 
L 256.12892 222.835797 
L 271.347102 218.589662 
L 286.565284 219.558175 
L 301.783466 223.73758 
L 317.001648 225.67817 
L 332.21983 223.948869 
L 347.438011 221.846135 
L 362.656193 222.687252 
" style="fill:none;stroke:#0000ff;stroke-linecap:square;stroke-width:1.5;"/>
   </g>
   <g id="line2d_14"/>
   <g id="line2d_15"/>
   <g id="line2d_16"/>
   <g id="patch_3">
    <path d="M 43.074375 242.0925 
L 43.074375 24.6525 
" style="fill:none;stroke:#000000;stroke-linecap:square;stroke-linejoin:miter;stroke-width:0.8;"/>
   </g>
   <g id="patch_4">
    <path d="M 377.874375 242.0925 
L 377.874375 24.6525 
" style="fill:none;stroke:#000000;stroke-linecap:square;stroke-linejoin:miter;stroke-width:0.8;"/>
   </g>
   <g id="patch_5">
    <path d="M 43.074375 242.0925 
L 377.874375 242.0925 
" style="fill:none;stroke:#000000;stroke-linecap:square;stroke-linejoin:miter;stroke-width:0.8;"/>
   </g>
   <g id="patch_6">
    <path d="M 43.074375 24.6525 
L 377.874375 24.6525 
" style="fill:none;stroke:#000000;stroke-linecap:square;stroke-linejoin:miter;stroke-width:0.8;"/>
   </g>
   <g id="text_14">
    <text style="font-family:Arial;font-size:16px;font-style:normal;font-weight:normal;text-anchor:middle;" transform="rotate(-0, 210.474375, 18.6525)" x="210.474375" y="18.6525">Erysipelotrichaceae</text>
   </g>
   <g id="legend_1">
    <g id="patch_7">
     <path d="M 396.614375 70.205625 
L 494.209687 70.205625 
Q 496.209687 70.205625 496.209687 68.205625 
L 496.209687 26.6525 
Q 496.209687 24.6525 494.209687 24.6525 
L 396.614375 24.6525 
Q 394.614375 24.6525 394.614375 26.6525 
L 394.614375 68.205625 
Q 394.614375 70.205625 396.614375 70.205625 
z
" style="fill:#ffffff;opacity:0.8;stroke:#cccccc;stroke-linejoin:miter;"/>
    </g>
    <g id="line2d_17">
     <path d="M 398.614375 32.310312 
L 418.614375 32.310312 
" style="fill:none;"/>
    </g>
    <g id="line2d_18"/>
    <g id="text_15">
     <text style="font-family:Arial;font-size:10px;font-style:normal;font-weight:normal;text-anchor:start;" transform="rotate(-0, 426.614375, 35.810312)" x="426.614375" y="35.810312">exposure_type</text>
    </g>
    <g id="line2d_19">
     <path d="M 398.614375 46.572812 
L 418.614375 46.572812 
" style="fill:none;stroke:#c0c0c0;stroke-linecap:square;stroke-width:1.5;"/>
    </g>
    <g id="line2d_20"/>
    <g id="text_16">
     <text style="font-family:Arial;font-size:10px;font-style:normal;font-weight:normal;text-anchor:start;" transform="rotate(-0, 426.614375, 50.072812)" x="426.614375" y="50.072812">Air</text>
    </g>
    <g id="line2d_21">
     <path d="M 398.614375 60.718125 
L 418.614375 60.718125 
" style="fill:none;stroke:#0000ff;stroke-linecap:square;stroke-width:1.5;"/>
    </g>
    <g id="line2d_22"/>
    <g id="text_17">
     <text style="font-family:Arial;font-size:10px;font-style:normal;font-weight:normal;text-anchor:start;" transform="rotate(-0, 426.614375, 64.218125)" x="426.614375" y="64.218125">IH</text>
    </g>
   </g>
  </g>
 </g>
 <defs>
  <clipPath id="p75604862df">
   <rect height="217.44" width="334.8" x="43.074375" y="24.6525"/>
  </clipPath>
 </defs>
</svg>
