<?xml version="1.0" encoding="utf-8" standalone="no"?>
<!DOCTYPE svg PUBLIC "-//W3C//DTD SVG 1.1//EN"
  "http://www.w3.org/Graphics/SVG/1.1/DTD/svg11.dtd">
<!-- Created with matplotlib (https://matplotlib.org/) -->
<svg height="280.699062pt" version="1.1" viewBox="0 0 508.970625 280.699062" width="508.970625pt" xmlns="http://www.w3.org/2000/svg" xmlns:xlink="http://www.w3.org/1999/xlink">
 <defs>
  <style type="text/css">
*{stroke-linecap:butt;stroke-linejoin:round;white-space:pre;}
  </style>
 </defs>
 <g id="figure_1">
  <g id="patch_1">
   <path d="M 0 280.699062 
L 508.970625 280.699062 
L 508.970625 0 
L 0 0 
z
" style="fill:#ffffff;"/>
  </g>
  <g id="axes_1">
   <g id="patch_2">
    <path d="M 48.635313 242.0925 
L 383.435313 242.0925 
L 383.435313 24.6525 
L 48.635313 24.6525 
z
" style="fill:#ffffff;"/>
   </g>
   <g id="PolyCollection_1">
    <defs>
     <path d="M 63.853494 -246.162926 
L 63.853494 -186.27852 
L 79.071676 -102.952797 
L 94.289858 -50.407608 
L 109.50804 -54.325046 
L 124.726222 -81.021736 
L 139.944403 -48.490199 
L 155.162585 -89.687722 
L 170.380767 -101.695306 
L 185.598949 -82.585038 
L 200.817131 -109.867652 
L 216.035312 -100.171464 
L 231.253494 -95.758302 
L 246.471676 -96.528759 
L 261.689858 -101.436889 
L 276.90804 -80.110337 
L 292.126222 -99.96246 
L 307.344403 -139.299713 
L 322.562585 -85.226558 
L 337.780767 -109.847674 
L 352.998949 -102.580416 
L 368.217131 -108.409473 
L 368.217131 -149.693876 
L 368.217131 -149.693876 
L 352.998949 -154.805353 
L 337.780767 -143.953915 
L 322.562585 -137.021397 
L 307.344403 -166.492604 
L 292.126222 -119.53901 
L 276.90804 -121.668549 
L 261.689858 -148.359946 
L 246.471676 -120.339661 
L 231.253494 -116.616806 
L 216.035312 -127.271612 
L 200.817131 -137.697186 
L 185.598949 -102.481082 
L 170.380767 -127.308854 
L 155.162585 -105.988528 
L 139.944403 -69.670022 
L 124.726222 -97.159245 
L 109.50804 -72.172256 
L 94.289858 -61.448213 
L 79.071676 -137.099675 
L 63.853494 -246.162926 
z
" id="mc04467f090" style="stroke:#c0c0c0;stroke-opacity:0.2;"/>
    </defs>
    <g clip-path="url(#p52baa9c49c)">
     <use style="fill:#c0c0c0;fill-opacity:0.2;stroke:#c0c0c0;stroke-opacity:0.2;" x="0" xlink:href="#mc04467f090" y="280.699062"/>
    </g>
   </g>
   <g id="PolyCollection_2">
    <defs>
     <path d="M 63.853494 -241.162852 
L 63.853494 -174.725952 
L 79.071676 -157.275308 
L 94.289858 -76.918735 
L 109.50804 -99.151497 
L 124.726222 -90.770791 
L 139.944403 -88.778329 
L 155.162585 -107.286723 
L 170.380767 -114.936806 
L 185.598949 -110.010974 
L 200.817131 -134.244112 
L 216.035312 -110.01135 
L 231.253494 -137.239008 
L 246.471676 -130.610603 
L 261.689858 -127.750078 
L 276.90804 -92.858521 
L 292.126222 -104.33315 
L 307.344403 -69.840536 
L 322.562585 -113.468085 
L 337.780767 -109.733525 
L 352.998949 -86.847128 
L 368.217131 -108.283006 
L 368.217131 -123.377709 
L 368.217131 -123.377709 
L 352.998949 -99.041357 
L 337.780767 -123.207454 
L 322.562585 -135.491526 
L 307.344403 -86.878509 
L 292.126222 -127.263207 
L 276.90804 -109.251478 
L 261.689858 -144.867507 
L 246.471676 -153.980263 
L 231.253494 -165.798989 
L 216.035312 -140.300182 
L 200.817131 -156.669871 
L 185.598949 -136.748483 
L 170.380767 -145.771149 
L 155.162585 -145.873858 
L 139.944403 -106.942713 
L 124.726222 -125.382951 
L 109.50804 -125.66587 
L 94.289858 -107.319891 
L 79.071676 -199.717471 
L 63.853494 -241.162852 
z
" id="m10c75b90ab" style="stroke:#0000ff;stroke-opacity:0.2;"/>
    </defs>
    <g clip-path="url(#p52baa9c49c)">
     <use style="fill:#0000ff;fill-opacity:0.2;stroke:#0000ff;stroke-opacity:0.2;" x="0" xlink:href="#m10c75b90ab" y="280.699062"/>
    </g>
   </g>
   <g id="matplotlib.axis_1">
    <g id="xtick_1">
     <g id="line2d_1">
      <defs>
       <path d="M 0 0 
L 0 3.5 
" id="m2599c669e6" style="stroke:#000000;stroke-width:0.8;"/>
      </defs>
      <g>
       <use style="stroke:#000000;stroke-width:0.8;" x="63.853494" xlink:href="#m2599c669e6" y="242.0925"/>
      </g>
     </g>
     <g id="text_1">
      <text style="font-family:Arial;font-size:10px;font-style:normal;font-weight:normal;text-anchor:middle;" transform="rotate(-0, 63.853494, 256.250312)" x="63.853494" y="256.250312">10</text>
     </g>
    </g>
    <g id="xtick_2">
     <g id="line2d_2">
      <g>
       <use style="stroke:#000000;stroke-width:0.8;" x="124.726222" xlink:href="#m2599c669e6" y="242.0925"/>
      </g>
     </g>
     <g id="text_2">
      <text style="font-family:Arial;font-size:10px;font-style:normal;font-weight:normal;text-anchor:middle;" transform="rotate(-0, 124.726222, 256.250312)" x="124.726222" y="256.250312">12</text>
     </g>
    </g>
    <g id="xtick_3">
     <g id="line2d_3">
      <g>
       <use style="stroke:#000000;stroke-width:0.8;" x="185.598949" xlink:href="#m2599c669e6" y="242.0925"/>
      </g>
     </g>
     <g id="text_3">
      <text style="font-family:Arial;font-size:10px;font-style:normal;font-weight:normal;text-anchor:middle;" transform="rotate(-0, 185.598949, 256.250312)" x="185.598949" y="256.250312">14</text>
     </g>
    </g>
    <g id="xtick_4">
     <g id="line2d_4">
      <g>
       <use style="stroke:#000000;stroke-width:0.8;" x="246.471676" xlink:href="#m2599c669e6" y="242.0925"/>
      </g>
     </g>
     <g id="text_4">
      <text style="font-family:Arial;font-size:10px;font-style:normal;font-weight:normal;text-anchor:middle;" transform="rotate(-0, 246.471676, 256.250312)" x="246.471676" y="256.250312">16</text>
     </g>
    </g>
    <g id="xtick_5">
     <g id="line2d_5">
      <g>
       <use style="stroke:#000000;stroke-width:0.8;" x="307.344403" xlink:href="#m2599c669e6" y="242.0925"/>
      </g>
     </g>
     <g id="text_5">
      <text style="font-family:Arial;font-size:10px;font-style:normal;font-weight:normal;text-anchor:middle;" transform="rotate(-0, 307.344403, 256.250312)" x="307.344403" y="256.250312">18</text>
     </g>
    </g>
    <g id="xtick_6">
     <g id="line2d_6">
      <g>
       <use style="stroke:#000000;stroke-width:0.8;" x="368.217131" xlink:href="#m2599c669e6" y="242.0925"/>
      </g>
     </g>
     <g id="text_6">
      <text style="font-family:Arial;font-size:10px;font-style:normal;font-weight:normal;text-anchor:middle;" transform="rotate(-0, 368.217131, 256.250312)" x="368.217131" y="256.250312">20</text>
     </g>
    </g>
    <g id="text_7">
     <text style="font-family:Arial;font-size:12px;font-style:normal;font-weight:normal;text-anchor:middle;" transform="rotate(-0, 216.035313, 270.973437)" x="216.035313" y="270.973437">Host Age (in Weeks)</text>
    </g>
   </g>
   <g id="matplotlib.axis_2">
    <g id="ytick_1">
     <g id="line2d_7">
      <defs>
       <path d="M 0 0 
L -3.5 0 
" id="m44f025f985" style="stroke:#000000;stroke-width:0.8;"/>
      </defs>
      <g>
       <use style="stroke:#000000;stroke-width:0.8;" x="48.635313" xlink:href="#m44f025f985" y="234.34533"/>
      </g>
     </g>
     <g id="text_8">
      <text style="font-family:Arial;font-size:10px;font-style:normal;font-weight:normal;text-anchor:end;" transform="rotate(-0, 41.635313, 237.924236)" x="41.635313" y="237.924236">0.05</text>
     </g>
    </g>
    <g id="ytick_2">
     <g id="line2d_8">
      <g>
       <use style="stroke:#000000;stroke-width:0.8;" x="48.635313" xlink:href="#m44f025f985" y="202.629027"/>
      </g>
     </g>
     <g id="text_9">
      <text style="font-family:Arial;font-size:10px;font-style:normal;font-weight:normal;text-anchor:end;" transform="rotate(-0, 41.635313, 206.207933)" x="41.635313" y="206.207933">0.10</text>
     </g>
    </g>
    <g id="ytick_3">
     <g id="line2d_9">
      <g>
       <use style="stroke:#000000;stroke-width:0.8;" x="48.635313" xlink:href="#m44f025f985" y="170.912724"/>
      </g>
     </g>
     <g id="text_10">
      <text style="font-family:Arial;font-size:10px;font-style:normal;font-weight:normal;text-anchor:end;" transform="rotate(-0, 41.635313, 174.49163)" x="41.635313" y="174.49163">0.15</text>
     </g>
    </g>
    <g id="ytick_4">
     <g id="line2d_10">
      <g>
       <use style="stroke:#000000;stroke-width:0.8;" x="48.635313" xlink:href="#m44f025f985" y="139.196421"/>
      </g>
     </g>
     <g id="text_11">
      <text style="font-family:Arial;font-size:10px;font-style:normal;font-weight:normal;text-anchor:end;" transform="rotate(-0, 41.635313, 142.775327)" x="41.635313" y="142.775327">0.20</text>
     </g>
    </g>
    <g id="ytick_5">
     <g id="line2d_11">
      <g>
       <use style="stroke:#000000;stroke-width:0.8;" x="48.635313" xlink:href="#m44f025f985" y="107.480118"/>
      </g>
     </g>
     <g id="text_12">
      <text style="font-family:Arial;font-size:10px;font-style:normal;font-weight:normal;text-anchor:end;" transform="rotate(-0, 41.635313, 111.059025)" x="41.635313" y="111.059025">0.25</text>
     </g>
    </g>
    <g id="ytick_6">
     <g id="line2d_12">
      <g>
       <use style="stroke:#000000;stroke-width:0.8;" x="48.635313" xlink:href="#m44f025f985" y="75.763816"/>
      </g>
     </g>
     <g id="text_13">
      <text style="font-family:Arial;font-size:10px;font-style:normal;font-weight:normal;text-anchor:end;" transform="rotate(-0, 41.635313, 79.342722)" x="41.635313" y="79.342722">0.30</text>
     </g>
    </g>
    <g id="ytick_7">
     <g id="line2d_13">
      <g>
       <use style="stroke:#000000;stroke-width:0.8;" x="48.635313" xlink:href="#m44f025f985" y="44.047513"/>
      </g>
     </g>
     <g id="text_14">
      <text style="font-family:Arial;font-size:10px;font-style:normal;font-weight:normal;text-anchor:end;" transform="rotate(-0, 41.635313, 47.626419)" x="41.635313" y="47.626419">0.35</text>
     </g>
    </g>
    <g id="text_15">
     <text style="font-family:Arial;font-size:12px;font-style:normal;font-weight:normal;text-anchor:middle;" transform="rotate(-90, 15.789375, 133.3725)" x="15.789375" y="133.3725">Relative Abundance</text>
    </g>
   </g>
   <g id="line2d_14">
    <path clip-path="url(#p52baa9c49c)" d="M 63.853494 65.173688 
L 79.071676 160.132023 
L 94.289858 224.877606 
L 109.50804 216.710221 
L 124.726222 192.10169 
L 139.944403 221.386573 
L 155.162585 182.829265 
L 170.380767 166.49226 
L 185.598949 188.124353 
L 200.817131 156.919639 
L 216.035312 167.541443 
L 231.253494 174.034102 
L 246.471676 172.534684 
L 261.689858 157.028179 
L 276.90804 180.336165 
L 292.126222 171.177268 
L 307.344403 127.978561 
L 322.562585 171.320281 
L 337.780767 153.987855 
L 352.998949 153.313348 
L 368.217131 151.324403 
" style="fill:none;stroke:#c0c0c0;stroke-linecap:square;stroke-width:1.5;"/>
   </g>
   <g id="line2d_15">
    <path clip-path="url(#p52baa9c49c)" d="M 63.853494 72.351535 
L 79.071676 101.872755 
L 94.289858 188.716713 
L 109.50804 167.937443 
L 124.726222 173.224888 
L 139.944403 182.529923 
L 155.162585 153.876793 
L 170.380767 150.801111 
L 185.598949 156.365895 
L 200.817131 135.29368 
L 216.035312 155.708852 
L 231.253494 129.515318 
L 246.471676 138.391136 
L 261.689858 144.184305 
L 276.90804 179.811849 
L 292.126222 165.061458 
L 307.344403 202.134539 
L 322.562585 156.104116 
L 337.780767 164.09716 
L 352.998949 187.651175 
L 368.217131 164.324464 
" style="fill:none;stroke:#0000ff;stroke-linecap:square;stroke-width:1.5;"/>
   </g>
   <g id="line2d_16"/>
   <g id="line2d_17"/>
   <g id="line2d_18"/>
   <g id="patch_3">
    <path d="M 48.635313 242.0925 
L 48.635313 24.6525 
" style="fill:none;stroke:#000000;stroke-linecap:square;stroke-linejoin:miter;stroke-width:0.8;"/>
   </g>
   <g id="patch_4">
    <path d="M 383.435313 242.0925 
L 383.435313 24.6525 
" style="fill:none;stroke:#000000;stroke-linecap:square;stroke-linejoin:miter;stroke-width:0.8;"/>
   </g>
   <g id="patch_5">
    <path d="M 48.635312 242.0925 
L 383.435313 242.0925 
" style="fill:none;stroke:#000000;stroke-linecap:square;stroke-linejoin:miter;stroke-width:0.8;"/>
   </g>
   <g id="patch_6">
    <path d="M 48.635312 24.6525 
L 383.435313 24.6525 
" style="fill:none;stroke:#000000;stroke-linecap:square;stroke-linejoin:miter;stroke-width:0.8;"/>
   </g>
   <g id="text_16">
    <text style="font-family:Arial;font-size:16px;font-style:normal;font-weight:normal;text-anchor:middle;" transform="rotate(-0, 216.035313, 18.6525)" x="216.035313" y="18.6525">S24-7</text>
   </g>
   <g id="legend_1">
    <g id="patch_7">
     <path d="M 402.175313 70.205625 
L 499.770625 70.205625 
Q 501.770625 70.205625 501.770625 68.205625 
L 501.770625 26.6525 
Q 501.770625 24.6525 499.770625 24.6525 
L 402.175313 24.6525 
Q 400.175313 24.6525 400.175313 26.6525 
L 400.175313 68.205625 
Q 400.175313 70.205625 402.175313 70.205625 
z
" style="fill:#ffffff;opacity:0.8;stroke:#cccccc;stroke-linejoin:miter;"/>
    </g>
    <g id="line2d_19">
     <path d="M 404.175313 32.310312 
L 424.175313 32.310312 
" style="fill:none;"/>
    </g>
    <g id="line2d_20"/>
    <g id="text_17">
     <text style="font-family:Arial;font-size:10px;font-style:normal;font-weight:normal;text-anchor:start;" transform="rotate(-0, 432.175313, 35.810312)" x="432.175313" y="35.810312">exposure_type</text>
    </g>
    <g id="line2d_21">
     <path d="M 404.175313 46.572812 
L 424.175313 46.572812 
" style="fill:none;stroke:#c0c0c0;stroke-linecap:square;stroke-width:1.5;"/>
    </g>
    <g id="line2d_22"/>
    <g id="text_18">
     <text style="font-family:Arial;font-size:10px;font-style:normal;font-weight:normal;text-anchor:start;" transform="rotate(-0, 432.175313, 50.072812)" x="432.175313" y="50.072812">Air</text>
    </g>
    <g id="line2d_23">
     <path d="M 404.175313 60.718125 
L 424.175313 60.718125 
" style="fill:none;stroke:#0000ff;stroke-linecap:square;stroke-width:1.5;"/>
    </g>
    <g id="line2d_24"/>
    <g id="text_19">
     <text style="font-family:Arial;font-size:10px;font-style:normal;font-weight:normal;text-anchor:start;" transform="rotate(-0, 432.175313, 64.218125)" x="432.175313" y="64.218125">IH</text>
    </g>
   </g>
  </g>
 </g>
 <defs>
  <clipPath id="p52baa9c49c">
   <rect height="217.44" width="334.8" x="48.635313" y="24.6525"/>
  </clipPath>
 </defs>
</svg>
