<?xml version="1.0" encoding="utf-8" standalone="no"?>
<!DOCTYPE svg PUBLIC "-//W3C//DTD SVG 1.1//EN"
  "http://www.w3.org/Graphics/SVG/1.1/DTD/svg11.dtd">
<!-- Created with matplotlib (https://matplotlib.org/) -->
<svg height="280.746562pt" version="1.1" viewBox="0 0 508.970625 280.746562" width="508.970625pt" xmlns="http://www.w3.org/2000/svg" xmlns:xlink="http://www.w3.org/1999/xlink">
 <defs>
  <style type="text/css">
*{stroke-linecap:butt;stroke-linejoin:round;white-space:pre;}
  </style>
 </defs>
 <g id="figure_1">
  <g id="patch_1">
   <path d="M 0 280.746562 
L 508.970625 280.746562 
L 508.970625 0 
L 0 0 
z
" style="fill:#ffffff;"/>
  </g>
  <g id="axes_1">
   <g id="patch_2">
    <path d="M 48.635313 242.14 
L 383.435313 242.14 
L 383.435313 24.7 
L 48.635313 24.7 
z
" style="fill:#ffffff;"/>
   </g>
   <g id="PolyCollection_1">
    <defs>
     <path d="M 63.853494 -70.028561 
L 63.853494 -48.490199 
L 79.071676 -208.599116 
L 139.944403 -172.421304 
L 216.035312 -138.386681 
L 292.126222 -135.518581 
L 368.217131 -166.018905 
L 368.217131 -218.492101 
L 368.217131 -218.492101 
L 292.126222 -177.645794 
L 216.035312 -188.123134 
L 139.944403 -214.429487 
L 79.071676 -246.162926 
L 63.853494 -70.028561 
z
" id="mbb380646b7" style="stroke:#0000ff;stroke-opacity:0.2;"/>
    </defs>
    <g clip-path="url(#p59265f7605)">
     <use style="fill:#0000ff;fill-opacity:0.2;stroke:#0000ff;stroke-opacity:0.2;" x="0" xlink:href="#mbb380646b7" y="280.746562"/>
    </g>
   </g>
   <g id="PolyCollection_2">
    <defs>
     <path d="M 63.853494 -71.908436 
L 63.853494 -51.360676 
L 79.071676 -80.590766 
L 139.944403 -117.763422 
L 216.035312 -112.636867 
L 292.126222 -130.575963 
L 368.217131 -137.050059 
L 368.217131 -207.490779 
L 368.217131 -207.490779 
L 292.126222 -214.277 
L 216.035312 -171.894305 
L 139.944403 -174.618147 
L 79.071676 -111.593455 
L 63.853494 -71.908436 
z
" id="m3a40eddd29" style="stroke:#c0c0c0;stroke-opacity:0.2;"/>
    </defs>
    <g clip-path="url(#p59265f7605)">
     <use style="fill:#c0c0c0;fill-opacity:0.2;stroke:#c0c0c0;stroke-opacity:0.2;" x="0" xlink:href="#m3a40eddd29" y="280.746562"/>
    </g>
   </g>
   <g id="matplotlib.axis_1">
    <g id="xtick_1">
     <g id="line2d_1">
      <defs>
       <path d="M 0 0 
L 0 3.5 
" id="md327cebbc5" style="stroke:#000000;stroke-width:0.8;"/>
      </defs>
      <g>
       <use style="stroke:#000000;stroke-width:0.8;" x="63.853494" xlink:href="#md327cebbc5" y="242.14"/>
      </g>
     </g>
     <g id="text_1">
      <text style="font-family:Arial;font-size:10px;font-style:normal;font-weight:normal;text-anchor:middle;" transform="rotate(-0, 63.853494, 256.297812)" x="63.853494" y="256.297812">10</text>
     </g>
    </g>
    <g id="xtick_2">
     <g id="line2d_2">
      <g>
       <use style="stroke:#000000;stroke-width:0.8;" x="124.726222" xlink:href="#md327cebbc5" y="242.14"/>
      </g>
     </g>
     <g id="text_2">
      <text style="font-family:Arial;font-size:10px;font-style:normal;font-weight:normal;text-anchor:middle;" transform="rotate(-0, 124.726222, 256.297812)" x="124.726222" y="256.297812">12</text>
     </g>
    </g>
    <g id="xtick_3">
     <g id="line2d_3">
      <g>
       <use style="stroke:#000000;stroke-width:0.8;" x="185.598949" xlink:href="#md327cebbc5" y="242.14"/>
      </g>
     </g>
     <g id="text_3">
      <text style="font-family:Arial;font-size:10px;font-style:normal;font-weight:normal;text-anchor:middle;" transform="rotate(-0, 185.598949, 256.297812)" x="185.598949" y="256.297812">14</text>
     </g>
    </g>
    <g id="xtick_4">
     <g id="line2d_4">
      <g>
       <use style="stroke:#000000;stroke-width:0.8;" x="246.471676" xlink:href="#md327cebbc5" y="242.14"/>
      </g>
     </g>
     <g id="text_4">
      <text style="font-family:Arial;font-size:10px;font-style:normal;font-weight:normal;text-anchor:middle;" transform="rotate(-0, 246.471676, 256.297812)" x="246.471676" y="256.297812">16</text>
     </g>
    </g>
    <g id="xtick_5">
     <g id="line2d_5">
      <g>
       <use style="stroke:#000000;stroke-width:0.8;" x="307.344403" xlink:href="#md327cebbc5" y="242.14"/>
      </g>
     </g>
     <g id="text_5">
      <text style="font-family:Arial;font-size:10px;font-style:normal;font-weight:normal;text-anchor:middle;" transform="rotate(-0, 307.344403, 256.297812)" x="307.344403" y="256.297812">18</text>
     </g>
    </g>
    <g id="xtick_6">
     <g id="line2d_6">
      <g>
       <use style="stroke:#000000;stroke-width:0.8;" x="368.217131" xlink:href="#md327cebbc5" y="242.14"/>
      </g>
     </g>
     <g id="text_6">
      <text style="font-family:Arial;font-size:10px;font-style:normal;font-weight:normal;text-anchor:middle;" transform="rotate(-0, 368.217131, 256.297812)" x="368.217131" y="256.297812">20</text>
     </g>
    </g>
    <g id="text_7">
     <text style="font-family:Arial;font-size:12px;font-style:normal;font-weight:normal;text-anchor:middle;" transform="rotate(-0, 216.035313, 271.020938)" x="216.035313" y="271.020938">Host Age (in Weeks)</text>
    </g>
   </g>
   <g id="matplotlib.axis_2">
    <g id="ytick_1">
     <g id="line2d_7">
      <defs>
       <path d="M 0 0 
L -3.5 0 
" id="m7af1e2fc0a" style="stroke:#000000;stroke-width:0.8;"/>
      </defs>
      <g>
       <use style="stroke:#000000;stroke-width:0.8;" x="48.635313" xlink:href="#m7af1e2fc0a" y="207.818616"/>
      </g>
     </g>
     <g id="text_8">
      <text style="font-family:Arial;font-size:10px;font-style:normal;font-weight:normal;text-anchor:end;" transform="rotate(-0, 41.635313, 211.397522)" x="41.635313" y="211.397522">0.04</text>
     </g>
    </g>
    <g id="ytick_2">
     <g id="line2d_8">
      <g>
       <use style="stroke:#000000;stroke-width:0.8;" x="48.635313" xlink:href="#m7af1e2fc0a" y="161.55556"/>
      </g>
     </g>
     <g id="text_9">
      <text style="font-family:Arial;font-size:10px;font-style:normal;font-weight:normal;text-anchor:end;" transform="rotate(-0, 41.635313, 165.134466)" x="41.635313" y="165.134466">0.06</text>
     </g>
    </g>
    <g id="ytick_3">
     <g id="line2d_9">
      <g>
       <use style="stroke:#000000;stroke-width:0.8;" x="48.635313" xlink:href="#m7af1e2fc0a" y="115.292503"/>
      </g>
     </g>
     <g id="text_10">
      <text style="font-family:Arial;font-size:10px;font-style:normal;font-weight:normal;text-anchor:end;" transform="rotate(-0, 41.635313, 118.87141)" x="41.635313" y="118.87141">0.08</text>
     </g>
    </g>
    <g id="ytick_4">
     <g id="line2d_10">
      <g>
       <use style="stroke:#000000;stroke-width:0.8;" x="48.635313" xlink:href="#m7af1e2fc0a" y="69.029447"/>
      </g>
     </g>
     <g id="text_11">
      <text style="font-family:Arial;font-size:10px;font-style:normal;font-weight:normal;text-anchor:end;" transform="rotate(-0, 41.635313, 72.608353)" x="41.635313" y="72.608353">0.10</text>
     </g>
    </g>
    <g id="text_12">
     <text style="font-family:Arial;font-size:12px;font-style:normal;font-weight:normal;text-anchor:middle;" transform="rotate(-90, 15.789375, 133.42)" x="15.789375" y="133.42">Relative Abundance</text>
    </g>
   </g>
   <g id="line2d_11">
    <path clip-path="url(#p59265f7605)" d="M 63.853494 221.489413 
L 79.071676 52.601046 
L 139.944403 87.099178 
L 216.035312 115.648917 
L 292.126222 124.453675 
L 368.217131 88.03967 
" style="fill:none;stroke:#0000ff;stroke-linecap:square;stroke-width:1.5;"/>
   </g>
   <g id="line2d_12">
    <path clip-path="url(#p59265f7605)" d="M 63.853494 219.696365 
L 79.071676 184.118594 
L 139.944403 135.311058 
L 216.035312 137.951981 
L 292.126222 109.039528 
L 368.217131 106.538673 
" style="fill:none;stroke:#c0c0c0;stroke-linecap:square;stroke-width:1.5;"/>
   </g>
   <g id="line2d_13"/>
   <g id="line2d_14"/>
   <g id="line2d_15"/>
   <g id="patch_3">
    <path d="M 48.635313 242.14 
L 48.635313 24.7 
" style="fill:none;stroke:#000000;stroke-linecap:square;stroke-linejoin:miter;stroke-width:0.8;"/>
   </g>
   <g id="patch_4">
    <path d="M 383.435313 242.14 
L 383.435313 24.7 
" style="fill:none;stroke:#000000;stroke-linecap:square;stroke-linejoin:miter;stroke-width:0.8;"/>
   </g>
   <g id="patch_5">
    <path d="M 48.635312 242.14 
L 383.435313 242.14 
" style="fill:none;stroke:#000000;stroke-linecap:square;stroke-linejoin:miter;stroke-width:0.8;"/>
   </g>
   <g id="patch_6">
    <path d="M 48.635312 24.7 
L 383.435313 24.7 
" style="fill:none;stroke:#000000;stroke-linecap:square;stroke-linejoin:miter;stroke-width:0.8;"/>
   </g>
   <g id="text_13">
    <text style="font-family:Arial;font-size:16px;font-style:normal;font-weight:normal;text-anchor:middle;" transform="rotate(-0, 216.035313, 18.7)" x="216.035313" y="18.7">16:0 LysoPE</text>
   </g>
   <g id="legend_1">
    <g id="patch_7">
     <path d="M 402.175313 70.253125 
L 499.770625 70.253125 
Q 501.770625 70.253125 501.770625 68.253125 
L 501.770625 26.7 
Q 501.770625 24.7 499.770625 24.7 
L 402.175313 24.7 
Q 400.175313 24.7 400.175313 26.7 
L 400.175313 68.253125 
Q 400.175313 70.253125 402.175313 70.253125 
z
" style="fill:#ffffff;opacity:0.8;stroke:#cccccc;stroke-linejoin:miter;"/>
    </g>
    <g id="line2d_16">
     <path d="M 404.175313 32.357812 
L 424.175313 32.357812 
" style="fill:none;"/>
    </g>
    <g id="line2d_17"/>
    <g id="text_14">
     <text style="font-family:Arial;font-size:10px;font-style:normal;font-weight:normal;text-anchor:start;" transform="rotate(-0, 432.175313, 35.857812)" x="432.175313" y="35.857812">exposure_type</text>
    </g>
    <g id="line2d_18">
     <path d="M 404.175313 46.620312 
L 424.175313 46.620312 
" style="fill:none;stroke:#0000ff;stroke-linecap:square;stroke-width:1.5;"/>
    </g>
    <g id="line2d_19"/>
    <g id="text_15">
     <text style="font-family:Arial;font-size:10px;font-style:normal;font-weight:normal;text-anchor:start;" transform="rotate(-0, 432.175313, 50.120312)" x="432.175313" y="50.120312">IH</text>
    </g>
    <g id="line2d_20">
     <path d="M 404.175313 60.765625 
L 424.175313 60.765625 
" style="fill:none;stroke:#c0c0c0;stroke-linecap:square;stroke-width:1.5;"/>
    </g>
    <g id="line2d_21"/>
    <g id="text_16">
     <text style="font-family:Arial;font-size:10px;font-style:normal;font-weight:normal;text-anchor:start;" transform="rotate(-0, 432.175313, 64.265625)" x="432.175313" y="64.265625">Air</text>
    </g>
   </g>
  </g>
 </g>
 <defs>
  <clipPath id="p59265f7605">
   <rect height="217.44" width="334.8" x="48.635313" y="24.7"/>
  </clipPath>
 </defs>
</svg>
