<?xml version="1.0" encoding="utf-8" standalone="no"?>
<!DOCTYPE svg PUBLIC "-//W3C//DTD SVG 1.1//EN"
  "http://www.w3.org/Graphics/SVG/1.1/DTD/svg11.dtd">
<!-- Created with matplotlib (https://matplotlib.org/) -->
<svg height="263.246562pt" version="1.1" viewBox="0 0 382.583125 263.246562" width="382.583125pt" xmlns="http://www.w3.org/2000/svg" xmlns:xlink="http://www.w3.org/1999/xlink">
 <defs>
  <style type="text/css">
*{stroke-linecap:butt;stroke-linejoin:round;}
  </style>
 </defs>
 <g id="figure_1">
  <g id="patch_1">
   <path d="M 0 263.246562 
L 382.583125 263.246562 
L 382.583125 0 
L 0 0 
z
" style="fill:#ffffff;"/>
  </g>
  <g id="axes_1">
   <g id="patch_2">
    <path d="M 40.583125 224.64 
L 375.383125 224.64 
L 375.383125 7.2 
L 40.583125 7.2 
z
" style="fill:#ffffff;"/>
   </g>
   <g id="PathCollection_1">
    <defs>
     <path d="M 0 3 
C 0.795609 3 1.55874 2.683901 2.12132 2.12132 
C 2.683901 1.55874 3 0.795609 3 0 
C 3 -0.795609 2.683901 -1.55874 2.12132 -2.12132 
C 1.55874 -2.683901 0.795609 -3 0 -3 
C -0.795609 -3 -1.55874 -2.683901 -2.12132 -2.12132 
C -2.683901 -1.55874 -3 -0.795609 -3 0 
C -3 0.795609 -2.683901 1.55874 -2.12132 2.12132 
C -1.55874 2.683901 -0.795609 3 0 3 
z
" id="mba89a4a9dd" style="stroke:#ff1493;stroke-opacity:0.8;"/>
    </defs>
    <g clip-path="url(#pa3b6987a69)">
     <use style="fill:#ff1493;fill-opacity:0.8;stroke:#ff1493;stroke-opacity:0.8;" x="183.785768" xlink:href="#mba89a4a9dd" y="40.970703"/>
     <use style="fill:#ff1493;fill-opacity:0.8;stroke:#ff1493;stroke-opacity:0.8;" x="243.350212" xlink:href="#mba89a4a9dd" y="50.098317"/>
     <use style="fill:#ff1493;fill-opacity:0.8;stroke:#ff1493;stroke-opacity:0.8;" x="117.018099" xlink:href="#mba89a4a9dd" y="40.083655"/>
     <use style="fill:#ff1493;fill-opacity:0.8;stroke:#ff1493;stroke-opacity:0.8;" x="288.452524" xlink:href="#mba89a4a9dd" y="62.055256"/>
     <use style="fill:#ff1493;fill-opacity:0.8;stroke:#ff1493;stroke-opacity:0.8;" x="211.246531" xlink:href="#mba89a4a9dd" y="51.980992"/>
     <use style="fill:#ff1493;fill-opacity:0.8;stroke:#ff1493;stroke-opacity:0.8;" x="261.129343" xlink:href="#mba89a4a9dd" y="100.465821"/>
     <use style="fill:#ff1493;fill-opacity:0.8;stroke:#ff1493;stroke-opacity:0.8;" x="301.172754" xlink:href="#mba89a4a9dd" y="17.135893"/>
     <use style="fill:#ff1493;fill-opacity:0.8;stroke:#ff1493;stroke-opacity:0.8;" x="308.347626" xlink:href="#mba89a4a9dd" y="75.002505"/>
     <use style="fill:#ff1493;fill-opacity:0.8;stroke:#ff1493;stroke-opacity:0.8;" x="241.929912" xlink:href="#mba89a4a9dd" y="146.319561"/>
     <use style="fill:#ff1493;fill-opacity:0.8;stroke:#ff1493;stroke-opacity:0.8;" x="233.526806" xlink:href="#mba89a4a9dd" y="96.114866"/>
     <use style="fill:#ff1493;fill-opacity:0.8;stroke:#ff1493;stroke-opacity:0.8;" x="321.028752" xlink:href="#mba89a4a9dd" y="43.46507"/>
     <use style="fill:#ff1493;fill-opacity:0.8;stroke:#ff1493;stroke-opacity:0.8;" x="203.080444" xlink:href="#mba89a4a9dd" y="117.452153"/>
     <use style="fill:#ff1493;fill-opacity:0.8;stroke:#ff1493;stroke-opacity:0.8;" x="184.40884" xlink:href="#mba89a4a9dd" y="96.317662"/>
     <use style="fill:#ff1493;fill-opacity:0.8;stroke:#ff1493;stroke-opacity:0.8;" x="270.52209" xlink:href="#mba89a4a9dd" y="167.599316"/>
     <use style="fill:#ff1493;fill-opacity:0.8;stroke:#ff1493;stroke-opacity:0.8;" x="148.684078" xlink:href="#mba89a4a9dd" y="94.739329"/>
     <use style="fill:#ff1493;fill-opacity:0.8;stroke:#ff1493;stroke-opacity:0.8;" x="359.765544" xlink:href="#mba89a4a9dd" y="144.137977"/>
     <use style="fill:#ff1493;fill-opacity:0.8;stroke:#ff1493;stroke-opacity:0.8;" x="155.846371" xlink:href="#mba89a4a9dd" y="152.611537"/>
     <use style="fill:#ff1493;fill-opacity:0.8;stroke:#ff1493;stroke-opacity:0.8;" x="266.537478" xlink:href="#mba89a4a9dd" y="102.496855"/>
     <use style="fill:#ff1493;fill-opacity:0.8;stroke:#ff1493;stroke-opacity:0.8;" x="116.360439" xlink:href="#mba89a4a9dd" y="192.645774"/>
     <use style="fill:#ff1493;fill-opacity:0.8;stroke:#ff1493;stroke-opacity:0.8;" x="154.21482" xlink:href="#mba89a4a9dd" y="167.019528"/>
     <use style="fill:#ff1493;fill-opacity:0.8;stroke:#ff1493;stroke-opacity:0.8;" x="56.200706" xlink:href="#mba89a4a9dd" y="189.885735"/>
     <use style="fill:#ff1493;fill-opacity:0.8;stroke:#ff1493;stroke-opacity:0.8;" x="229.658044" xlink:href="#mba89a4a9dd" y="156.369017"/>
     <use style="fill:#ff1493;fill-opacity:0.8;stroke:#ff1493;stroke-opacity:0.8;" x="166.551362" xlink:href="#mba89a4a9dd" y="193.119356"/>
     <use style="fill:#ff1493;fill-opacity:0.8;stroke:#ff1493;stroke-opacity:0.8;" x="246.038825" xlink:href="#mba89a4a9dd" y="122.259622"/>
     <use style="fill:#ff1493;fill-opacity:0.8;stroke:#ff1493;stroke-opacity:0.8;" x="274.795124" xlink:href="#mba89a4a9dd" y="135.145051"/>
     <use style="fill:#ff1493;fill-opacity:0.8;stroke:#ff1493;stroke-opacity:0.8;" x="304.724346" xlink:href="#mba89a4a9dd" y="116.560645"/>
     <use style="fill:#ff1493;fill-opacity:0.8;stroke:#ff1493;stroke-opacity:0.8;" x="257.156198" xlink:href="#mba89a4a9dd" y="124.054693"/>
     <use style="fill:#ff1493;fill-opacity:0.8;stroke:#ff1493;stroke-opacity:0.8;" x="296.204766" xlink:href="#mba89a4a9dd" y="126.444342"/>
     <use style="fill:#ff1493;fill-opacity:0.8;stroke:#ff1493;stroke-opacity:0.8;" x="310.087435" xlink:href="#mba89a4a9dd" y="113.274241"/>
     <use style="fill:#ff1493;fill-opacity:0.8;stroke:#ff1493;stroke-opacity:0.8;" x="271.299686" xlink:href="#mba89a4a9dd" y="66.28991"/>
     <use style="fill:#ff1493;fill-opacity:0.8;stroke:#ff1493;stroke-opacity:0.8;" x="185.436705" xlink:href="#mba89a4a9dd" y="142.682095"/>
     <use style="fill:#ff1493;fill-opacity:0.8;stroke:#ff1493;stroke-opacity:0.8;" x="226.890594" xlink:href="#mba89a4a9dd" y="177.099307"/>
     <use style="fill:#ff1493;fill-opacity:0.8;stroke:#ff1493;stroke-opacity:0.8;" x="209.431602" xlink:href="#mba89a4a9dd" y="136.014761"/>
     <use style="fill:#ff1493;fill-opacity:0.8;stroke:#ff1493;stroke-opacity:0.8;" x="291.13158" xlink:href="#mba89a4a9dd" y="182.502023"/>
     <use style="fill:#ff1493;fill-opacity:0.8;stroke:#ff1493;stroke-opacity:0.8;" x="236.996943" xlink:href="#mba89a4a9dd" y="147.452255"/>
     <use style="fill:#ff1493;fill-opacity:0.8;stroke:#ff1493;stroke-opacity:0.8;" x="205.304546" xlink:href="#mba89a4a9dd" y="164.325438"/>
     <use style="fill:#ff1493;fill-opacity:0.8;stroke:#ff1493;stroke-opacity:0.8;" x="274.249972" xlink:href="#mba89a4a9dd" y="168.690055"/>
     <use style="fill:#ff1493;fill-opacity:0.8;stroke:#ff1493;stroke-opacity:0.8;" x="240.962826" xlink:href="#mba89a4a9dd" y="171.646037"/>
    </g>
   </g>
   <g id="PolyCollection_1">
    <path clip-path="url(#pa3b6987a69)" d="M 40.583125 93.553417 
L 40.583125 214.756364 
L 43.964943 213.222385 
L 47.346761 211.688407 
L 50.72858 210.096187 
L 54.110398 208.452156 
L 57.492216 206.908308 
L 60.874034 205.552633 
L 64.255852 204.110435 
L 67.63767 202.714415 
L 71.019489 201.312766 
L 74.401307 199.63248 
L 77.783125 198.000961 
L 81.164943 196.570193 
L 84.546761 195.134117 
L 87.92858 193.600796 
L 91.310398 192.213455 
L 94.692216 190.798047 
L 98.074034 189.344444 
L 101.455852 187.739937 
L 104.83767 186.302441 
L 108.219489 184.969997 
L 111.601307 183.63578 
L 114.983125 182.089698 
L 118.364943 180.532962 
L 121.746761 179.145795 
L 125.12858 178.008142 
L 128.510398 176.587878 
L 131.892216 175.160739 
L 135.274034 173.728302 
L 138.655852 172.29886 
L 142.03767 170.739618 
L 145.419489 169.019504 
L 148.801307 167.64831 
L 152.183125 166.591761 
L 155.564943 165.601643 
L 158.946761 164.486333 
L 162.32858 162.706354 
L 165.710398 161.592752 
L 169.092216 160.327956 
L 172.474034 158.98068 
L 175.855852 157.966366 
L 179.23767 156.787316 
L 182.619489 155.563232 
L 186.001307 154.193462 
L 189.383125 153.043207 
L 192.764943 151.750639 
L 196.146761 150.62825 
L 199.52858 149.238161 
L 202.910398 148.336092 
L 206.292216 147.347535 
L 209.674034 146.473141 
L 213.055852 145.644191 
L 216.43767 144.693351 
L 219.819489 143.140898 
L 223.201307 142.304009 
L 226.583125 141.454993 
L 229.964943 140.630726 
L 233.346761 139.903887 
L 236.72858 139.221584 
L 240.110398 138.568988 
L 243.492216 137.738257 
L 246.874034 137.033551 
L 250.255852 136.270938 
L 253.63767 135.442789 
L 257.019489 134.818272 
L 260.401307 134.142542 
L 263.783125 133.830153 
L 267.164943 133.539392 
L 270.546761 133.014574 
L 273.92858 132.467927 
L 277.310398 132.14246 
L 280.692216 132.088 
L 284.074034 131.752211 
L 287.455852 131.725032 
L 290.83767 131.731538 
L 294.219489 131.874896 
L 297.601307 131.921179 
L 300.983125 131.885553 
L 304.364943 131.711157 
L 307.746761 131.668744 
L 311.12858 131.519337 
L 314.510398 131.600569 
L 317.892216 131.847795 
L 321.274034 132.105274 
L 324.655852 132.23141 
L 328.03767 132.101826 
L 331.419489 131.928195 
L 334.801307 131.835462 
L 338.183125 131.719793 
L 341.564943 132.295119 
L 344.946761 133.001638 
L 348.32858 133.361138 
L 351.710398 133.696577 
L 355.092216 133.777433 
L 358.474034 133.848813 
L 361.855852 134.419504 
L 365.23767 134.576928 
L 368.619489 134.673815 
L 372.001307 134.659254 
L 375.383125 134.507685 
L 375.383125 51.981709 
L 375.383125 51.981709 
L 372.001307 53.632859 
L 368.619489 55.277916 
L 365.23767 56.916618 
L 361.855852 58.55532 
L 358.474034 60.194023 
L 355.092216 61.503085 
L 351.710398 62.79573 
L 348.32858 64.088376 
L 344.946761 65.381548 
L 341.564943 67.192465 
L 338.183125 69.233375 
L 334.801307 71.051758 
L 331.419489 72.276604 
L 328.03767 73.505831 
L 324.655852 74.94235 
L 321.274034 76.282967 
L 317.892216 77.46486 
L 314.510398 78.997253 
L 311.12858 80.529646 
L 307.746761 82.062314 
L 304.364943 83.396564 
L 300.983125 84.620262 
L 297.601307 85.83407 
L 294.219489 87.042368 
L 290.83767 88.317928 
L 287.455852 89.943974 
L 284.074034 91.295789 
L 280.692216 92.542564 
L 277.310398 93.807812 
L 273.92858 94.936667 
L 270.546761 96.415955 
L 267.164943 97.779292 
L 263.783125 98.92592 
L 260.401307 99.561642 
L 257.019489 100.887534 
L 253.63767 101.861525 
L 250.255852 102.780357 
L 246.874034 103.966167 
L 243.492216 104.890517 
L 240.110398 105.290889 
L 236.72858 106.358019 
L 233.346761 107.078908 
L 229.964943 107.490382 
L 226.583125 107.83038 
L 223.201307 107.887708 
L 219.819489 107.600368 
L 216.43767 107.553757 
L 213.055852 107.328075 
L 209.674034 107.668009 
L 206.292216 107.686238 
L 202.910398 108.090679 
L 199.52858 108.047047 
L 196.146761 108.12126 
L 192.764943 108.158062 
L 189.383125 108.093556 
L 186.001307 107.664205 
L 182.619489 107.407779 
L 179.23767 107.242001 
L 175.855852 107.106611 
L 172.474034 106.638878 
L 169.092216 106.405731 
L 165.710398 106.088958 
L 162.32858 105.768303 
L 158.946761 105.277831 
L 155.564943 105.017322 
L 152.183125 104.699437 
L 148.801307 104.330999 
L 145.419489 103.968842 
L 142.03767 103.612333 
L 138.655852 103.408559 
L 135.274034 103.26187 
L 131.892216 102.939624 
L 128.510398 102.245469 
L 125.12858 101.797207 
L 121.746761 101.430505 
L 118.364943 101.07414 
L 114.983125 100.725018 
L 111.601307 100.584418 
L 108.219489 100.205215 
L 104.83767 99.985321 
L 101.455852 99.790531 
L 98.074034 99.598331 
L 94.692216 99.40613 
L 91.310398 99.21393 
L 87.92858 98.936291 
L 84.546761 98.556526 
L 81.164943 98.262595 
L 77.783125 98.052739 
L 74.401307 97.842883 
L 71.019489 97.633028 
L 67.63767 97.367105 
L 64.255852 96.841721 
L 60.874034 96.316337 
L 57.492216 95.790953 
L 54.110398 95.26557 
L 50.72858 94.740186 
L 47.346761 94.329129 
L 43.964943 93.941273 
L 40.583125 93.553417 
z
" style="fill:#ff1493;fill-opacity:0.15;"/>
   </g>
   <g id="matplotlib.axis_1">
    <g id="xtick_1">
     <g id="line2d_1">
      <defs>
       <path d="M 0 0 
L 0 3.5 
" id="mfde5488436" style="stroke:#000000;stroke-width:0.8;"/>
      </defs>
      <g>
       <use style="stroke:#000000;stroke-width:0.8;" x="85.100191" xlink:href="#mfde5488436" y="224.64"/>
      </g>
     </g>
     <g id="text_1">
      <text style="font-family:Arial;font-size:10px;font-style:normal;font-weight:normal;text-anchor:middle;" transform="rotate(-0, 85.100191, 238.797812)" x="85.100191" y="238.797812">−4</text>
     </g>
    </g>
    <g id="xtick_2">
     <g id="line2d_2">
      <g>
       <use style="stroke:#000000;stroke-width:0.8;" x="129.673103" xlink:href="#mfde5488436" y="224.64"/>
      </g>
     </g>
     <g id="text_2">
      <text style="font-family:Arial;font-size:10px;font-style:normal;font-weight:normal;text-anchor:middle;" transform="rotate(-0, 129.673103, 238.797812)" x="129.673103" y="238.797812">−3</text>
     </g>
    </g>
    <g id="xtick_3">
     <g id="line2d_3">
      <g>
       <use style="stroke:#000000;stroke-width:0.8;" x="174.246014" xlink:href="#mfde5488436" y="224.64"/>
      </g>
     </g>
     <g id="text_3">
      <text style="font-family:Arial;font-size:10px;font-style:normal;font-weight:normal;text-anchor:middle;" transform="rotate(-0, 174.246014, 238.797812)" x="174.246014" y="238.797812">−2</text>
     </g>
    </g>
    <g id="xtick_4">
     <g id="line2d_4">
      <g>
       <use style="stroke:#000000;stroke-width:0.8;" x="218.818925" xlink:href="#mfde5488436" y="224.64"/>
      </g>
     </g>
     <g id="text_4">
      <text style="font-family:Arial;font-size:10px;font-style:normal;font-weight:normal;text-anchor:middle;" transform="rotate(-0, 218.818925, 238.797812)" x="218.818925" y="238.797812">−1</text>
     </g>
    </g>
    <g id="xtick_5">
     <g id="line2d_5">
      <g>
       <use style="stroke:#000000;stroke-width:0.8;" x="263.391837" xlink:href="#mfde5488436" y="224.64"/>
      </g>
     </g>
     <g id="text_5">
      <text style="font-family:Arial;font-size:10px;font-style:normal;font-weight:normal;text-anchor:middle;" transform="rotate(-0, 263.391837, 238.797812)" x="263.391837" y="238.797812">0</text>
     </g>
    </g>
    <g id="xtick_6">
     <g id="line2d_6">
      <g>
       <use style="stroke:#000000;stroke-width:0.8;" x="307.964748" xlink:href="#mfde5488436" y="224.64"/>
      </g>
     </g>
     <g id="text_6">
      <text style="font-family:Arial;font-size:10px;font-style:normal;font-weight:normal;text-anchor:middle;" transform="rotate(-0, 307.964748, 238.797812)" x="307.964748" y="238.797812">1</text>
     </g>
    </g>
    <g id="xtick_7">
     <g id="line2d_7">
      <g>
       <use style="stroke:#000000;stroke-width:0.8;" x="352.53766" xlink:href="#mfde5488436" y="224.64"/>
      </g>
     </g>
     <g id="text_7">
      <text style="font-family:Arial;font-size:10px;font-style:normal;font-weight:normal;text-anchor:middle;" transform="rotate(-0, 352.53766, 238.797812)" x="352.53766" y="238.797812">2</text>
     </g>
    </g>
    <g id="text_8">
     <text style="font-family:Arial;font-size:12px;font-style:normal;font-weight:normal;text-anchor:middle;" transform="rotate(-0, 207.983125, 253.520937)" x="207.983125" y="253.520937">Metab Log10(TbMCA_Trypto)</text>
    </g>
   </g>
   <g id="matplotlib.axis_2">
    <g id="ytick_1">
     <g id="line2d_8">
      <defs>
       <path d="M 0 0 
L -3.5 0 
" id="md1d8336292" style="stroke:#000000;stroke-width:0.8;"/>
      </defs>
      <g>
       <use style="stroke:#000000;stroke-width:0.8;" x="40.583125" xlink:href="#md1d8336292" y="212.73121"/>
      </g>
     </g>
     <g id="text_9">
      <text style="font-family:Arial;font-size:10px;font-style:normal;font-weight:normal;text-anchor:end;" transform="rotate(-0, 33.583125, 216.310116)" x="33.583125" y="216.310116">0</text>
     </g>
    </g>
    <g id="ytick_2">
     <g id="line2d_9">
      <g>
       <use style="stroke:#000000;stroke-width:0.8;" x="40.583125" xlink:href="#md1d8336292" y="174.855816"/>
      </g>
     </g>
     <g id="text_10">
      <text style="font-family:Arial;font-size:10px;font-style:normal;font-weight:normal;text-anchor:end;" transform="rotate(-0, 33.583125, 178.434723)" x="33.583125" y="178.434723">10</text>
     </g>
    </g>
    <g id="ytick_3">
     <g id="line2d_10">
      <g>
       <use style="stroke:#000000;stroke-width:0.8;" x="40.583125" xlink:href="#md1d8336292" y="136.980422"/>
      </g>
     </g>
     <g id="text_11">
      <text style="font-family:Arial;font-size:10px;font-style:normal;font-weight:normal;text-anchor:end;" transform="rotate(-0, 33.583125, 140.559329)" x="33.583125" y="140.559329">20</text>
     </g>
    </g>
    <g id="ytick_4">
     <g id="line2d_11">
      <g>
       <use style="stroke:#000000;stroke-width:0.8;" x="40.583125" xlink:href="#md1d8336292" y="99.105029"/>
      </g>
     </g>
     <g id="text_12">
      <text style="font-family:Arial;font-size:10px;font-style:normal;font-weight:normal;text-anchor:end;" transform="rotate(-0, 33.583125, 102.683935)" x="33.583125" y="102.683935">30</text>
     </g>
    </g>
    <g id="ytick_5">
     <g id="line2d_12">
      <g>
       <use style="stroke:#000000;stroke-width:0.8;" x="40.583125" xlink:href="#md1d8336292" y="61.229635"/>
      </g>
     </g>
     <g id="text_13">
      <text style="font-family:Arial;font-size:10px;font-style:normal;font-weight:normal;text-anchor:end;" transform="rotate(-0, 33.583125, 64.808541)" x="33.583125" y="64.808541">40</text>
     </g>
    </g>
    <g id="ytick_6">
     <g id="line2d_13">
      <g>
       <use style="stroke:#000000;stroke-width:0.8;" x="40.583125" xlink:href="#md1d8336292" y="23.354241"/>
      </g>
     </g>
     <g id="text_14">
      <text style="font-family:Arial;font-size:10px;font-style:normal;font-weight:normal;text-anchor:end;" transform="rotate(-0, 33.583125, 26.933147)" x="33.583125" y="26.933147">50</text>
     </g>
    </g>
    <g id="text_15">
     <text style="font-family:Arial;font-size:12px;font-style:normal;font-weight:normal;text-anchor:middle;" transform="rotate(-90, 15.935625, 115.92)" x="15.935625" y="115.92">%Lesion (PA)</text>
    </g>
   </g>
   <g id="line2d_14">
    <path clip-path="url(#pa3b6987a69)" d="M 40.583125 166.317167 
L 43.964943 165.566383 
L 47.346761 164.815599 
L 50.72858 164.064815 
L 54.110398 163.314031 
L 57.492216 162.563247 
L 60.874034 161.812464 
L 64.255852 161.06168 
L 67.63767 160.310896 
L 71.019489 159.560112 
L 74.401307 158.809328 
L 77.783125 158.058544 
L 81.164943 157.30776 
L 84.546761 156.556976 
L 87.92858 155.806192 
L 91.310398 155.055409 
L 94.692216 154.304625 
L 98.074034 153.553841 
L 101.455852 152.803057 
L 104.83767 152.052273 
L 108.219489 151.301489 
L 111.601307 150.550705 
L 114.983125 149.799921 
L 118.364943 149.049137 
L 121.746761 148.298354 
L 125.12858 147.54757 
L 128.510398 146.796786 
L 131.892216 146.046002 
L 135.274034 145.295218 
L 138.655852 144.544434 
L 142.03767 143.79365 
L 145.419489 143.042866 
L 148.801307 142.292082 
L 152.183125 141.541299 
L 155.564943 140.790515 
L 158.946761 140.039731 
L 162.32858 139.288947 
L 165.710398 138.538163 
L 169.092216 137.787379 
L 172.474034 137.036595 
L 175.855852 136.285811 
L 179.23767 135.535027 
L 182.619489 134.784244 
L 186.001307 134.03346 
L 189.383125 133.282676 
L 192.764943 132.531892 
L 196.146761 131.781108 
L 199.52858 131.030324 
L 202.910398 130.27954 
L 206.292216 129.528756 
L 209.674034 128.777972 
L 213.055852 128.027189 
L 216.43767 127.276405 
L 219.819489 126.525621 
L 223.201307 125.774837 
L 226.583125 125.024053 
L 229.964943 124.273269 
L 233.346761 123.522485 
L 236.72858 122.771701 
L 240.110398 122.020917 
L 243.492216 121.270134 
L 246.874034 120.51935 
L 250.255852 119.768566 
L 253.63767 119.017782 
L 257.019489 118.266998 
L 260.401307 117.516214 
L 263.783125 116.76543 
L 267.164943 116.014646 
L 270.546761 115.263862 
L 273.92858 114.513079 
L 277.310398 113.762295 
L 280.692216 113.011511 
L 284.074034 112.260727 
L 287.455852 111.509943 
L 290.83767 110.759159 
L 294.219489 110.008375 
L 297.601307 109.257591 
L 300.983125 108.506807 
L 304.364943 107.756024 
L 307.746761 107.00524 
L 311.12858 106.254456 
L 314.510398 105.503672 
L 317.892216 104.752888 
L 321.274034 104.002104 
L 324.655852 103.25132 
L 328.03767 102.500536 
L 331.419489 101.749752 
L 334.801307 100.998969 
L 338.183125 100.248185 
L 341.564943 99.497401 
L 344.946761 98.746617 
L 348.32858 97.995833 
L 351.710398 97.245049 
L 355.092216 96.494265 
L 358.474034 95.743481 
L 361.855852 94.992697 
L 365.23767 94.241914 
L 368.619489 93.49113 
L 372.001307 92.740346 
L 375.383125 91.989562 
" style="fill:none;stroke:#ff1493;stroke-linecap:square;stroke-width:2.25;"/>
   </g>
   <g id="patch_3">
    <path d="M 40.583125 224.64 
L 40.583125 7.2 
" style="fill:none;stroke:#000000;stroke-linecap:square;stroke-linejoin:miter;stroke-width:0.8;"/>
   </g>
   <g id="patch_4">
    <path d="M 375.383125 224.64 
L 375.383125 7.2 
" style="fill:none;stroke:#000000;stroke-linecap:square;stroke-linejoin:miter;stroke-width:0.8;"/>
   </g>
   <g id="patch_5">
    <path d="M 40.583125 224.64 
L 375.383125 224.64 
" style="fill:none;stroke:#000000;stroke-linecap:square;stroke-linejoin:miter;stroke-width:0.8;"/>
   </g>
   <g id="patch_6">
    <path d="M 40.583125 7.2 
L 375.383125 7.2 
" style="fill:none;stroke:#000000;stroke-linecap:square;stroke-linejoin:miter;stroke-width:0.8;"/>
   </g>
   <g id="legend_1">
    <g id="patch_7">
     <path d="M 47.583125 31.5 
L 192.683125 31.5 
Q 194.683125 31.5 194.683125 29.5 
L 194.683125 14.2 
Q 194.683125 12.2 192.683125 12.2 
L 47.583125 12.2 
Q 45.583125 12.2 45.583125 14.2 
L 45.583125 29.5 
Q 45.583125 31.5 47.583125 31.5 
z
" style="fill:#ffffff;opacity:0.8;stroke:#cccccc;stroke-linejoin:miter;"/>
    </g>
    <g id="line2d_15">
     <path d="M 49.583125 21.8 
L 69.583125 21.8 
" style="fill:none;stroke:#ff1493;stroke-linecap:square;stroke-width:2.25;"/>
    </g>
    <g id="line2d_16"/>
    <g id="text_16">
     <!-- y=2.2x+25.8,   $R^2=0.06$ -->
     <g transform="translate(77.583125 25.3)">
      <text>
       <tspan style="font-family:Arial;font-size:10px;font-style:regular;font-weight:regular;" x="0 5 10.839844 16.401367 19.179688 24.741211 29.741211 35.581055 41.142578 46.704102 49.482422 55.043945 57.822266 60.600586 63.378906" y="-0.9765625">y=2.2x+25.8,   </tspan>
       <tspan style="font-family:DejaVu Sans;font-size:10px;font-style:oblique;font-weight:oblique;" x="66.157227" y="-0.9765625">R</tspan>
       <tspan style="font-family:DejaVu Sans;font-size:7px;font-style:book;font-weight:book;" x="73.808021" y="-4.8046875">2</tspan>
       <tspan style="font-family:DejaVu Sans;font-size:10px;font-style:book;font-weight:book;" x="80.483314 90.810462 97.172767 100.351478 106.713783" y="-0.9765625">=0.06</tspan>
      </text>
     </g>
    </g>
   </g>
  </g>
 </g>
 <defs>
  <clipPath id="pa3b6987a69">
   <rect height="217.44" width="334.8" x="40.583125" y="7.2"/>
  </clipPath>
 </defs>
</svg>
