<?xml version="1.0" encoding="utf-8" standalone="no"?>
<!DOCTYPE svg PUBLIC "-//W3C//DTD SVG 1.1//EN"
  "http://www.w3.org/Graphics/SVG/1.1/DTD/svg11.dtd">
<!-- Created with matplotlib (https://matplotlib.org/) -->
<svg height="263.246562pt" version="1.1" viewBox="0 0 500.918438 263.246562" width="500.918438pt" xmlns="http://www.w3.org/2000/svg" xmlns:xlink="http://www.w3.org/1999/xlink">
 <defs>
  <style type="text/css">
*{stroke-linecap:butt;stroke-linejoin:round;}
  </style>
 </defs>
 <g id="figure_1">
  <g id="patch_1">
   <path d="M 0 263.246562 
L 500.918438 263.246562 
L 500.918438 0 
L 0 0 
z
" style="fill:#ffffff;"/>
  </g>
  <g id="axes_1">
   <g id="patch_2">
    <path d="M 40.583125 224.64 
L 375.383125 224.64 
L 375.383125 7.2 
L 40.583125 7.2 
z
" style="fill:#ffffff;"/>
   </g>
   <g id="PathCollection_1">
    <defs>
     <path d="M 0 3.872983 
C 1.027127 3.872983 2.012324 3.464901 2.738613 2.738613 
C 3.464901 2.012324 3.872983 1.027127 3.872983 0 
C 3.872983 -1.027127 3.464901 -2.012324 2.738613 -2.738613 
C 2.012324 -3.464901 1.027127 -3.872983 0 -3.872983 
C -1.027127 -3.872983 -2.012324 -3.464901 -2.738613 -2.738613 
C -3.464901 -2.012324 -3.872983 -1.027127 -3.872983 0 
C -3.872983 1.027127 -3.464901 2.012324 -2.738613 2.738613 
C -2.012324 3.464901 -1.027127 3.872983 0 3.872983 
z
" id="C0_0_f96ec1b4a9"/>
    </defs>
    <g clip-path="url(#p0d6749e0aa)">
     <use style="fill:#0000ff;stroke:#ffffff;stroke-width:0.75;" x="250.494386" xlink:href="#C0_0_f96ec1b4a9" y="43.916718"/>
    </g>
    <g clip-path="url(#p0d6749e0aa)">
     <use style="fill:#0000ff;stroke:#ffffff;stroke-width:0.75;" x="294.958909" xlink:href="#C0_0_f96ec1b4a9" y="54.160634"/>
    </g>
    <g clip-path="url(#p0d6749e0aa)">
     <use style="fill:#0000ff;stroke:#ffffff;stroke-width:0.75;" x="235.585717" xlink:href="#C0_0_f96ec1b4a9" y="42.921184"/>
    </g>
    <g clip-path="url(#p0d6749e0aa)">
     <use style="fill:#0000ff;stroke:#ffffff;stroke-width:0.75;" x="213.524252" xlink:href="#C0_0_f96ec1b4a9" y="67.579902"/>
    </g>
    <g clip-path="url(#p0d6749e0aa)">
     <use style="fill:#0000ff;stroke:#ffffff;stroke-width:0.75;" x="226.427626" xlink:href="#C0_0_f96ec1b4a9" y="56.27356"/>
    </g>
    <g clip-path="url(#p0d6749e0aa)">
     <use style="fill:#0000ff;stroke:#ffffff;stroke-width:0.75;" x="312.462804" xlink:href="#C0_0_f96ec1b4a9" y="110.688061"/>
    </g>
    <g clip-path="url(#p0d6749e0aa)">
     <use style="fill:#0000ff;stroke:#ffffff;stroke-width:0.75;" x="249.913467" xlink:href="#C0_0_f96ec1b4a9" y="17.166921"/>
    </g>
    <g clip-path="url(#p0d6749e0aa)">
     <use style="fill:#0000ff;stroke:#ffffff;stroke-width:0.75;" x="350.879783" xlink:href="#C0_0_f96ec1b4a9" y="82.110593"/>
    </g>
    <g clip-path="url(#p0d6749e0aa)">
     <use style="fill:#ff0000;stroke:#ffffff;stroke-width:0.75;" x="166.242386" xlink:href="#C0_0_f96ec1b4a9" y="162.149691"/>
    </g>
    <g clip-path="url(#p0d6749e0aa)">
     <use style="fill:#0000ff;stroke:#ffffff;stroke-width:0.75;" x="263.432331" xlink:href="#C0_0_f96ec1b4a9" y="105.804986"/>
    </g>
    <g clip-path="url(#p0d6749e0aa)">
     <use style="fill:#0000ff;stroke:#ffffff;stroke-width:0.75;" x="264.712655" xlink:href="#C0_0_f96ec1b4a9" y="46.716144"/>
    </g>
    <g clip-path="url(#p0d6749e0aa)">
     <use style="fill:#ff0000;stroke:#ffffff;stroke-width:0.75;" x="189.108132" xlink:href="#C0_0_f96ec1b4a9" y="129.751813"/>
    </g>
    <g clip-path="url(#p0d6749e0aa)">
     <use style="fill:#ff0000;stroke:#ffffff;stroke-width:0.75;" x="242.764134" xlink:href="#C0_0_f96ec1b4a9" y="106.032583"/>
    </g>
    <g clip-path="url(#p0d6749e0aa)">
     <use style="fill:#ff0000;stroke:#ffffff;stroke-width:0.75;" x="165.484078" xlink:href="#C0_0_f96ec1b4a9" y="186.03195"/>
    </g>
    <g clip-path="url(#p0d6749e0aa)">
     <use style="fill:#ff0000;stroke:#ffffff;stroke-width:0.75;" x="249.37812" xlink:href="#C0_0_f96ec1b4a9" y="104.261221"/>
    </g>
    <g clip-path="url(#p0d6749e0aa)">
     <use style="fill:#ff0000;stroke:#ffffff;stroke-width:0.75;" x="235.651399" xlink:href="#C0_0_f96ec1b4a9" y="159.701301"/>
    </g>
    <g clip-path="url(#p0d6749e0aa)">
     <use style="fill:#ff0000;stroke:#ffffff;stroke-width:0.75;" x="359.598739" xlink:href="#C0_0_f96ec1b4a9" y="169.211173"/>
    </g>
    <g clip-path="url(#p0d6749e0aa)">
     <use style="fill:#ff0000;stroke:#ffffff;stroke-width:0.75;" x="303.550227" xlink:href="#C0_0_f96ec1b4a9" y="112.967489"/>
    </g>
    <g clip-path="url(#p0d6749e0aa)">
     <use style="fill:#ff0000;stroke:#ffffff;stroke-width:0.75;" x="235.279464" xlink:href="#C0_0_f96ec1b4a9" y="214.141578"/>
    </g>
    <g clip-path="url(#p0d6749e0aa)">
     <use style="fill:#ff0000;stroke:#ffffff;stroke-width:0.75;" x="151.829781" xlink:href="#C0_0_f96ec1b4a9" y="185.381254"/>
    </g>
    <g clip-path="url(#p0d6749e0aa)">
     <use style="fill:#c0c0c0;stroke:#ffffff;stroke-width:0.75;" x="292.255141" xlink:href="#C0_0_f96ec1b4a9" y="211.043987"/>
    </g>
    <g clip-path="url(#p0d6749e0aa)">
     <use style="fill:#c0c0c0;stroke:#ffffff;stroke-width:0.75;" x="286.895949" xlink:href="#C0_0_f96ec1b4a9" y="173.428191"/>
    </g>
    <g clip-path="url(#p0d6749e0aa)">
     <use style="fill:#c0c0c0;stroke:#ffffff;stroke-width:0.75;" x="100.561719" xlink:href="#C0_0_f96ec1b4a9" y="214.673079"/>
    </g>
    <g clip-path="url(#p0d6749e0aa)">
     <use style="fill:#ff0000;stroke:#ffffff;stroke-width:0.75;" x="256.737722" xlink:href="#C0_0_f96ec1b4a9" y="135.147233"/>
    </g>
    <g clip-path="url(#p0d6749e0aa)">
     <use style="fill:#008000;stroke:#ffffff;stroke-width:0.75;" x="307.909984" xlink:href="#C0_0_f96ec1b4a9" y="149.608544"/>
    </g>
    <g clip-path="url(#p0d6749e0aa)">
     <use style="fill:#008000;stroke:#ffffff;stroke-width:0.75;" x="293.064908" xlink:href="#C0_0_f96ec1b4a9" y="128.751274"/>
    </g>
    <g clip-path="url(#p0d6749e0aa)">
     <use style="fill:#008000;stroke:#ffffff;stroke-width:0.75;" x="296.058933" xlink:href="#C0_0_f96ec1b4a9" y="137.16184"/>
    </g>
    <g clip-path="url(#p0d6749e0aa)">
     <use style="fill:#008000;stroke:#ffffff;stroke-width:0.75;" x="317.510222" xlink:href="#C0_0_f96ec1b4a9" y="139.843742"/>
    </g>
    <g clip-path="url(#p0d6749e0aa)">
     <use style="fill:#008000;stroke:#ffffff;stroke-width:0.75;" x="342.422637" xlink:href="#C0_0_f96ec1b4a9" y="125.062944"/>
    </g>
    <g clip-path="url(#p0d6749e0aa)">
     <use style="fill:#008000;stroke:#ffffff;stroke-width:0.75;" x="315.952889" xlink:href="#C0_0_f96ec1b4a9" y="72.332452"/>
    </g>
    <g clip-path="url(#p0d6749e0aa)">
     <use style="fill:#c0c0c0;stroke:#ffffff;stroke-width:0.75;" x="192.635208" xlink:href="#C0_0_f96ec1b4a9" y="158.067365"/>
    </g>
    <g clip-path="url(#p0d6749e0aa)">
     <use style="fill:#c0c0c0;stroke:#ffffff;stroke-width:0.75;" x="171.531638" xlink:href="#C0_0_f96ec1b4a9" y="196.693785"/>
    </g>
    <g clip-path="url(#p0d6749e0aa)">
     <use style="fill:#c0c0c0;stroke:#ffffff;stroke-width:0.75;" x="56.367511" xlink:href="#C0_0_f96ec1b4a9" y="150.584619"/>
    </g>
    <g clip-path="url(#p0d6749e0aa)">
     <use style="fill:#c0c0c0;stroke:#ffffff;stroke-width:0.75;" x="271.363542" xlink:href="#C0_0_f96ec1b4a9" y="202.757251"/>
    </g>
    <g clip-path="url(#p0d6749e0aa)">
     <use style="fill:#c0c0c0;stroke:#ffffff;stroke-width:0.75;" x="294.508219" xlink:href="#C0_0_f96ec1b4a9" y="163.420913"/>
    </g>
    <g clip-path="url(#p0d6749e0aa)">
     <use style="fill:#c0c0c0;stroke:#ffffff;stroke-width:0.75;" x="185.842998" xlink:href="#C0_0_f96ec1b4a9" y="182.357678"/>
    </g>
    <g clip-path="url(#p0d6749e0aa)">
     <use style="fill:#c0c0c0;stroke:#ffffff;stroke-width:0.75;" x="177.846641" xlink:href="#C0_0_f96ec1b4a9" y="187.256086"/>
    </g>
    <g clip-path="url(#p0d6749e0aa)">
     <use style="fill:#c0c0c0;stroke:#ffffff;stroke-width:0.75;" x="245.005008" xlink:href="#C0_0_f96ec1b4a9" y="190.573584"/>
    </g>
   </g>
   <g id="PathCollection_2"/>
   <g id="PathCollection_3"/>
   <g id="PathCollection_4"/>
   <g id="PathCollection_5"/>
   <g id="PathCollection_6"/>
   <g id="matplotlib.axis_1">
    <g id="xtick_1">
     <g id="line2d_1">
      <defs>
       <path d="M 0 0 
L 0 3.5 
" id="mcdf42293ea" style="stroke:#000000;stroke-width:0.8;"/>
      </defs>
      <g>
       <use style="stroke:#000000;stroke-width:0.8;" x="84.236277" xlink:href="#mcdf42293ea" y="224.64"/>
      </g>
     </g>
     <g id="text_1">
      <text style="font-family:Arial;font-size:10px;font-style:normal;font-weight:normal;text-anchor:middle;" transform="rotate(-0, 84.236277, 238.797812)" x="84.236277" y="238.797812">−2</text>
     </g>
    </g>
    <g id="xtick_2">
     <g id="line2d_2">
      <g>
       <use style="stroke:#000000;stroke-width:0.8;" x="128.732193" xlink:href="#mcdf42293ea" y="224.64"/>
      </g>
     </g>
     <g id="text_2">
      <text style="font-family:Arial;font-size:10px;font-style:normal;font-weight:normal;text-anchor:middle;" transform="rotate(-0, 128.732193, 238.797812)" x="128.732193" y="238.797812">−1</text>
     </g>
    </g>
    <g id="xtick_3">
     <g id="line2d_3">
      <g>
       <use style="stroke:#000000;stroke-width:0.8;" x="173.228108" xlink:href="#mcdf42293ea" y="224.64"/>
      </g>
     </g>
     <g id="text_3">
      <text style="font-family:Arial;font-size:10px;font-style:normal;font-weight:normal;text-anchor:middle;" transform="rotate(-0, 173.228108, 238.797812)" x="173.228108" y="238.797812">0</text>
     </g>
    </g>
    <g id="xtick_4">
     <g id="line2d_4">
      <g>
       <use style="stroke:#000000;stroke-width:0.8;" x="217.724023" xlink:href="#mcdf42293ea" y="224.64"/>
      </g>
     </g>
     <g id="text_4">
      <text style="font-family:Arial;font-size:10px;font-style:normal;font-weight:normal;text-anchor:middle;" transform="rotate(-0, 217.724023, 238.797812)" x="217.724023" y="238.797812">1</text>
     </g>
    </g>
    <g id="xtick_5">
     <g id="line2d_5">
      <g>
       <use style="stroke:#000000;stroke-width:0.8;" x="262.219938" xlink:href="#mcdf42293ea" y="224.64"/>
      </g>
     </g>
     <g id="text_5">
      <text style="font-family:Arial;font-size:10px;font-style:normal;font-weight:normal;text-anchor:middle;" transform="rotate(-0, 262.219938, 238.797812)" x="262.219938" y="238.797812">2</text>
     </g>
    </g>
    <g id="xtick_6">
     <g id="line2d_6">
      <g>
       <use style="stroke:#000000;stroke-width:0.8;" x="306.715853" xlink:href="#mcdf42293ea" y="224.64"/>
      </g>
     </g>
     <g id="text_6">
      <text style="font-family:Arial;font-size:10px;font-style:normal;font-weight:normal;text-anchor:middle;" transform="rotate(-0, 306.715853, 238.797812)" x="306.715853" y="238.797812">3</text>
     </g>
    </g>
    <g id="xtick_7">
     <g id="line2d_7">
      <g>
       <use style="stroke:#000000;stroke-width:0.8;" x="351.211768" xlink:href="#mcdf42293ea" y="224.64"/>
      </g>
     </g>
     <g id="text_7">
      <text style="font-family:Arial;font-size:10px;font-style:normal;font-weight:normal;text-anchor:middle;" transform="rotate(-0, 351.211768, 238.797812)" x="351.211768" y="238.797812">4</text>
     </g>
    </g>
    <g id="text_8">
     <text style="font-family:Arial;font-size:12px;font-style:normal;font-weight:normal;text-anchor:middle;" transform="rotate(-0, 207.983125, 253.520937)" x="207.983125" y="253.520937">Micro Log10(Verruco/Erysipelo)</text>
    </g>
   </g>
   <g id="matplotlib.axis_2">
    <g id="ytick_1">
     <g id="line2d_8">
      <defs>
       <path d="M 0 0 
L -3.5 0 
" id="m9a2678e0b7" style="stroke:#000000;stroke-width:0.8;"/>
      </defs>
      <g>
       <use style="stroke:#000000;stroke-width:0.8;" x="40.583125" xlink:href="#m9a2678e0b7" y="194.175917"/>
      </g>
     </g>
     <g id="text_9">
      <text style="font-family:Arial;font-size:10px;font-style:normal;font-weight:normal;text-anchor:end;" transform="rotate(-0, 33.583125, 197.754824)" x="33.583125" y="197.754824">10</text>
     </g>
    </g>
    <g id="ytick_2">
     <g id="line2d_9">
      <g>
       <use style="stroke:#000000;stroke-width:0.8;" x="40.583125" xlink:href="#m9a2678e0b7" y="151.668381"/>
      </g>
     </g>
     <g id="text_10">
      <text style="font-family:Arial;font-size:10px;font-style:normal;font-weight:normal;text-anchor:end;" transform="rotate(-0, 33.583125, 155.247287)" x="33.583125" y="155.247287">20</text>
     </g>
    </g>
    <g id="ytick_3">
     <g id="line2d_10">
      <g>
       <use style="stroke:#000000;stroke-width:0.8;" x="40.583125" xlink:href="#m9a2678e0b7" y="109.160844"/>
      </g>
     </g>
     <g id="text_11">
      <text style="font-family:Arial;font-size:10px;font-style:normal;font-weight:normal;text-anchor:end;" transform="rotate(-0, 33.583125, 112.73975)" x="33.583125" y="112.73975">30</text>
     </g>
    </g>
    <g id="ytick_4">
     <g id="line2d_11">
      <g>
       <use style="stroke:#000000;stroke-width:0.8;" x="40.583125" xlink:href="#m9a2678e0b7" y="66.653307"/>
      </g>
     </g>
     <g id="text_12">
      <text style="font-family:Arial;font-size:10px;font-style:normal;font-weight:normal;text-anchor:end;" transform="rotate(-0, 33.583125, 70.232213)" x="33.583125" y="70.232213">40</text>
     </g>
    </g>
    <g id="ytick_5">
     <g id="line2d_12">
      <g>
       <use style="stroke:#000000;stroke-width:0.8;" x="40.583125" xlink:href="#m9a2678e0b7" y="24.14577"/>
      </g>
     </g>
     <g id="text_13">
      <text style="font-family:Arial;font-size:10px;font-style:normal;font-weight:normal;text-anchor:end;" transform="rotate(-0, 33.583125, 27.724677)" x="33.583125" y="27.724677">50</text>
     </g>
    </g>
    <g id="text_14">
     <text style="font-family:Arial;font-size:12px;font-style:normal;font-weight:normal;text-anchor:middle;" transform="rotate(-90, 15.935625, 115.92)" x="15.935625" y="115.92">%Lesion (PA)</text>
    </g>
   </g>
   <g id="patch_3">
    <path d="M 40.583125 224.64 
L 40.583125 7.2 
" style="fill:none;stroke:#000000;stroke-linecap:square;stroke-linejoin:miter;stroke-width:0.8;"/>
   </g>
   <g id="patch_4">
    <path d="M 375.383125 224.64 
L 375.383125 7.2 
" style="fill:none;stroke:#000000;stroke-linecap:square;stroke-linejoin:miter;stroke-width:0.8;"/>
   </g>
   <g id="patch_5">
    <path d="M 40.583125 224.64 
L 375.383125 224.64 
" style="fill:none;stroke:#000000;stroke-linecap:square;stroke-linejoin:miter;stroke-width:0.8;"/>
   </g>
   <g id="patch_6">
    <path d="M 40.583125 7.2 
L 375.383125 7.2 
" style="fill:none;stroke:#000000;stroke-linecap:square;stroke-linejoin:miter;stroke-width:0.8;"/>
   </g>
   <g id="legend_1">
    <g id="patch_7">
     <path d="M 394.123125 81.04375 
L 491.718438 81.04375 
Q 493.718438 81.04375 493.718438 79.04375 
L 493.718438 9.2 
Q 493.718438 7.2 491.718438 7.2 
L 394.123125 7.2 
Q 392.123125 7.2 392.123125 9.2 
L 392.123125 79.04375 
Q 392.123125 81.04375 394.123125 81.04375 
z
" style="fill:#ffffff;opacity:0.8;stroke:#cccccc;stroke-linejoin:miter;"/>
    </g>
    <g id="PathCollection_7">
     <defs>
      <path id="m53f5c458b5" style="stroke:#ffffff;stroke-width:1.5;"/>
     </defs>
     <g>
      <use style="fill:#ffffff;stroke:#ffffff;stroke-width:1.5;" x="406.123125" xlink:href="#m53f5c458b5" y="15.732812"/>
     </g>
    </g>
    <g id="text_15">
     <text style="font-family:Arial;font-size:10px;font-style:normal;font-weight:normal;text-anchor:start;" transform="rotate(-0, 424.123125, 18.357812)" x="424.123125" y="18.357812">exposure_type</text>
    </g>
    <g id="PathCollection_8">
     <defs>
      <path d="M 0 3 
C 0.795609 3 1.55874 2.683901 2.12132 2.12132 
C 2.683901 1.55874 3 0.795609 3 0 
C 3 -0.795609 2.683901 -1.55874 2.12132 -2.12132 
C 1.55874 -2.683901 0.795609 -3 0 -3 
C -0.795609 -3 -1.55874 -2.683901 -2.12132 -2.12132 
C -2.683901 -1.55874 -3 -0.795609 -3 0 
C -3 0.795609 -2.683901 1.55874 -2.12132 2.12132 
C -1.55874 2.683901 -0.795609 3 0 3 
z
" id="m760ebff041" style="stroke:#0000ff;"/>
     </defs>
     <g>
      <use style="fill:#0000ff;stroke:#0000ff;" x="406.123125" xlink:href="#m760ebff041" y="29.995313"/>
     </g>
    </g>
    <g id="text_16">
     <text style="font-family:Arial;font-size:10px;font-style:normal;font-weight:normal;text-anchor:start;" transform="rotate(-0, 424.123125, 32.620313)" x="424.123125" y="32.620313">IH</text>
    </g>
    <g id="PathCollection_9">
     <defs>
      <path d="M 0 3 
C 0.795609 3 1.55874 2.683901 2.12132 2.12132 
C 2.683901 1.55874 3 0.795609 3 0 
C 3 -0.795609 2.683901 -1.55874 2.12132 -2.12132 
C 1.55874 -2.683901 0.795609 -3 0 -3 
C -0.795609 -3 -1.55874 -2.683901 -2.12132 -2.12132 
C -2.683901 -1.55874 -3 -0.795609 -3 0 
C -3 0.795609 -2.683901 1.55874 -2.12132 2.12132 
C -1.55874 2.683901 -0.795609 3 0 3 
z
" id="mee2b9c65b9" style="stroke:#ff0000;"/>
     </defs>
     <g>
      <use style="fill:#ff0000;stroke:#ff0000;" x="406.123125" xlink:href="#mee2b9c65b9" y="44.140625"/>
     </g>
    </g>
    <g id="text_17">
     <text style="font-family:Arial;font-size:10px;font-style:normal;font-weight:normal;text-anchor:start;" transform="rotate(-0, 424.123125, 46.765625)" x="424.123125" y="46.765625">IC</text>
    </g>
    <g id="PathCollection_10">
     <defs>
      <path d="M 0 3 
C 0.795609 3 1.55874 2.683901 2.12132 2.12132 
C 2.683901 1.55874 3 0.795609 3 0 
C 3 -0.795609 2.683901 -1.55874 2.12132 -2.12132 
C 1.55874 -2.683901 0.795609 -3 0 -3 
C -0.795609 -3 -1.55874 -2.683901 -2.12132 -2.12132 
C -2.683901 -1.55874 -3 -0.795609 -3 0 
C -3 0.795609 -2.683901 1.55874 -2.12132 2.12132 
C -1.55874 2.683901 -0.795609 3 0 3 
z
" id="mf73635f551" style="stroke:#c0c0c0;"/>
     </defs>
     <g>
      <use style="fill:#c0c0c0;stroke:#c0c0c0;" x="406.123125" xlink:href="#mf73635f551" y="58.285937"/>
     </g>
    </g>
    <g id="text_18">
     <text style="font-family:Arial;font-size:10px;font-style:normal;font-weight:normal;text-anchor:start;" transform="rotate(-0, 424.123125, 60.910937)" x="424.123125" y="60.910937">Air</text>
    </g>
    <g id="PathCollection_11">
     <defs>
      <path d="M 0 3 
C 0.795609 3 1.55874 2.683901 2.12132 2.12132 
C 2.683901 1.55874 3 0.795609 3 0 
C 3 -0.795609 2.683901 -1.55874 2.12132 -2.12132 
C 1.55874 -2.683901 0.795609 -3 0 -3 
C -0.795609 -3 -1.55874 -2.683901 -2.12132 -2.12132 
C -2.683901 -1.55874 -3 -0.795609 -3 0 
C -3 0.795609 -2.683901 1.55874 -2.12132 2.12132 
C -1.55874 2.683901 -0.795609 3 0 3 
z
" id="mbf326c95eb" style="stroke:#008000;"/>
     </defs>
     <g>
      <use style="fill:#008000;stroke:#008000;" x="406.123125" xlink:href="#mbf326c95eb" y="72.43125"/>
     </g>
    </g>
    <g id="text_19">
     <text style="font-family:Arial;font-size:10px;font-style:normal;font-weight:normal;text-anchor:start;" transform="rotate(-0, 424.123125, 75.05625)" x="424.123125" y="75.05625">IHC</text>
    </g>
   </g>
  </g>
 </g>
 <defs>
  <clipPath id="p0d6749e0aa">
   <rect height="217.44" width="334.8" x="40.583125" y="7.2"/>
  </clipPath>
 </defs>
</svg>
