<?xml version="1.0" encoding="utf-8" standalone="no"?>
<!DOCTYPE svg PUBLIC "-//W3C//DTD SVG 1.1//EN"
  "http://www.w3.org/Graphics/SVG/1.1/DTD/svg11.dtd">
<!-- Created with matplotlib (https://matplotlib.org/) -->
<svg height="263.246562pt" version="1.1" viewBox="0 0 500.918438 263.246562" width="500.918438pt" xmlns="http://www.w3.org/2000/svg" xmlns:xlink="http://www.w3.org/1999/xlink">
 <defs>
  <style type="text/css">
*{stroke-linecap:butt;stroke-linejoin:round;}
  </style>
 </defs>
 <g id="figure_1">
  <g id="patch_1">
   <path d="M 0 263.246562 
L 500.918438 263.246562 
L 500.918438 0 
L 0 0 
z
" style="fill:#ffffff;"/>
  </g>
  <g id="axes_1">
   <g id="patch_2">
    <path d="M 40.583125 224.64 
L 375.383125 224.64 
L 375.383125 7.2 
L 40.583125 7.2 
z
" style="fill:#ffffff;"/>
   </g>
   <g id="PathCollection_1">
    <defs>
     <path d="M 0 5 
C 1.326016 5 2.597899 4.473168 3.535534 3.535534 
C 4.473168 2.597899 5 1.326016 5 0 
C 5 -1.326016 4.473168 -2.597899 3.535534 -3.535534 
C 2.597899 -4.473168 1.326016 -5 0 -5 
C -1.326016 -5 -2.597899 -4.473168 -3.535534 -3.535534 
C -4.473168 -2.597899 -5 -1.326016 -5 0 
C -5 1.326016 -4.473168 2.597899 -3.535534 3.535534 
C -2.597899 4.473168 -1.326016 5 0 5 
z
" id="C0_0_6fa8cbedee"/>
    </defs>
    <g clip-path="url(#pbf9f188a27)">
     <use style="fill:#0000ff;stroke:#ffffff;stroke-width:0.75;" x="162.390964" xlink:href="#C0_0_6fa8cbedee" y="43.934369"/>
    </g>
    <g clip-path="url(#pbf9f188a27)">
     <use style="fill:#0000ff;stroke:#ffffff;stroke-width:0.75;" x="56.226505" xlink:href="#C0_0_6fa8cbedee" y="54.175774"/>
    </g>
    <g clip-path="url(#pbf9f188a27)">
     <use style="fill:#0000ff;stroke:#ffffff;stroke-width:0.75;" x="149.861383" xlink:href="#C0_0_6fa8cbedee" y="42.939079"/>
    </g>
    <g clip-path="url(#pbf9f188a27)">
     <use style="fill:#0000ff;stroke:#ffffff;stroke-width:0.75;" x="165.321554" xlink:href="#C0_0_6fa8cbedee" y="67.591752"/>
    </g>
    <g clip-path="url(#pbf9f188a27)">
     <use style="fill:#0000ff;stroke:#ffffff;stroke-width:0.75;" x="179.080827" xlink:href="#C0_0_6fa8cbedee" y="56.288182"/>
    </g>
    <g clip-path="url(#pbf9f188a27)">
     <use style="fill:#0000ff;stroke:#ffffff;stroke-width:0.75;" x="181.658767" xlink:href="#C0_0_6fa8cbedee" y="110.689343"/>
    </g>
    <g clip-path="url(#pbf9f188a27)">
     <use style="fill:#0000ff;stroke:#ffffff;stroke-width:0.75;" x="189.195459" xlink:href="#C0_0_6fa8cbedee" y="17.19113"/>
    </g>
    <g clip-path="url(#pbf9f188a27)">
     <use style="fill:#0000ff;stroke:#ffffff;stroke-width:0.75;" x="263.497081" xlink:href="#C0_0_6fa8cbedee" y="82.118881"/>
    </g>
    <g clip-path="url(#pbf9f188a27)">
     <use style="fill:#ff0000;stroke:#ffffff;stroke-width:0.75;" x="165.849957" xlink:href="#C0_0_6fa8cbedee" y="162.138358"/>
    </g>
    <g clip-path="url(#pbf9f188a27)">
     <use style="fill:#0000ff;stroke:#ffffff;stroke-width:0.75;" x="190.483642" xlink:href="#C0_0_6fa8cbedee" y="105.807465"/>
    </g>
    <g clip-path="url(#pbf9f188a27)">
     <use style="fill:#0000ff;stroke:#ffffff;stroke-width:0.75;" x="218.165168" xlink:href="#C0_0_6fa8cbedee" y="46.733109"/>
    </g>
    <g clip-path="url(#pbf9f188a27)">
     <use style="fill:#ff0000;stroke:#ffffff;stroke-width:0.75;" x="177.612634" xlink:href="#C0_0_6fa8cbedee" y="129.748422"/>
    </g>
    <g clip-path="url(#pbf9f188a27)">
     <use style="fill:#ff0000;stroke:#ffffff;stroke-width:0.75;" x="193.445558" xlink:href="#C0_0_6fa8cbedee" y="106.035007"/>
    </g>
    <g clip-path="url(#pbf9f188a27)">
     <use style="fill:#ff0000;stroke:#ffffff;stroke-width:0.75;" x="163.367894" xlink:href="#C0_0_6fa8cbedee" y="186.014762"/>
    </g>
    <g clip-path="url(#pbf9f188a27)">
     <use style="fill:#ff0000;stroke:#ffffff;stroke-width:0.75;" x="180.362894" xlink:href="#C0_0_6fa8cbedee" y="104.264079"/>
    </g>
    <g clip-path="url(#pbf9f188a27)">
     <use style="fill:#ff0000;stroke:#ffffff;stroke-width:0.75;" x="200.681857" xlink:href="#C0_0_6fa8cbedee" y="159.690568"/>
    </g>
    <g clip-path="url(#pbf9f188a27)">
     <use style="fill:#ff0000;stroke:#ffffff;stroke-width:0.75;" x="58.899182" xlink:href="#C0_0_6fa8cbedee" y="169.198109"/>
    </g>
    <g clip-path="url(#pbf9f188a27)">
     <use style="fill:#ff0000;stroke:#ffffff;stroke-width:0.75;" x="236.082581" xlink:href="#C0_0_6fa8cbedee" y="112.968213"/>
    </g>
    <g clip-path="url(#pbf9f188a27)">
     <use style="fill:#ff0000;stroke:#ffffff;stroke-width:0.75;" x="144.774559" xlink:href="#C0_0_6fa8cbedee" y="214.1175"/>
    </g>
    <g clip-path="url(#pbf9f188a27)">
     <use style="fill:#ff0000;stroke:#ffffff;stroke-width:0.75;" x="161.420727" xlink:href="#C0_0_6fa8cbedee" y="185.364226"/>
    </g>
    <g clip-path="url(#pbf9f188a27)">
     <use style="fill:#c0c0c0;stroke:#ffffff;stroke-width:0.75;" x="150.189271" xlink:href="#C0_0_6fa8cbedee" y="211.020668"/>
    </g>
    <g clip-path="url(#pbf9f188a27)">
     <use style="fill:#c0c0c0;stroke:#ffffff;stroke-width:0.75;" x="213.679318" xlink:href="#C0_0_6fa8cbedee" y="173.414093"/>
    </g>
    <g clip-path="url(#pbf9f188a27)">
     <use style="fill:#c0c0c0;stroke:#ffffff;stroke-width:0.75;" x="125.756264" xlink:href="#C0_0_6fa8cbedee" y="214.64887"/>
    </g>
    <g clip-path="url(#pbf9f188a27)">
     <use style="fill:#ff0000;stroke:#ffffff;stroke-width:0.75;" x="201.136647" xlink:href="#C0_0_6fa8cbedee" y="135.142519"/>
    </g>
    <g clip-path="url(#pbf9f188a27)">
     <use style="fill:#008000;stroke:#ffffff;stroke-width:0.75;" x="249.607367" xlink:href="#C0_0_6fa8cbedee" y="149.600285"/>
    </g>
    <g clip-path="url(#pbf9f188a27)">
     <use style="fill:#008000;stroke:#ffffff;stroke-width:0.75;" x="261.053518" xlink:href="#C0_0_6fa8cbedee" y="128.748128"/>
    </g>
    <g clip-path="url(#pbf9f188a27)">
     <use style="fill:#008000;stroke:#ffffff;stroke-width:0.75;" x="273.423655" xlink:href="#C0_0_6fa8cbedee" y="137.156633"/>
    </g>
    <g clip-path="url(#pbf9f188a27)">
     <use style="fill:#008000;stroke:#ffffff;stroke-width:0.75;" x="222.487084" xlink:href="#C0_0_6fa8cbedee" y="139.837877"/>
    </g>
    <g clip-path="url(#pbf9f188a27)">
     <use style="fill:#008000;stroke:#ffffff;stroke-width:0.75;" x="359.739745" xlink:href="#C0_0_6fa8cbedee" y="125.060702"/>
    </g>
    <g clip-path="url(#pbf9f188a27)">
     <use style="fill:#008000;stroke:#ffffff;stroke-width:0.75;" x="248.864455" xlink:href="#C0_0_6fa8cbedee" y="72.343137"/>
    </g>
    <g clip-path="url(#pbf9f188a27)">
     <use style="fill:#c0c0c0;stroke:#ffffff;stroke-width:0.75;" x="177.61344" xlink:href="#C0_0_6fa8cbedee" y="158.057032"/>
    </g>
    <g clip-path="url(#pbf9f188a27)">
     <use style="fill:#c0c0c0;stroke:#ffffff;stroke-width:0.75;" x="164.005756" xlink:href="#C0_0_6fa8cbedee" y="196.673984"/>
    </g>
    <g clip-path="url(#pbf9f188a27)">
     <use style="fill:#c0c0c0;stroke:#ffffff;stroke-width:0.75;" x="132.885251" xlink:href="#C0_0_6fa8cbedee" y="150.576121"/>
    </g>
    <g clip-path="url(#pbf9f188a27)">
     <use style="fill:#c0c0c0;stroke:#ffffff;stroke-width:0.75;" x="183.450606" xlink:href="#C0_0_6fa8cbedee" y="202.735963"/>
    </g>
    <g clip-path="url(#pbf9f188a27)">
     <use style="fill:#c0c0c0;stroke:#ffffff;stroke-width:0.75;" x="177.108335" xlink:href="#C0_0_6fa8cbedee" y="163.409268"/>
    </g>
    <g clip-path="url(#pbf9f188a27)">
     <use style="fill:#c0c0c0;stroke:#ffffff;stroke-width:0.75;" x="170.477553" xlink:href="#C0_0_6fa8cbedee" y="182.341391"/>
    </g>
    <g clip-path="url(#pbf9f188a27)">
     <use style="fill:#c0c0c0;stroke:#ffffff;stroke-width:0.75;" x="162.796752" xlink:href="#C0_0_6fa8cbedee" y="187.238598"/>
    </g>
    <g clip-path="url(#pbf9f188a27)">
     <use style="fill:#c0c0c0;stroke:#ffffff;stroke-width:0.75;" x="151.897223" xlink:href="#C0_0_6fa8cbedee" y="190.555283"/>
    </g>
   </g>
   <g id="PathCollection_2"/>
   <g id="PathCollection_3"/>
   <g id="PathCollection_4"/>
   <g id="PathCollection_5"/>
   <g id="PathCollection_6"/>
   <g id="matplotlib.axis_1">
    <g id="xtick_1">
     <g id="line2d_1">
      <defs>
       <path d="M 0 0 
L 0 3.5 
" id="mfdb01b5d11" style="stroke:#000000;stroke-width:0.8;"/>
      </defs>
      <g>
       <use style="stroke:#000000;stroke-width:0.8;" x="60.921216" xlink:href="#mfdb01b5d11" y="224.64"/>
      </g>
     </g>
     <g id="text_1">
      <text style="font-family:Arial;font-size:10px;font-style:normal;font-weight:normal;text-anchor:middle;" transform="rotate(-0, 60.921216, 238.797812)" x="60.921216" y="238.797812">−4</text>
     </g>
    </g>
    <g id="xtick_2">
     <g id="line2d_2">
      <g>
       <use style="stroke:#000000;stroke-width:0.8;" x="112.687123" xlink:href="#mfdb01b5d11" y="224.64"/>
      </g>
     </g>
     <g id="text_2">
      <text style="font-family:Arial;font-size:10px;font-style:normal;font-weight:normal;text-anchor:middle;" transform="rotate(-0, 112.687123, 238.797812)" x="112.687123" y="238.797812">−2</text>
     </g>
    </g>
    <g id="xtick_3">
     <g id="line2d_3">
      <g>
       <use style="stroke:#000000;stroke-width:0.8;" x="164.45303" xlink:href="#mfdb01b5d11" y="224.64"/>
      </g>
     </g>
     <g id="text_3">
      <text style="font-family:Arial;font-size:10px;font-style:normal;font-weight:normal;text-anchor:middle;" transform="rotate(-0, 164.45303, 238.797812)" x="164.45303" y="238.797812">0</text>
     </g>
    </g>
    <g id="xtick_4">
     <g id="line2d_4">
      <g>
       <use style="stroke:#000000;stroke-width:0.8;" x="216.218937" xlink:href="#mfdb01b5d11" y="224.64"/>
      </g>
     </g>
     <g id="text_4">
      <text style="font-family:Arial;font-size:10px;font-style:normal;font-weight:normal;text-anchor:middle;" transform="rotate(-0, 216.218937, 238.797812)" x="216.218937" y="238.797812">2</text>
     </g>
    </g>
    <g id="xtick_5">
     <g id="line2d_5">
      <g>
       <use style="stroke:#000000;stroke-width:0.8;" x="267.984844" xlink:href="#mfdb01b5d11" y="224.64"/>
      </g>
     </g>
     <g id="text_5">
      <text style="font-family:Arial;font-size:10px;font-style:normal;font-weight:normal;text-anchor:middle;" transform="rotate(-0, 267.984844, 238.797812)" x="267.984844" y="238.797812">4</text>
     </g>
    </g>
    <g id="xtick_6">
     <g id="line2d_6">
      <g>
       <use style="stroke:#000000;stroke-width:0.8;" x="319.75075" xlink:href="#mfdb01b5d11" y="224.64"/>
      </g>
     </g>
     <g id="text_6">
      <text style="font-family:Arial;font-size:10px;font-style:normal;font-weight:normal;text-anchor:middle;" transform="rotate(-0, 319.75075, 238.797812)" x="319.75075" y="238.797812">6</text>
     </g>
    </g>
    <g id="xtick_7">
     <g id="line2d_7">
      <g>
       <use style="stroke:#000000;stroke-width:0.8;" x="371.516657" xlink:href="#mfdb01b5d11" y="224.64"/>
      </g>
     </g>
     <g id="text_7">
      <text style="font-family:Arial;font-size:10px;font-style:normal;font-weight:normal;text-anchor:middle;" transform="rotate(-0, 371.516657, 238.797812)" x="371.516657" y="238.797812">8</text>
     </g>
    </g>
    <g id="text_8">
     <text style="font-family:Arial;font-size:12px;font-style:normal;font-weight:normal;text-anchor:middle;" transform="rotate(-0, 207.983125, 253.520937)" x="207.983125" y="253.520937">Log(Verruco/Erysipelo) * Log(TbMCA+LPC+LPE/Trypto+carn+UDCA)</text>
    </g>
   </g>
   <g id="matplotlib.axis_2">
    <g id="ytick_1">
     <g id="line2d_8">
      <defs>
       <path d="M 0 0 
L -3.5 0 
" id="mb7f069115d" style="stroke:#000000;stroke-width:0.8;"/>
      </defs>
      <g>
       <use style="stroke:#000000;stroke-width:0.8;" x="40.583125" xlink:href="#mb7f069115d" y="194.156733"/>
      </g>
     </g>
     <g id="text_9">
      <text style="font-family:Arial;font-size:10px;font-style:normal;font-weight:normal;text-anchor:end;" transform="rotate(-0, 33.583125, 197.735639)" x="33.583125" y="197.735639">10</text>
     </g>
    </g>
    <g id="ytick_2">
     <g id="line2d_9">
      <g>
       <use style="stroke:#000000;stroke-width:0.8;" x="40.583125" xlink:href="#mb7f069115d" y="151.659617"/>
      </g>
     </g>
     <g id="text_10">
      <text style="font-family:Arial;font-size:10px;font-style:normal;font-weight:normal;text-anchor:end;" transform="rotate(-0, 33.583125, 155.238523)" x="33.583125" y="155.238523">20</text>
     </g>
    </g>
    <g id="ytick_3">
     <g id="line2d_10">
      <g>
       <use style="stroke:#000000;stroke-width:0.8;" x="40.583125" xlink:href="#mb7f069115d" y="109.162501"/>
      </g>
     </g>
     <g id="text_11">
      <text style="font-family:Arial;font-size:10px;font-style:normal;font-weight:normal;text-anchor:end;" transform="rotate(-0, 33.583125, 112.741407)" x="33.583125" y="112.741407">30</text>
     </g>
    </g>
    <g id="ytick_4">
     <g id="line2d_11">
      <g>
       <use style="stroke:#000000;stroke-width:0.8;" x="40.583125" xlink:href="#mb7f069115d" y="66.665385"/>
      </g>
     </g>
     <g id="text_12">
      <text style="font-family:Arial;font-size:10px;font-style:normal;font-weight:normal;text-anchor:end;" transform="rotate(-0, 33.583125, 70.244291)" x="33.583125" y="70.244291">40</text>
     </g>
    </g>
    <g id="ytick_5">
     <g id="line2d_12">
      <g>
       <use style="stroke:#000000;stroke-width:0.8;" x="40.583125" xlink:href="#mb7f069115d" y="24.168268"/>
      </g>
     </g>
     <g id="text_13">
      <text style="font-family:Arial;font-size:10px;font-style:normal;font-weight:normal;text-anchor:end;" transform="rotate(-0, 33.583125, 27.747175)" x="33.583125" y="27.747175">50</text>
     </g>
    </g>
    <g id="text_14">
     <text style="font-family:Arial;font-size:12px;font-style:normal;font-weight:normal;text-anchor:middle;" transform="rotate(-90, 15.935625, 115.92)" x="15.935625" y="115.92">%Lesion (PA)</text>
    </g>
   </g>
   <g id="patch_3">
    <path d="M 40.583125 224.64 
L 40.583125 7.2 
" style="fill:none;stroke:#000000;stroke-linecap:square;stroke-linejoin:miter;stroke-width:0.8;"/>
   </g>
   <g id="patch_4">
    <path d="M 375.383125 224.64 
L 375.383125 7.2 
" style="fill:none;stroke:#000000;stroke-linecap:square;stroke-linejoin:miter;stroke-width:0.8;"/>
   </g>
   <g id="patch_5">
    <path d="M 40.583125 224.64 
L 375.383125 224.64 
" style="fill:none;stroke:#000000;stroke-linecap:square;stroke-linejoin:miter;stroke-width:0.8;"/>
   </g>
   <g id="patch_6">
    <path d="M 40.583125 7.2 
L 375.383125 7.2 
" style="fill:none;stroke:#000000;stroke-linecap:square;stroke-linejoin:miter;stroke-width:0.8;"/>
   </g>
   <g id="legend_1">
    <g id="patch_7">
     <path d="M 394.123125 81.04375 
L 491.718438 81.04375 
Q 493.718438 81.04375 493.718438 79.04375 
L 493.718438 9.2 
Q 493.718438 7.2 491.718438 7.2 
L 394.123125 7.2 
Q 392.123125 7.2 392.123125 9.2 
L 392.123125 79.04375 
Q 392.123125 81.04375 394.123125 81.04375 
z
" style="fill:#ffffff;opacity:0.8;stroke:#cccccc;stroke-linejoin:miter;"/>
    </g>
    <g id="PathCollection_7">
     <defs>
      <path id="mfb2b7fafb2" style="stroke:#ffffff;stroke-width:1.5;"/>
     </defs>
     <g>
      <use style="fill:#ffffff;stroke:#ffffff;stroke-width:1.5;" x="406.123125" xlink:href="#mfb2b7fafb2" y="15.732812"/>
     </g>
    </g>
    <g id="text_15">
     <text style="font-family:Arial;font-size:10px;font-style:normal;font-weight:normal;text-anchor:start;" transform="rotate(-0, 424.123125, 18.357812)" x="424.123125" y="18.357812">exposure_type</text>
    </g>
    <g id="PathCollection_8">
     <defs>
      <path d="M 0 3 
C 0.795609 3 1.55874 2.683901 2.12132 2.12132 
C 2.683901 1.55874 3 0.795609 3 0 
C 3 -0.795609 2.683901 -1.55874 2.12132 -2.12132 
C 1.55874 -2.683901 0.795609 -3 0 -3 
C -0.795609 -3 -1.55874 -2.683901 -2.12132 -2.12132 
C -2.683901 -1.55874 -3 -0.795609 -3 0 
C -3 0.795609 -2.683901 1.55874 -2.12132 2.12132 
C -1.55874 2.683901 -0.795609 3 0 3 
z
" id="m73ad892d95" style="stroke:#0000ff;"/>
     </defs>
     <g>
      <use style="fill:#0000ff;stroke:#0000ff;" x="406.123125" xlink:href="#m73ad892d95" y="29.995313"/>
     </g>
    </g>
    <g id="text_16">
     <text style="font-family:Arial;font-size:10px;font-style:normal;font-weight:normal;text-anchor:start;" transform="rotate(-0, 424.123125, 32.620313)" x="424.123125" y="32.620313">IH</text>
    </g>
    <g id="PathCollection_9">
     <defs>
      <path d="M 0 3 
C 0.795609 3 1.55874 2.683901 2.12132 2.12132 
C 2.683901 1.55874 3 0.795609 3 0 
C 3 -0.795609 2.683901 -1.55874 2.12132 -2.12132 
C 1.55874 -2.683901 0.795609 -3 0 -3 
C -0.795609 -3 -1.55874 -2.683901 -2.12132 -2.12132 
C -2.683901 -1.55874 -3 -0.795609 -3 0 
C -3 0.795609 -2.683901 1.55874 -2.12132 2.12132 
C -1.55874 2.683901 -0.795609 3 0 3 
z
" id="me2afe9380c" style="stroke:#ff0000;"/>
     </defs>
     <g>
      <use style="fill:#ff0000;stroke:#ff0000;" x="406.123125" xlink:href="#me2afe9380c" y="44.140625"/>
     </g>
    </g>
    <g id="text_17">
     <text style="font-family:Arial;font-size:10px;font-style:normal;font-weight:normal;text-anchor:start;" transform="rotate(-0, 424.123125, 46.765625)" x="424.123125" y="46.765625">IC</text>
    </g>
    <g id="PathCollection_10">
     <defs>
      <path d="M 0 3 
C 0.795609 3 1.55874 2.683901 2.12132 2.12132 
C 2.683901 1.55874 3 0.795609 3 0 
C 3 -0.795609 2.683901 -1.55874 2.12132 -2.12132 
C 1.55874 -2.683901 0.795609 -3 0 -3 
C -0.795609 -3 -1.55874 -2.683901 -2.12132 -2.12132 
C -2.683901 -1.55874 -3 -0.795609 -3 0 
C -3 0.795609 -2.683901 1.55874 -2.12132 2.12132 
C -1.55874 2.683901 -0.795609 3 0 3 
z
" id="mbdd885f4b0" style="stroke:#c0c0c0;"/>
     </defs>
     <g>
      <use style="fill:#c0c0c0;stroke:#c0c0c0;" x="406.123125" xlink:href="#mbdd885f4b0" y="58.285937"/>
     </g>
    </g>
    <g id="text_18">
     <text style="font-family:Arial;font-size:10px;font-style:normal;font-weight:normal;text-anchor:start;" transform="rotate(-0, 424.123125, 60.910937)" x="424.123125" y="60.910937">Air</text>
    </g>
    <g id="PathCollection_11">
     <defs>
      <path d="M 0 3 
C 0.795609 3 1.55874 2.683901 2.12132 2.12132 
C 2.683901 1.55874 3 0.795609 3 0 
C 3 -0.795609 2.683901 -1.55874 2.12132 -2.12132 
C 1.55874 -2.683901 0.795609 -3 0 -3 
C -0.795609 -3 -1.55874 -2.683901 -2.12132 -2.12132 
C -2.683901 -1.55874 -3 -0.795609 -3 0 
C -3 0.795609 -2.683901 1.55874 -2.12132 2.12132 
C -1.55874 2.683901 -0.795609 3 0 3 
z
" id="m0123a17e9a" style="stroke:#008000;"/>
     </defs>
     <g>
      <use style="fill:#008000;stroke:#008000;" x="406.123125" xlink:href="#m0123a17e9a" y="72.43125"/>
     </g>
    </g>
    <g id="text_19">
     <text style="font-family:Arial;font-size:10px;font-style:normal;font-weight:normal;text-anchor:start;" transform="rotate(-0, 424.123125, 75.05625)" x="424.123125" y="75.05625">IHC</text>
    </g>
   </g>
  </g>
 </g>
 <defs>
  <clipPath id="pbf9f188a27">
   <rect height="217.44" width="334.8" x="40.583125" y="7.2"/>
  </clipPath>
 </defs>
</svg>
