<?xml version="1.0" encoding="utf-8" standalone="no"?>
<!DOCTYPE svg PUBLIC "-//W3C//DTD SVG 1.1//EN"
  "http://www.w3.org/Graphics/SVG/1.1/DTD/svg11.dtd">
<!-- Created with matplotlib (https://matplotlib.org/) -->
<svg height="263.246562pt" version="1.1" viewBox="0 0 500.918438 263.246562" width="500.918438pt" xmlns="http://www.w3.org/2000/svg" xmlns:xlink="http://www.w3.org/1999/xlink">
 <defs>
  <style type="text/css">
*{stroke-linecap:butt;stroke-linejoin:round;}
  </style>
 </defs>
 <g id="figure_1">
  <g id="patch_1">
   <path d="M 0 263.246562 
L 500.918438 263.246562 
L 500.918438 0 
L 0 0 
z
" style="fill:#ffffff;"/>
  </g>
  <g id="axes_1">
   <g id="patch_2">
    <path d="M 40.583125 224.64 
L 375.383125 224.64 
L 375.383125 7.2 
L 40.583125 7.2 
z
" style="fill:#ffffff;"/>
   </g>
   <g id="PathCollection_1">
    <defs>
     <path d="M 0 5 
C 1.326016 5 2.597899 4.473168 3.535534 3.535534 
C 4.473168 2.597899 5 1.326016 5 0 
C 5 -1.326016 4.473168 -2.597899 3.535534 -3.535534 
C 2.597899 -4.473168 1.326016 -5 0 -5 
C -1.326016 -5 -2.597899 -4.473168 -3.535534 -3.535534 
C -4.473168 -2.597899 -5 -1.326016 -5 0 
C -5 1.326016 -4.473168 2.597899 -3.535534 3.535534 
C -2.597899 4.473168 -1.326016 5 0 5 
z
" id="C0_0_d73bbafac6"/>
    </defs>
    <g clip-path="url(#pf4f294ac40)">
     <use style="fill:#0000ff;stroke:#ffffff;stroke-width:0.75;" x="162.390964" xlink:href="#C0_0_d73bbafac6" y="130.485125"/>
    </g>
    <g clip-path="url(#pf4f294ac40)">
     <use style="fill:#0000ff;stroke:#ffffff;stroke-width:0.75;" x="56.226505" xlink:href="#C0_0_d73bbafac6" y="152.172822"/>
    </g>
    <g clip-path="url(#pf4f294ac40)">
     <use style="fill:#0000ff;stroke:#ffffff;stroke-width:0.75;" x="149.861383" xlink:href="#C0_0_d73bbafac6" y="172.754406"/>
    </g>
    <g clip-path="url(#pf4f294ac40)">
     <use style="fill:#0000ff;stroke:#ffffff;stroke-width:0.75;" x="165.321554" xlink:href="#C0_0_d73bbafac6" y="188.185245"/>
    </g>
    <g clip-path="url(#pf4f294ac40)">
     <use style="fill:#0000ff;stroke:#ffffff;stroke-width:0.75;" x="179.080827" xlink:href="#C0_0_d73bbafac6" y="177.288003"/>
    </g>
    <g clip-path="url(#pf4f294ac40)">
     <use style="fill:#0000ff;stroke:#ffffff;stroke-width:0.75;" x="181.658767" xlink:href="#C0_0_d73bbafac6" y="164.589687"/>
    </g>
    <g clip-path="url(#pf4f294ac40)">
     <use style="fill:#0000ff;stroke:#ffffff;stroke-width:0.75;" x="189.195459" xlink:href="#C0_0_d73bbafac6" y="142.437158"/>
    </g>
    <g clip-path="url(#pf4f294ac40)">
     <use style="fill:#0000ff;stroke:#ffffff;stroke-width:0.75;" x="263.497081" xlink:href="#C0_0_d73bbafac6" y="180.078382"/>
    </g>
    <g clip-path="url(#pf4f294ac40)">
     <use style="fill:#ff0000;stroke:#ffffff;stroke-width:0.75;" x="165.849957" xlink:href="#C0_0_d73bbafac6" y="125.60194"/>
    </g>
    <g clip-path="url(#pf4f294ac40)">
     <use style="fill:#0000ff;stroke:#ffffff;stroke-width:0.75;" x="190.483642" xlink:href="#C0_0_d73bbafac6" y="192.925989"/>
    </g>
    <g clip-path="url(#pf4f294ac40)">
     <use style="fill:#0000ff;stroke:#ffffff;stroke-width:0.75;" x="218.165168" xlink:href="#C0_0_d73bbafac6" y="177.492316"/>
    </g>
    <g clip-path="url(#pf4f294ac40)">
     <use style="fill:#ff0000;stroke:#ffffff;stroke-width:0.75;" x="177.612634" xlink:href="#C0_0_d73bbafac6" y="167.808255"/>
    </g>
    <g clip-path="url(#pf4f294ac40)">
     <use style="fill:#ff0000;stroke:#ffffff;stroke-width:0.75;" x="193.445558" xlink:href="#C0_0_d73bbafac6" y="130.980142"/>
    </g>
    <g clip-path="url(#pf4f294ac40)">
     <use style="fill:#ff0000;stroke:#ffffff;stroke-width:0.75;" x="163.367894" xlink:href="#C0_0_d73bbafac6" y="142.673245"/>
    </g>
    <g clip-path="url(#pf4f294ac40)">
     <use style="fill:#ff0000;stroke:#ffffff;stroke-width:0.75;" x="180.362894" xlink:href="#C0_0_d73bbafac6" y="103.298338"/>
    </g>
    <g clip-path="url(#pf4f294ac40)">
     <use style="fill:#ff0000;stroke:#ffffff;stroke-width:0.75;" x="200.681857" xlink:href="#C0_0_d73bbafac6" y="65.054506"/>
    </g>
    <g clip-path="url(#pf4f294ac40)">
     <use style="fill:#ff0000;stroke:#ffffff;stroke-width:0.75;" x="58.899182" xlink:href="#C0_0_d73bbafac6" y="81.590911"/>
    </g>
    <g clip-path="url(#pf4f294ac40)">
     <use style="fill:#ff0000;stroke:#ffffff;stroke-width:0.75;" x="236.082581" xlink:href="#C0_0_d73bbafac6" y="104.578637"/>
    </g>
    <g clip-path="url(#pf4f294ac40)">
     <use style="fill:#ff0000;stroke:#ffffff;stroke-width:0.75;" x="144.774559" xlink:href="#C0_0_d73bbafac6" y="129.739879"/>
    </g>
    <g clip-path="url(#pf4f294ac40)">
     <use style="fill:#ff0000;stroke:#ffffff;stroke-width:0.75;" x="161.420727" xlink:href="#C0_0_d73bbafac6" y="159.298584"/>
    </g>
    <g clip-path="url(#pf4f294ac40)">
     <use style="fill:#c0c0c0;stroke:#ffffff;stroke-width:0.75;" x="150.189271" xlink:href="#C0_0_d73bbafac6" y="199.448363"/>
    </g>
    <g clip-path="url(#pf4f294ac40)">
     <use style="fill:#c0c0c0;stroke:#ffffff;stroke-width:0.75;" x="213.679318" xlink:href="#C0_0_d73bbafac6" y="214.407352"/>
    </g>
    <g clip-path="url(#pf4f294ac40)">
     <use style="fill:#c0c0c0;stroke:#ffffff;stroke-width:0.75;" x="125.756264" xlink:href="#C0_0_d73bbafac6" y="183.869002"/>
    </g>
    <g clip-path="url(#pf4f294ac40)">
     <use style="fill:#ff0000;stroke:#ffffff;stroke-width:0.75;" x="201.136647" xlink:href="#C0_0_d73bbafac6" y="103.815874"/>
    </g>
    <g clip-path="url(#pf4f294ac40)">
     <use style="fill:#008000;stroke:#ffffff;stroke-width:0.75;" x="249.607367" xlink:href="#C0_0_d73bbafac6" y="74.296863"/>
    </g>
    <g clip-path="url(#pf4f294ac40)">
     <use style="fill:#008000;stroke:#ffffff;stroke-width:0.75;" x="261.053518" xlink:href="#C0_0_d73bbafac6" y="133.217628"/>
    </g>
    <g clip-path="url(#pf4f294ac40)">
     <use style="fill:#008000;stroke:#ffffff;stroke-width:0.75;" x="273.423655" xlink:href="#C0_0_d73bbafac6" y="129.239117"/>
    </g>
    <g clip-path="url(#pf4f294ac40)">
     <use style="fill:#008000;stroke:#ffffff;stroke-width:0.75;" x="222.487084" xlink:href="#C0_0_d73bbafac6" y="17.432648"/>
    </g>
    <g clip-path="url(#pf4f294ac40)">
     <use style="fill:#008000;stroke:#ffffff;stroke-width:0.75;" x="359.739745" xlink:href="#C0_0_d73bbafac6" y="89.928064"/>
    </g>
    <g clip-path="url(#pf4f294ac40)">
     <use style="fill:#008000;stroke:#ffffff;stroke-width:0.75;" x="248.864455" xlink:href="#C0_0_d73bbafac6" y="82.69345"/>
    </g>
    <g clip-path="url(#pf4f294ac40)">
     <use style="fill:#c0c0c0;stroke:#ffffff;stroke-width:0.75;" x="177.61344" xlink:href="#C0_0_d73bbafac6" y="136.959157"/>
    </g>
    <g clip-path="url(#pf4f294ac40)">
     <use style="fill:#c0c0c0;stroke:#ffffff;stroke-width:0.75;" x="164.005756" xlink:href="#C0_0_d73bbafac6" y="166.331071"/>
    </g>
    <g clip-path="url(#pf4f294ac40)">
     <use style="fill:#c0c0c0;stroke:#ffffff;stroke-width:0.75;" x="132.885251" xlink:href="#C0_0_d73bbafac6" y="111.264153"/>
    </g>
    <g clip-path="url(#pf4f294ac40)">
     <use style="fill:#c0c0c0;stroke:#ffffff;stroke-width:0.75;" x="183.450606" xlink:href="#C0_0_d73bbafac6" y="181.236429"/>
    </g>
    <g clip-path="url(#pf4f294ac40)">
     <use style="fill:#c0c0c0;stroke:#ffffff;stroke-width:0.75;" x="177.108335" xlink:href="#C0_0_d73bbafac6" y="164.306589"/>
    </g>
    <g clip-path="url(#pf4f294ac40)">
     <use style="fill:#c0c0c0;stroke:#ffffff;stroke-width:0.75;" x="170.477553" xlink:href="#C0_0_d73bbafac6" y="127.323478"/>
    </g>
    <g clip-path="url(#pf4f294ac40)">
     <use style="fill:#c0c0c0;stroke:#ffffff;stroke-width:0.75;" x="162.796752" xlink:href="#C0_0_d73bbafac6" y="205.472318"/>
    </g>
    <g clip-path="url(#pf4f294ac40)">
     <use style="fill:#c0c0c0;stroke:#ffffff;stroke-width:0.75;" x="151.897223" xlink:href="#C0_0_d73bbafac6" y="132.070073"/>
    </g>
   </g>
   <g id="PathCollection_2"/>
   <g id="PathCollection_3"/>
   <g id="PathCollection_4"/>
   <g id="PathCollection_5"/>
   <g id="PathCollection_6"/>
   <g id="matplotlib.axis_1">
    <g id="xtick_1">
     <g id="line2d_1">
      <defs>
       <path d="M 0 0 
L 0 3.5 
" id="ma72b7f9247" style="stroke:#000000;stroke-width:0.8;"/>
      </defs>
      <g>
       <use style="stroke:#000000;stroke-width:0.8;" x="60.921216" xlink:href="#ma72b7f9247" y="224.64"/>
      </g>
     </g>
     <g id="text_1">
      <text style="font-family:Arial;font-size:10px;font-style:normal;font-weight:normal;text-anchor:middle;" transform="rotate(-0, 60.921216, 238.797812)" x="60.921216" y="238.797812">−4</text>
     </g>
    </g>
    <g id="xtick_2">
     <g id="line2d_2">
      <g>
       <use style="stroke:#000000;stroke-width:0.8;" x="112.687123" xlink:href="#ma72b7f9247" y="224.64"/>
      </g>
     </g>
     <g id="text_2">
      <text style="font-family:Arial;font-size:10px;font-style:normal;font-weight:normal;text-anchor:middle;" transform="rotate(-0, 112.687123, 238.797812)" x="112.687123" y="238.797812">−2</text>
     </g>
    </g>
    <g id="xtick_3">
     <g id="line2d_3">
      <g>
       <use style="stroke:#000000;stroke-width:0.8;" x="164.45303" xlink:href="#ma72b7f9247" y="224.64"/>
      </g>
     </g>
     <g id="text_3">
      <text style="font-family:Arial;font-size:10px;font-style:normal;font-weight:normal;text-anchor:middle;" transform="rotate(-0, 164.45303, 238.797812)" x="164.45303" y="238.797812">0</text>
     </g>
    </g>
    <g id="xtick_4">
     <g id="line2d_4">
      <g>
       <use style="stroke:#000000;stroke-width:0.8;" x="216.218937" xlink:href="#ma72b7f9247" y="224.64"/>
      </g>
     </g>
     <g id="text_4">
      <text style="font-family:Arial;font-size:10px;font-style:normal;font-weight:normal;text-anchor:middle;" transform="rotate(-0, 216.218937, 238.797812)" x="216.218937" y="238.797812">2</text>
     </g>
    </g>
    <g id="xtick_5">
     <g id="line2d_5">
      <g>
       <use style="stroke:#000000;stroke-width:0.8;" x="267.984844" xlink:href="#ma72b7f9247" y="224.64"/>
      </g>
     </g>
     <g id="text_5">
      <text style="font-family:Arial;font-size:10px;font-style:normal;font-weight:normal;text-anchor:middle;" transform="rotate(-0, 267.984844, 238.797812)" x="267.984844" y="238.797812">4</text>
     </g>
    </g>
    <g id="xtick_6">
     <g id="line2d_6">
      <g>
       <use style="stroke:#000000;stroke-width:0.8;" x="319.75075" xlink:href="#ma72b7f9247" y="224.64"/>
      </g>
     </g>
     <g id="text_6">
      <text style="font-family:Arial;font-size:10px;font-style:normal;font-weight:normal;text-anchor:middle;" transform="rotate(-0, 319.75075, 238.797812)" x="319.75075" y="238.797812">6</text>
     </g>
    </g>
    <g id="xtick_7">
     <g id="line2d_7">
      <g>
       <use style="stroke:#000000;stroke-width:0.8;" x="371.516657" xlink:href="#ma72b7f9247" y="224.64"/>
      </g>
     </g>
     <g id="text_7">
      <text style="font-family:Arial;font-size:10px;font-style:normal;font-weight:normal;text-anchor:middle;" transform="rotate(-0, 371.516657, 238.797812)" x="371.516657" y="238.797812">8</text>
     </g>
    </g>
    <g id="text_8">
     <text style="font-family:Arial;font-size:12px;font-style:normal;font-weight:normal;text-anchor:middle;" transform="rotate(-0, 207.983125, 253.520937)" x="207.983125" y="253.520937">Log(Verruco/Erysipelo) * Log(TbMCA+LPC+LPE/Trypto+carn+UDCA)</text>
    </g>
   </g>
   <g id="matplotlib.axis_2">
    <g id="ytick_1">
     <g id="line2d_8">
      <defs>
       <path d="M 0 0 
L -3.5 0 
" id="mead82b498f" style="stroke:#000000;stroke-width:0.8;"/>
      </defs>
      <g>
       <use style="stroke:#000000;stroke-width:0.8;" x="40.583125" xlink:href="#mead82b498f" y="217.674175"/>
      </g>
     </g>
     <g id="text_9">
      <text style="font-family:Arial;font-size:10px;font-style:normal;font-weight:normal;text-anchor:end;" transform="rotate(-0, 33.583125, 221.253081)" x="33.583125" y="221.253081">4</text>
     </g>
    </g>
    <g id="ytick_2">
     <g id="line2d_9">
      <g>
       <use style="stroke:#000000;stroke-width:0.8;" x="40.583125" xlink:href="#mead82b498f" y="190.078116"/>
      </g>
     </g>
     <g id="text_10">
      <text style="font-family:Arial;font-size:10px;font-style:normal;font-weight:normal;text-anchor:end;" transform="rotate(-0, 33.583125, 193.657022)" x="33.583125" y="193.657022">6</text>
     </g>
    </g>
    <g id="ytick_3">
     <g id="line2d_10">
      <g>
       <use style="stroke:#000000;stroke-width:0.8;" x="40.583125" xlink:href="#mead82b498f" y="162.482056"/>
      </g>
     </g>
     <g id="text_11">
      <text style="font-family:Arial;font-size:10px;font-style:normal;font-weight:normal;text-anchor:end;" transform="rotate(-0, 33.583125, 166.060963)" x="33.583125" y="166.060963">8</text>
     </g>
    </g>
    <g id="ytick_4">
     <g id="line2d_11">
      <g>
       <use style="stroke:#000000;stroke-width:0.8;" x="40.583125" xlink:href="#mead82b498f" y="134.885997"/>
      </g>
     </g>
     <g id="text_12">
      <text style="font-family:Arial;font-size:10px;font-style:normal;font-weight:normal;text-anchor:end;" transform="rotate(-0, 33.583125, 138.464903)" x="33.583125" y="138.464903">10</text>
     </g>
    </g>
    <g id="ytick_5">
     <g id="line2d_12">
      <g>
       <use style="stroke:#000000;stroke-width:0.8;" x="40.583125" xlink:href="#mead82b498f" y="107.289938"/>
      </g>
     </g>
     <g id="text_13">
      <text style="font-family:Arial;font-size:10px;font-style:normal;font-weight:normal;text-anchor:end;" transform="rotate(-0, 33.583125, 110.868844)" x="33.583125" y="110.868844">12</text>
     </g>
    </g>
    <g id="ytick_6">
     <g id="line2d_13">
      <g>
       <use style="stroke:#000000;stroke-width:0.8;" x="40.583125" xlink:href="#mead82b498f" y="79.693879"/>
      </g>
     </g>
     <g id="text_14">
      <text style="font-family:Arial;font-size:10px;font-style:normal;font-weight:normal;text-anchor:end;" transform="rotate(-0, 33.583125, 83.272785)" x="33.583125" y="83.272785">14</text>
     </g>
    </g>
    <g id="ytick_7">
     <g id="line2d_14">
      <g>
       <use style="stroke:#000000;stroke-width:0.8;" x="40.583125" xlink:href="#mead82b498f" y="52.097819"/>
      </g>
     </g>
     <g id="text_15">
      <text style="font-family:Arial;font-size:10px;font-style:normal;font-weight:normal;text-anchor:end;" transform="rotate(-0, 33.583125, 55.676726)" x="33.583125" y="55.676726">16</text>
     </g>
    </g>
    <g id="ytick_8">
     <g id="line2d_15">
      <g>
       <use style="stroke:#000000;stroke-width:0.8;" x="40.583125" xlink:href="#mead82b498f" y="24.50176"/>
      </g>
     </g>
     <g id="text_16">
      <text style="font-family:Arial;font-size:10px;font-style:normal;font-weight:normal;text-anchor:end;" transform="rotate(-0, 33.583125, 28.080666)" x="33.583125" y="28.080666">18</text>
     </g>
    </g>
    <g id="text_17">
     <text style="font-family:Arial;font-size:12px;font-style:normal;font-weight:normal;text-anchor:middle;" transform="rotate(-90, 15.935625, 115.92)" x="15.935625" y="115.92">%Lesion (Aorta)</text>
    </g>
   </g>
   <g id="patch_3">
    <path d="M 40.583125 224.64 
L 40.583125 7.2 
" style="fill:none;stroke:#000000;stroke-linecap:square;stroke-linejoin:miter;stroke-width:0.8;"/>
   </g>
   <g id="patch_4">
    <path d="M 375.383125 224.64 
L 375.383125 7.2 
" style="fill:none;stroke:#000000;stroke-linecap:square;stroke-linejoin:miter;stroke-width:0.8;"/>
   </g>
   <g id="patch_5">
    <path d="M 40.583125 224.64 
L 375.383125 224.64 
" style="fill:none;stroke:#000000;stroke-linecap:square;stroke-linejoin:miter;stroke-width:0.8;"/>
   </g>
   <g id="patch_6">
    <path d="M 40.583125 7.2 
L 375.383125 7.2 
" style="fill:none;stroke:#000000;stroke-linecap:square;stroke-linejoin:miter;stroke-width:0.8;"/>
   </g>
   <g id="legend_1">
    <g id="patch_7">
     <path d="M 394.123125 81.04375 
L 491.718438 81.04375 
Q 493.718438 81.04375 493.718438 79.04375 
L 493.718438 9.2 
Q 493.718438 7.2 491.718438 7.2 
L 394.123125 7.2 
Q 392.123125 7.2 392.123125 9.2 
L 392.123125 79.04375 
Q 392.123125 81.04375 394.123125 81.04375 
z
" style="fill:#ffffff;opacity:0.8;stroke:#cccccc;stroke-linejoin:miter;"/>
    </g>
    <g id="PathCollection_7">
     <defs>
      <path id="m8c2d000dee" style="stroke:#ffffff;stroke-width:1.5;"/>
     </defs>
     <g>
      <use style="fill:#ffffff;stroke:#ffffff;stroke-width:1.5;" x="406.123125" xlink:href="#m8c2d000dee" y="15.732812"/>
     </g>
    </g>
    <g id="text_18">
     <text style="font-family:Arial;font-size:10px;font-style:normal;font-weight:normal;text-anchor:start;" transform="rotate(-0, 424.123125, 18.357812)" x="424.123125" y="18.357812">exposure_type</text>
    </g>
    <g id="PathCollection_8">
     <defs>
      <path d="M 0 3 
C 0.795609 3 1.55874 2.683901 2.12132 2.12132 
C 2.683901 1.55874 3 0.795609 3 0 
C 3 -0.795609 2.683901 -1.55874 2.12132 -2.12132 
C 1.55874 -2.683901 0.795609 -3 0 -3 
C -0.795609 -3 -1.55874 -2.683901 -2.12132 -2.12132 
C -2.683901 -1.55874 -3 -0.795609 -3 0 
C -3 0.795609 -2.683901 1.55874 -2.12132 2.12132 
C -1.55874 2.683901 -0.795609 3 0 3 
z
" id="m4e50983558" style="stroke:#0000ff;"/>
     </defs>
     <g>
      <use style="fill:#0000ff;stroke:#0000ff;" x="406.123125" xlink:href="#m4e50983558" y="29.995313"/>
     </g>
    </g>
    <g id="text_19">
     <text style="font-family:Arial;font-size:10px;font-style:normal;font-weight:normal;text-anchor:start;" transform="rotate(-0, 424.123125, 32.620313)" x="424.123125" y="32.620313">IH</text>
    </g>
    <g id="PathCollection_9">
     <defs>
      <path d="M 0 3 
C 0.795609 3 1.55874 2.683901 2.12132 2.12132 
C 2.683901 1.55874 3 0.795609 3 0 
C 3 -0.795609 2.683901 -1.55874 2.12132 -2.12132 
C 1.55874 -2.683901 0.795609 -3 0 -3 
C -0.795609 -3 -1.55874 -2.683901 -2.12132 -2.12132 
C -2.683901 -1.55874 -3 -0.795609 -3 0 
C -3 0.795609 -2.683901 1.55874 -2.12132 2.12132 
C -1.55874 2.683901 -0.795609 3 0 3 
z
" id="me80d0e8586" style="stroke:#ff0000;"/>
     </defs>
     <g>
      <use style="fill:#ff0000;stroke:#ff0000;" x="406.123125" xlink:href="#me80d0e8586" y="44.140625"/>
     </g>
    </g>
    <g id="text_20">
     <text style="font-family:Arial;font-size:10px;font-style:normal;font-weight:normal;text-anchor:start;" transform="rotate(-0, 424.123125, 46.765625)" x="424.123125" y="46.765625">IC</text>
    </g>
    <g id="PathCollection_10">
     <defs>
      <path d="M 0 3 
C 0.795609 3 1.55874 2.683901 2.12132 2.12132 
C 2.683901 1.55874 3 0.795609 3 0 
C 3 -0.795609 2.683901 -1.55874 2.12132 -2.12132 
C 1.55874 -2.683901 0.795609 -3 0 -3 
C -0.795609 -3 -1.55874 -2.683901 -2.12132 -2.12132 
C -2.683901 -1.55874 -3 -0.795609 -3 0 
C -3 0.795609 -2.683901 1.55874 -2.12132 2.12132 
C -1.55874 2.683901 -0.795609 3 0 3 
z
" id="meed8871cd1" style="stroke:#c0c0c0;"/>
     </defs>
     <g>
      <use style="fill:#c0c0c0;stroke:#c0c0c0;" x="406.123125" xlink:href="#meed8871cd1" y="58.285937"/>
     </g>
    </g>
    <g id="text_21">
     <text style="font-family:Arial;font-size:10px;font-style:normal;font-weight:normal;text-anchor:start;" transform="rotate(-0, 424.123125, 60.910937)" x="424.123125" y="60.910937">Air</text>
    </g>
    <g id="PathCollection_11">
     <defs>
      <path d="M 0 3 
C 0.795609 3 1.55874 2.683901 2.12132 2.12132 
C 2.683901 1.55874 3 0.795609 3 0 
C 3 -0.795609 2.683901 -1.55874 2.12132 -2.12132 
C 1.55874 -2.683901 0.795609 -3 0 -3 
C -0.795609 -3 -1.55874 -2.683901 -2.12132 -2.12132 
C -2.683901 -1.55874 -3 -0.795609 -3 0 
C -3 0.795609 -2.683901 1.55874 -2.12132 2.12132 
C -1.55874 2.683901 -0.795609 3 0 3 
z
" id="mcab91013fc" style="stroke:#008000;"/>
     </defs>
     <g>
      <use style="fill:#008000;stroke:#008000;" x="406.123125" xlink:href="#mcab91013fc" y="72.43125"/>
     </g>
    </g>
    <g id="text_22">
     <text style="font-family:Arial;font-size:10px;font-style:normal;font-weight:normal;text-anchor:start;" transform="rotate(-0, 424.123125, 75.05625)" x="424.123125" y="75.05625">IHC</text>
    </g>
   </g>
  </g>
 </g>
 <defs>
  <clipPath id="pf4f294ac40">
   <rect height="217.44" width="334.8" x="40.583125" y="7.2"/>
  </clipPath>
 </defs>
</svg>
