<?xml version="1.0" encoding="utf-8" standalone="no"?>
<!DOCTYPE svg PUBLIC "-//W3C//DTD SVG 1.1//EN"
  "http://www.w3.org/Graphics/SVG/1.1/DTD/svg11.dtd">
<!-- Created with matplotlib (https://matplotlib.org/) -->
<svg height="280.699062pt" version="1.1" viewBox="0 0 508.970625 280.699062" width="508.970625pt" xmlns="http://www.w3.org/2000/svg" xmlns:xlink="http://www.w3.org/1999/xlink">
 <defs>
  <style type="text/css">
*{stroke-linecap:butt;stroke-linejoin:round;white-space:pre;}
  </style>
 </defs>
 <g id="figure_1">
  <g id="patch_1">
   <path d="M 0 280.699062 
L 508.970625 280.699062 
L 508.970625 0 
L 0 0 
z
" style="fill:#ffffff;"/>
  </g>
  <g id="axes_1">
   <g id="patch_2">
    <path d="M 48.635313 242.0925 
L 383.435313 242.0925 
L 383.435313 24.6525 
L 48.635313 24.6525 
z
" style="fill:#ffffff;"/>
   </g>
   <g id="PolyCollection_1">
    <defs>
     <path d="M 63.853494 -84.085344 
L 63.853494 -56.133587 
L 79.071676 -134.006178 
L 94.289858 -64.577337 
L 109.50804 -73.725991 
L 124.726222 -98.409114 
L 139.944403 -82.834565 
L 155.162585 -48.490199 
L 170.380767 -64.514394 
L 185.598949 -147.209422 
L 200.817131 -131.800167 
L 216.035312 -138.76776 
L 231.253494 -140.358658 
L 246.471676 -169.989138 
L 261.689858 -157.412747 
L 276.90804 -161.326562 
L 292.126222 -146.597315 
L 307.344403 -179.509883 
L 322.562585 -192.808964 
L 337.780767 -164.815077 
L 352.998949 -145.345029 
L 368.217131 -118.550959 
L 368.217131 -168.538016 
L 368.217131 -168.538016 
L 352.998949 -195.492264 
L 337.780767 -218.057253 
L 322.562585 -235.112581 
L 307.344403 -223.839819 
L 292.126222 -185.707927 
L 276.90804 -189.747724 
L 261.689858 -189.787579 
L 246.471676 -209.859531 
L 231.253494 -178.305601 
L 216.035312 -186.645845 
L 200.817131 -164.483921 
L 185.598949 -193.5353 
L 170.380767 -103.734871 
L 155.162585 -83.770479 
L 139.944403 -124.475964 
L 124.726222 -124.838739 
L 109.50804 -104.676635 
L 94.289858 -97.220208 
L 79.071676 -187.513019 
L 63.853494 -84.085344 
z
" id="mdacfdaecd9" style="stroke:#0000ff;stroke-opacity:0.2;"/>
    </defs>
    <g clip-path="url(#pdfcf314139)">
     <use style="fill:#0000ff;fill-opacity:0.2;stroke:#0000ff;stroke-opacity:0.2;" x="0" xlink:href="#mdacfdaecd9" y="280.699062"/>
    </g>
   </g>
   <g id="PolyCollection_2">
    <defs>
     <path d="M 63.853494 -91.578541 
L 63.853494 -65.071327 
L 79.071676 -180.833752 
L 94.289858 -92.772753 
L 109.50804 -93.960257 
L 124.726222 -145.245056 
L 139.944403 -145.358158 
L 155.162585 -110.147725 
L 170.380767 -158.328344 
L 185.598949 -141.450126 
L 200.817131 -180.953307 
L 216.035312 -141.145567 
L 231.253494 -198.826177 
L 246.471676 -137.938771 
L 261.689858 -156.929193 
L 276.90804 -140.201158 
L 292.126222 -163.967933 
L 307.344403 -147.367871 
L 322.562585 -170.689102 
L 337.780767 -105.495746 
L 352.998949 -120.693981 
L 368.217131 -102.432015 
L 368.217131 -151.062939 
L 368.217131 -151.062939 
L 352.998949 -171.78159 
L 337.780767 -157.862486 
L 322.562585 -208.985713 
L 307.344403 -195.533135 
L 292.126222 -232.614032 
L 276.90804 -190.304506 
L 261.689858 -205.149122 
L 246.471676 -194.344265 
L 231.253494 -246.162926 
L 216.035312 -201.241094 
L 200.817131 -229.206843 
L 185.598949 -175.816758 
L 170.380767 -237.350223 
L 155.162585 -162.04568 
L 139.944403 -208.466778 
L 124.726222 -195.03795 
L 109.50804 -135.60856 
L 94.289858 -125.020006 
L 79.071676 -243.129627 
L 63.853494 -91.578541 
z
" id="mbaefba4862" style="stroke:#ff0000;stroke-opacity:0.2;"/>
    </defs>
    <g clip-path="url(#pdfcf314139)">
     <use style="fill:#ff0000;fill-opacity:0.2;stroke:#ff0000;stroke-opacity:0.2;" x="0" xlink:href="#mbaefba4862" y="280.699062"/>
    </g>
   </g>
   <g id="matplotlib.axis_1">
    <g id="xtick_1">
     <g id="line2d_1">
      <defs>
       <path d="M 0 0 
L 0 3.5 
" id="m7712cecb50" style="stroke:#000000;stroke-width:0.8;"/>
      </defs>
      <g>
       <use style="stroke:#000000;stroke-width:0.8;" x="63.853494" xlink:href="#m7712cecb50" y="242.0925"/>
      </g>
     </g>
     <g id="text_1">
      <text style="font-family:Arial;font-size:10px;font-style:normal;font-weight:normal;text-anchor:middle;" transform="rotate(-0, 63.853494, 256.250312)" x="63.853494" y="256.250312">10</text>
     </g>
    </g>
    <g id="xtick_2">
     <g id="line2d_2">
      <g>
       <use style="stroke:#000000;stroke-width:0.8;" x="124.726222" xlink:href="#m7712cecb50" y="242.0925"/>
      </g>
     </g>
     <g id="text_2">
      <text style="font-family:Arial;font-size:10px;font-style:normal;font-weight:normal;text-anchor:middle;" transform="rotate(-0, 124.726222, 256.250312)" x="124.726222" y="256.250312">12</text>
     </g>
    </g>
    <g id="xtick_3">
     <g id="line2d_3">
      <g>
       <use style="stroke:#000000;stroke-width:0.8;" x="185.598949" xlink:href="#m7712cecb50" y="242.0925"/>
      </g>
     </g>
     <g id="text_3">
      <text style="font-family:Arial;font-size:10px;font-style:normal;font-weight:normal;text-anchor:middle;" transform="rotate(-0, 185.598949, 256.250312)" x="185.598949" y="256.250312">14</text>
     </g>
    </g>
    <g id="xtick_4">
     <g id="line2d_4">
      <g>
       <use style="stroke:#000000;stroke-width:0.8;" x="246.471676" xlink:href="#m7712cecb50" y="242.0925"/>
      </g>
     </g>
     <g id="text_4">
      <text style="font-family:Arial;font-size:10px;font-style:normal;font-weight:normal;text-anchor:middle;" transform="rotate(-0, 246.471676, 256.250312)" x="246.471676" y="256.250312">16</text>
     </g>
    </g>
    <g id="xtick_5">
     <g id="line2d_5">
      <g>
       <use style="stroke:#000000;stroke-width:0.8;" x="307.344403" xlink:href="#m7712cecb50" y="242.0925"/>
      </g>
     </g>
     <g id="text_5">
      <text style="font-family:Arial;font-size:10px;font-style:normal;font-weight:normal;text-anchor:middle;" transform="rotate(-0, 307.344403, 256.250312)" x="307.344403" y="256.250312">18</text>
     </g>
    </g>
    <g id="xtick_6">
     <g id="line2d_6">
      <g>
       <use style="stroke:#000000;stroke-width:0.8;" x="368.217131" xlink:href="#m7712cecb50" y="242.0925"/>
      </g>
     </g>
     <g id="text_6">
      <text style="font-family:Arial;font-size:10px;font-style:normal;font-weight:normal;text-anchor:middle;" transform="rotate(-0, 368.217131, 256.250312)" x="368.217131" y="256.250312">20</text>
     </g>
    </g>
    <g id="text_7">
     <text style="font-family:Arial;font-size:12px;font-style:normal;font-weight:normal;text-anchor:middle;" transform="rotate(-0, 216.035313, 270.973437)" x="216.035313" y="270.973437">Host Age (in Weeks)</text>
    </g>
   </g>
   <g id="matplotlib.axis_2">
    <g id="ytick_1">
     <g id="line2d_7">
      <defs>
       <path d="M 0 0 
L -3.5 0 
" id="m9b06172cb6" style="stroke:#000000;stroke-width:0.8;"/>
      </defs>
      <g>
       <use style="stroke:#000000;stroke-width:0.8;" x="48.635313" xlink:href="#m9b06172cb6" y="218.857651"/>
      </g>
     </g>
     <g id="text_8">
      <text style="font-family:Arial;font-size:10px;font-style:normal;font-weight:normal;text-anchor:end;" transform="rotate(-0, 41.635313, 222.436558)" x="41.635313" y="222.436558">0.06</text>
     </g>
    </g>
    <g id="ytick_2">
     <g id="line2d_8">
      <g>
       <use style="stroke:#000000;stroke-width:0.8;" x="48.635313" xlink:href="#m9b06172cb6" y="193.963963"/>
      </g>
     </g>
     <g id="text_9">
      <text style="font-family:Arial;font-size:10px;font-style:normal;font-weight:normal;text-anchor:end;" transform="rotate(-0, 41.635313, 197.542869)" x="41.635313" y="197.542869">0.07</text>
     </g>
    </g>
    <g id="ytick_3">
     <g id="line2d_9">
      <g>
       <use style="stroke:#000000;stroke-width:0.8;" x="48.635313" xlink:href="#m9b06172cb6" y="169.070275"/>
      </g>
     </g>
     <g id="text_10">
      <text style="font-family:Arial;font-size:10px;font-style:normal;font-weight:normal;text-anchor:end;" transform="rotate(-0, 41.635313, 172.649181)" x="41.635313" y="172.649181">0.08</text>
     </g>
    </g>
    <g id="ytick_4">
     <g id="line2d_10">
      <g>
       <use style="stroke:#000000;stroke-width:0.8;" x="48.635313" xlink:href="#m9b06172cb6" y="144.176587"/>
      </g>
     </g>
     <g id="text_11">
      <text style="font-family:Arial;font-size:10px;font-style:normal;font-weight:normal;text-anchor:end;" transform="rotate(-0, 41.635313, 147.755493)" x="41.635313" y="147.755493">0.09</text>
     </g>
    </g>
    <g id="ytick_5">
     <g id="line2d_11">
      <g>
       <use style="stroke:#000000;stroke-width:0.8;" x="48.635313" xlink:href="#m9b06172cb6" y="119.282899"/>
      </g>
     </g>
     <g id="text_12">
      <text style="font-family:Arial;font-size:10px;font-style:normal;font-weight:normal;text-anchor:end;" transform="rotate(-0, 41.635313, 122.861805)" x="41.635313" y="122.861805">0.10</text>
     </g>
    </g>
    <g id="ytick_6">
     <g id="line2d_12">
      <g>
       <use style="stroke:#000000;stroke-width:0.8;" x="48.635313" xlink:href="#m9b06172cb6" y="94.389211"/>
      </g>
     </g>
     <g id="text_13">
      <text style="font-family:Arial;font-size:10px;font-style:normal;font-weight:normal;text-anchor:end;" transform="rotate(-0, 41.635313, 97.968117)" x="41.635313" y="97.968117">0.11</text>
     </g>
    </g>
    <g id="ytick_7">
     <g id="line2d_13">
      <g>
       <use style="stroke:#000000;stroke-width:0.8;" x="48.635313" xlink:href="#m9b06172cb6" y="69.495522"/>
      </g>
     </g>
     <g id="text_14">
      <text style="font-family:Arial;font-size:10px;font-style:normal;font-weight:normal;text-anchor:end;" transform="rotate(-0, 41.635313, 73.074429)" x="41.635313" y="73.074429">0.12</text>
     </g>
    </g>
    <g id="ytick_8">
     <g id="line2d_14">
      <g>
       <use style="stroke:#000000;stroke-width:0.8;" x="48.635313" xlink:href="#m9b06172cb6" y="44.601834"/>
      </g>
     </g>
     <g id="text_15">
      <text style="font-family:Arial;font-size:10px;font-style:normal;font-weight:normal;text-anchor:end;" transform="rotate(-0, 41.635313, 48.180741)" x="41.635313" y="48.180741">0.13</text>
     </g>
    </g>
    <g id="text_16">
     <text style="font-family:Arial;font-size:12px;font-style:normal;font-weight:normal;text-anchor:middle;" transform="rotate(-90, 15.789375, 133.3725)" x="15.789375" y="133.3725">Relative Abundance</text>
    </g>
   </g>
   <g id="line2d_15">
    <path clip-path="url(#pdfcf314139)" d="M 63.853494 211.210865 
L 79.071676 119.445329 
L 94.289858 199.184703 
L 109.50804 191.936481 
L 124.726222 169.523832 
L 139.944403 176.52403 
L 155.162585 214.548092 
L 170.380767 196.224241 
L 185.598949 110.308767 
L 200.817131 132.373649 
L 216.035312 116.697444 
L 231.253494 121.021186 
L 246.471676 90.970722 
L 261.689858 106.927102 
L 276.90804 105.174348 
L 292.126222 114.267643 
L 307.344403 79.460544 
L 322.562585 67.818416 
L 337.780767 89.421608 
L 352.998949 109.838362 
L 368.217131 137.005911 
" style="fill:none;stroke:#0000ff;stroke-linecap:square;stroke-width:1.5;"/>
   </g>
   <g id="line2d_16">
    <path clip-path="url(#pdfcf314139)" d="M 63.853494 202.138796 
L 79.071676 69.238628 
L 94.289858 170.923237 
L 109.50804 166.208361 
L 124.726222 112.442436 
L 139.944403 106.307331 
L 155.162585 145.524387 
L 170.380767 82.741122 
L 185.598949 122.274958 
L 200.817131 75.954053 
L 216.035312 110.030904 
L 231.253494 56.261075 
L 246.471676 114.757852 
L 261.689858 100.005124 
L 276.90804 116.025027 
L 292.126222 80.704476 
L 307.344403 110.101153 
L 322.562585 91.895002 
L 337.780767 148.892275 
L 352.998949 134.774439 
L 368.217131 153.820522 
" style="fill:none;stroke:#ff0000;stroke-linecap:square;stroke-width:1.5;"/>
   </g>
   <g id="line2d_17"/>
   <g id="line2d_18"/>
   <g id="line2d_19"/>
   <g id="patch_3">
    <path d="M 48.635313 242.0925 
L 48.635313 24.6525 
" style="fill:none;stroke:#000000;stroke-linecap:square;stroke-linejoin:miter;stroke-width:0.8;"/>
   </g>
   <g id="patch_4">
    <path d="M 383.435313 242.0925 
L 383.435313 24.6525 
" style="fill:none;stroke:#000000;stroke-linecap:square;stroke-linejoin:miter;stroke-width:0.8;"/>
   </g>
   <g id="patch_5">
    <path d="M 48.635312 242.0925 
L 383.435313 242.0925 
" style="fill:none;stroke:#000000;stroke-linecap:square;stroke-linejoin:miter;stroke-width:0.8;"/>
   </g>
   <g id="patch_6">
    <path d="M 48.635312 24.6525 
L 383.435313 24.6525 
" style="fill:none;stroke:#000000;stroke-linecap:square;stroke-linejoin:miter;stroke-width:0.8;"/>
   </g>
   <g id="text_17">
    <text style="font-family:Arial;font-size:16px;font-style:normal;font-weight:normal;text-anchor:middle;" transform="rotate(-0, 216.035313, 18.6525)" x="216.035313" y="18.6525">Ruminococcaceae</text>
   </g>
   <g id="legend_1">
    <g id="patch_7">
     <path d="M 402.175313 70.205625 
L 499.770625 70.205625 
Q 501.770625 70.205625 501.770625 68.205625 
L 501.770625 26.6525 
Q 501.770625 24.6525 499.770625 24.6525 
L 402.175313 24.6525 
Q 400.175313 24.6525 400.175313 26.6525 
L 400.175313 68.205625 
Q 400.175313 70.205625 402.175313 70.205625 
z
" style="fill:#ffffff;opacity:0.8;stroke:#cccccc;stroke-linejoin:miter;"/>
    </g>
    <g id="line2d_20">
     <path d="M 404.175313 32.310312 
L 424.175313 32.310312 
" style="fill:none;"/>
    </g>
    <g id="line2d_21"/>
    <g id="text_18">
     <text style="font-family:Arial;font-size:10px;font-style:normal;font-weight:normal;text-anchor:start;" transform="rotate(-0, 432.175313, 35.810312)" x="432.175313" y="35.810312">exposure_type</text>
    </g>
    <g id="line2d_22">
     <path d="M 404.175313 46.572812 
L 424.175313 46.572812 
" style="fill:none;stroke:#0000ff;stroke-linecap:square;stroke-width:1.5;"/>
    </g>
    <g id="line2d_23"/>
    <g id="text_19">
     <text style="font-family:Arial;font-size:10px;font-style:normal;font-weight:normal;text-anchor:start;" transform="rotate(-0, 432.175313, 50.072812)" x="432.175313" y="50.072812">IH</text>
    </g>
    <g id="line2d_24">
     <path d="M 404.175313 60.718125 
L 424.175313 60.718125 
" style="fill:none;stroke:#ff0000;stroke-linecap:square;stroke-width:1.5;"/>
    </g>
    <g id="line2d_25"/>
    <g id="text_20">
     <text style="font-family:Arial;font-size:10px;font-style:normal;font-weight:normal;text-anchor:start;" transform="rotate(-0, 432.175313, 64.218125)" x="432.175313" y="64.218125">IC</text>
    </g>
   </g>
  </g>
 </g>
 <defs>
  <clipPath id="pdfcf314139">
   <rect height="217.44" width="334.8" x="48.635313" y="24.6525"/>
  </clipPath>
 </defs>
</svg>
