<?xml version="1.0" encoding="utf-8" standalone="no"?>
<!DOCTYPE svg PUBLIC "-//W3C//DTD SVG 1.1//EN"
  "http://www.w3.org/Graphics/SVG/1.1/DTD/svg11.dtd">
<!-- Created with matplotlib (https://matplotlib.org/) -->
<svg height="280.699062pt" version="1.1" viewBox="0 0 508.970625 280.699062" width="508.970625pt" xmlns="http://www.w3.org/2000/svg" xmlns:xlink="http://www.w3.org/1999/xlink">
 <defs>
  <style type="text/css">
*{stroke-linecap:butt;stroke-linejoin:round;white-space:pre;}
  </style>
 </defs>
 <g id="figure_1">
  <g id="patch_1">
   <path d="M 0 280.699062 
L 508.970625 280.699062 
L 508.970625 0 
L 0 0 
z
" style="fill:#ffffff;"/>
  </g>
  <g id="axes_1">
   <g id="patch_2">
    <path d="M 48.635313 242.0925 
L 383.435313 242.0925 
L 383.435313 24.6525 
L 48.635313 24.6525 
z
" style="fill:#ffffff;"/>
   </g>
   <g id="PolyCollection_1">
    <defs>
     <path d="M 63.853494 -49.186385 
L 63.853494 -48.490199 
L 79.071676 -53.160686 
L 94.289858 -69.694696 
L 109.50804 -71.802707 
L 124.726222 -75.676981 
L 139.944403 -76.228311 
L 155.162585 -72.049102 
L 170.380767 -84.689221 
L 185.598949 -69.038952 
L 200.817131 -69.727538 
L 216.035312 -66.094326 
L 231.253494 -70.000926 
L 246.471676 -62.64232 
L 261.689858 -66.047424 
L 276.90804 -73.40495 
L 292.126222 -70.487734 
L 307.344403 -62.669672 
L 322.562585 -59.926285 
L 337.780767 -63.683379 
L 352.998949 -67.239596 
L 368.217131 -65.071544 
L 368.217131 -69.848497 
L 368.217131 -69.848497 
L 352.998949 -71.110668 
L 337.780767 -66.26549 
L 322.562585 -62.966327 
L 307.344403 -67.986091 
L 292.126222 -76.878391 
L 276.90804 -77.589765 
L 261.689858 -68.260976 
L 246.471676 -66.753222 
L 231.253494 -76.547559 
L 216.035312 -74.821718 
L 200.817131 -80.185644 
L 185.598949 -77.604019 
L 170.380767 -93.36382 
L 155.162585 -81.768728 
L 139.944403 -86.621625 
L 124.726222 -85.838899 
L 109.50804 -84.310689 
L 94.289858 -77.789997 
L 79.071676 -55.677314 
L 63.853494 -49.186385 
z
" id="m8a3a258fdf" style="stroke:#0000ff;stroke-opacity:0.2;"/>
    </defs>
    <g clip-path="url(#p84ddbc566d)">
     <use style="fill:#0000ff;fill-opacity:0.2;stroke:#0000ff;stroke-opacity:0.2;" x="0" xlink:href="#m8a3a258fdf" y="280.699062"/>
    </g>
   </g>
   <g id="PolyCollection_2">
    <defs>
     <path d="M 63.853494 -50.417097 
L 63.853494 -48.954239 
L 79.071676 -57.993844 
L 94.289858 -69.639916 
L 109.50804 -67.614874 
L 124.726222 -69.476415 
L 139.944403 -97.578685 
L 155.162585 -118.930638 
L 170.380767 -92.323551 
L 185.598949 -97.64655 
L 200.817131 -88.78393 
L 216.035312 -153.260573 
L 231.253494 -105.590048 
L 246.471676 -168.006983 
L 261.689858 -129.026332 
L 276.90804 -121.664044 
L 292.126222 -126.839207 
L 307.344403 -128.193728 
L 322.562585 -105.010637 
L 337.780767 -132.063283 
L 352.998949 -179.538361 
L 368.217131 -129.228709 
L 368.217131 -173.845232 
L 368.217131 -173.845232 
L 352.998949 -246.162926 
L 337.780767 -180.835345 
L 322.562585 -142.149818 
L 307.344403 -174.481696 
L 292.126222 -182.635341 
L 276.90804 -166.860923 
L 261.689858 -182.278977 
L 246.471676 -229.565185 
L 231.253494 -148.458527 
L 216.035312 -210.671559 
L 200.817131 -113.239267 
L 185.598949 -128.612219 
L 170.380767 -126.025018 
L 155.162585 -177.584182 
L 139.944403 -146.472669 
L 124.726222 -91.554336 
L 109.50804 -93.402697 
L 94.289858 -92.365667 
L 79.071676 -69.528768 
L 63.853494 -50.417097 
z
" id="mf65507acd8" style="stroke:#ff0000;stroke-opacity:0.2;"/>
    </defs>
    <g clip-path="url(#p84ddbc566d)">
     <use style="fill:#ff0000;fill-opacity:0.2;stroke:#ff0000;stroke-opacity:0.2;" x="0" xlink:href="#mf65507acd8" y="280.699062"/>
    </g>
   </g>
   <g id="matplotlib.axis_1">
    <g id="xtick_1">
     <g id="line2d_1">
      <defs>
       <path d="M 0 0 
L 0 3.5 
" id="m75a2a5d3fc" style="stroke:#000000;stroke-width:0.8;"/>
      </defs>
      <g>
       <use style="stroke:#000000;stroke-width:0.8;" x="63.853494" xlink:href="#m75a2a5d3fc" y="242.0925"/>
      </g>
     </g>
     <g id="text_1">
      <text style="font-family:Arial;font-size:10px;font-style:normal;font-weight:normal;text-anchor:middle;" transform="rotate(-0, 63.853494, 256.250312)" x="63.853494" y="256.250312">10</text>
     </g>
    </g>
    <g id="xtick_2">
     <g id="line2d_2">
      <g>
       <use style="stroke:#000000;stroke-width:0.8;" x="124.726222" xlink:href="#m75a2a5d3fc" y="242.0925"/>
      </g>
     </g>
     <g id="text_2">
      <text style="font-family:Arial;font-size:10px;font-style:normal;font-weight:normal;text-anchor:middle;" transform="rotate(-0, 124.726222, 256.250312)" x="124.726222" y="256.250312">12</text>
     </g>
    </g>
    <g id="xtick_3">
     <g id="line2d_3">
      <g>
       <use style="stroke:#000000;stroke-width:0.8;" x="185.598949" xlink:href="#m75a2a5d3fc" y="242.0925"/>
      </g>
     </g>
     <g id="text_3">
      <text style="font-family:Arial;font-size:10px;font-style:normal;font-weight:normal;text-anchor:middle;" transform="rotate(-0, 185.598949, 256.250312)" x="185.598949" y="256.250312">14</text>
     </g>
    </g>
    <g id="xtick_4">
     <g id="line2d_4">
      <g>
       <use style="stroke:#000000;stroke-width:0.8;" x="246.471676" xlink:href="#m75a2a5d3fc" y="242.0925"/>
      </g>
     </g>
     <g id="text_4">
      <text style="font-family:Arial;font-size:10px;font-style:normal;font-weight:normal;text-anchor:middle;" transform="rotate(-0, 246.471676, 256.250312)" x="246.471676" y="256.250312">16</text>
     </g>
    </g>
    <g id="xtick_5">
     <g id="line2d_5">
      <g>
       <use style="stroke:#000000;stroke-width:0.8;" x="307.344403" xlink:href="#m75a2a5d3fc" y="242.0925"/>
      </g>
     </g>
     <g id="text_5">
      <text style="font-family:Arial;font-size:10px;font-style:normal;font-weight:normal;text-anchor:middle;" transform="rotate(-0, 307.344403, 256.250312)" x="307.344403" y="256.250312">18</text>
     </g>
    </g>
    <g id="xtick_6">
     <g id="line2d_6">
      <g>
       <use style="stroke:#000000;stroke-width:0.8;" x="368.217131" xlink:href="#m75a2a5d3fc" y="242.0925"/>
      </g>
     </g>
     <g id="text_6">
      <text style="font-family:Arial;font-size:10px;font-style:normal;font-weight:normal;text-anchor:middle;" transform="rotate(-0, 368.217131, 256.250312)" x="368.217131" y="256.250312">20</text>
     </g>
    </g>
    <g id="text_7">
     <text style="font-family:Arial;font-size:12px;font-style:normal;font-weight:normal;text-anchor:middle;" transform="rotate(-0, 216.035313, 270.973437)" x="216.035313" y="270.973437">Host Age (in Weeks)</text>
    </g>
   </g>
   <g id="matplotlib.axis_2">
    <g id="ytick_1">
     <g id="line2d_7">
      <defs>
       <path d="M 0 0 
L -3.5 0 
" id="m3d4b020c56" style="stroke:#000000;stroke-width:0.8;"/>
      </defs>
      <g>
       <use style="stroke:#000000;stroke-width:0.8;" x="48.635313" xlink:href="#m3d4b020c56" y="232.692516"/>
      </g>
     </g>
     <g id="text_8">
      <text style="font-family:Arial;font-size:10px;font-style:normal;font-weight:normal;text-anchor:end;" transform="rotate(-0, 41.635313, 236.271422)" x="41.635313" y="236.271422">0.00</text>
     </g>
    </g>
    <g id="ytick_2">
     <g id="line2d_8">
      <g>
       <use style="stroke:#000000;stroke-width:0.8;" x="48.635313" xlink:href="#m3d4b020c56" y="187.288174"/>
      </g>
     </g>
     <g id="text_9">
      <text style="font-family:Arial;font-size:10px;font-style:normal;font-weight:normal;text-anchor:end;" transform="rotate(-0, 41.635313, 190.86708)" x="41.635313" y="190.86708">0.05</text>
     </g>
    </g>
    <g id="ytick_3">
     <g id="line2d_9">
      <g>
       <use style="stroke:#000000;stroke-width:0.8;" x="48.635313" xlink:href="#m3d4b020c56" y="141.883832"/>
      </g>
     </g>
     <g id="text_10">
      <text style="font-family:Arial;font-size:10px;font-style:normal;font-weight:normal;text-anchor:end;" transform="rotate(-0, 41.635313, 145.462739)" x="41.635313" y="145.462739">0.10</text>
     </g>
    </g>
    <g id="ytick_4">
     <g id="line2d_10">
      <g>
       <use style="stroke:#000000;stroke-width:0.8;" x="48.635313" xlink:href="#m3d4b020c56" y="96.479491"/>
      </g>
     </g>
     <g id="text_11">
      <text style="font-family:Arial;font-size:10px;font-style:normal;font-weight:normal;text-anchor:end;" transform="rotate(-0, 41.635313, 100.058397)" x="41.635313" y="100.058397">0.15</text>
     </g>
    </g>
    <g id="ytick_5">
     <g id="line2d_11">
      <g>
       <use style="stroke:#000000;stroke-width:0.8;" x="48.635313" xlink:href="#m3d4b020c56" y="51.075149"/>
      </g>
     </g>
     <g id="text_12">
      <text style="font-family:Arial;font-size:10px;font-style:normal;font-weight:normal;text-anchor:end;" transform="rotate(-0, 41.635313, 54.654055)" x="41.635313" y="54.654055">0.20</text>
     </g>
    </g>
    <g id="text_13">
     <text style="font-family:Arial;font-size:12px;font-style:normal;font-weight:normal;text-anchor:middle;" transform="rotate(-90, 15.789375, 133.3725)" x="15.789375" y="133.3725">Relative Abundance</text>
    </g>
   </g>
   <g id="line2d_12">
    <path clip-path="url(#p84ddbc566d)" d="M 63.853494 231.852183 
L 79.071676 226.292686 
L 94.289858 206.627781 
L 109.50804 202.469359 
L 124.726222 199.685276 
L 139.944403 199.34251 
L 155.162585 203.97324 
L 170.380767 191.462896 
L 185.598949 207.302904 
L 200.817131 205.980858 
L 216.035312 210.242373 
L 231.253494 207.314038 
L 246.471676 216.046323 
L 261.689858 213.571248 
L 276.90804 205.131635 
L 292.126222 207.05665 
L 307.344403 215.363631 
L 322.562585 219.220747 
L 337.780767 215.78359 
L 352.998949 211.604198 
L 368.217131 213.276 
" style="fill:none;stroke:#0000ff;stroke-linecap:square;stroke-width:1.5;"/>
   </g>
   <g id="line2d_13">
    <path clip-path="url(#p84ddbc566d)" d="M 63.853494 231.059436 
L 79.071676 216.842847 
L 94.289858 199.832824 
L 109.50804 199.611865 
L 124.726222 200.036828 
L 139.944403 158.268879 
L 155.162585 131.087282 
L 170.380767 171.403754 
L 185.598949 166.685952 
L 200.817131 179.601395 
L 216.035312 97.74284 
L 231.253494 154.599266 
L 246.471676 82.480989 
L 261.689858 123.822962 
L 276.90804 137.326938 
L 292.126222 125.97067 
L 307.344403 130.433974 
L 322.562585 157.30312 
L 337.780767 125.887945 
L 352.998949 69.58679 
L 368.217131 129.627935 
" style="fill:none;stroke:#ff0000;stroke-linecap:square;stroke-width:1.5;"/>
   </g>
   <g id="line2d_14"/>
   <g id="line2d_15"/>
   <g id="line2d_16"/>
   <g id="patch_3">
    <path d="M 48.635313 242.0925 
L 48.635313 24.6525 
" style="fill:none;stroke:#000000;stroke-linecap:square;stroke-linejoin:miter;stroke-width:0.8;"/>
   </g>
   <g id="patch_4">
    <path d="M 383.435313 242.0925 
L 383.435313 24.6525 
" style="fill:none;stroke:#000000;stroke-linecap:square;stroke-linejoin:miter;stroke-width:0.8;"/>
   </g>
   <g id="patch_5">
    <path d="M 48.635312 242.0925 
L 383.435313 242.0925 
" style="fill:none;stroke:#000000;stroke-linecap:square;stroke-linejoin:miter;stroke-width:0.8;"/>
   </g>
   <g id="patch_6">
    <path d="M 48.635312 24.6525 
L 383.435313 24.6525 
" style="fill:none;stroke:#000000;stroke-linecap:square;stroke-linejoin:miter;stroke-width:0.8;"/>
   </g>
   <g id="text_14">
    <text style="font-family:Arial;font-size:16px;font-style:normal;font-weight:normal;text-anchor:middle;" transform="rotate(-0, 216.035313, 18.6525)" x="216.035313" y="18.6525">Erysipelotrichaceae</text>
   </g>
   <g id="legend_1">
    <g id="patch_7">
     <path d="M 402.175313 70.205625 
L 499.770625 70.205625 
Q 501.770625 70.205625 501.770625 68.205625 
L 501.770625 26.6525 
Q 501.770625 24.6525 499.770625 24.6525 
L 402.175313 24.6525 
Q 400.175313 24.6525 400.175313 26.6525 
L 400.175313 68.205625 
Q 400.175313 70.205625 402.175313 70.205625 
z
" style="fill:#ffffff;opacity:0.8;stroke:#cccccc;stroke-linejoin:miter;"/>
    </g>
    <g id="line2d_17">
     <path d="M 404.175313 32.310312 
L 424.175313 32.310312 
" style="fill:none;"/>
    </g>
    <g id="line2d_18"/>
    <g id="text_15">
     <text style="font-family:Arial;font-size:10px;font-style:normal;font-weight:normal;text-anchor:start;" transform="rotate(-0, 432.175313, 35.810312)" x="432.175313" y="35.810312">exposure_type</text>
    </g>
    <g id="line2d_19">
     <path d="M 404.175313 46.572812 
L 424.175313 46.572812 
" style="fill:none;stroke:#0000ff;stroke-linecap:square;stroke-width:1.5;"/>
    </g>
    <g id="line2d_20"/>
    <g id="text_16">
     <text style="font-family:Arial;font-size:10px;font-style:normal;font-weight:normal;text-anchor:start;" transform="rotate(-0, 432.175313, 50.072812)" x="432.175313" y="50.072812">IH</text>
    </g>
    <g id="line2d_21">
     <path d="M 404.175313 60.718125 
L 424.175313 60.718125 
" style="fill:none;stroke:#ff0000;stroke-linecap:square;stroke-width:1.5;"/>
    </g>
    <g id="line2d_22"/>
    <g id="text_17">
     <text style="font-family:Arial;font-size:10px;font-style:normal;font-weight:normal;text-anchor:start;" transform="rotate(-0, 432.175313, 64.218125)" x="432.175313" y="64.218125">IC</text>
    </g>
   </g>
  </g>
 </g>
 <defs>
  <clipPath id="p84ddbc566d">
   <rect height="217.44" width="334.8" x="48.635313" y="24.6525"/>
  </clipPath>
 </defs>
</svg>
