<?xml version="1.0" encoding="utf-8" standalone="no"?>
<!DOCTYPE svg PUBLIC "-//W3C//DTD SVG 1.1//EN"
  "http://www.w3.org/Graphics/SVG/1.1/DTD/svg11.dtd">
<!-- Created with matplotlib (https://matplotlib.org/) -->
<svg height="280.699062pt" version="1.1" viewBox="0 0 508.970625 280.699062" width="508.970625pt" xmlns="http://www.w3.org/2000/svg" xmlns:xlink="http://www.w3.org/1999/xlink">
 <defs>
  <style type="text/css">
*{stroke-linecap:butt;stroke-linejoin:round;white-space:pre;}
  </style>
 </defs>
 <g id="figure_1">
  <g id="patch_1">
   <path d="M 0 280.699062 
L 508.970625 280.699062 
L 508.970625 0 
L 0 0 
z
" style="fill:#ffffff;"/>
  </g>
  <g id="axes_1">
   <g id="patch_2">
    <path d="M 48.635313 242.0925 
L 383.435313 242.0925 
L 383.435313 24.6525 
L 48.635313 24.6525 
z
" style="fill:#ffffff;"/>
   </g>
   <g id="PolyCollection_1">
    <defs>
     <path d="M 63.853494 -146.521798 
L 63.853494 -110.034876 
L 79.071676 -81.363141 
L 94.289858 -120.694387 
L 109.50804 -123.226132 
L 124.726222 -171.036592 
L 139.944403 -136.816231 
L 155.162585 -90.597723 
L 170.380767 -97.148678 
L 185.598949 -165.857414 
L 200.817131 -158.399079 
L 216.035312 -179.469164 
L 231.253494 -126.530649 
L 246.471676 -135.860965 
L 261.689858 -124.604194 
L 276.90804 -120.087445 
L 292.126222 -133.567832 
L 307.344403 -186.902102 
L 322.562585 -188.1253 
L 337.780767 -137.80656 
L 352.998949 -150.661439 
L 368.217131 -137.53418 
L 368.217131 -174.32933 
L 368.217131 -174.32933 
L 352.998949 -189.776305 
L 337.780767 -180.540437 
L 322.562585 -229.59384 
L 307.344403 -246.162926 
L 292.126222 -172.335232 
L 276.90804 -147.311051 
L 261.689858 -153.422115 
L 246.471676 -172.056135 
L 231.253494 -159.770867 
L 216.035312 -230.393175 
L 200.817131 -208.352178 
L 185.598949 -204.641077 
L 170.380767 -125.564779 
L 155.162585 -142.351034 
L 139.944403 -199.563978 
L 124.726222 -210.835812 
L 109.50804 -156.036203 
L 94.289858 -149.399643 
L 79.071676 -114.208469 
L 63.853494 -146.521798 
z
" id="m9fc0510b33" style="stroke:#0000ff;stroke-opacity:0.2;"/>
    </defs>
    <g clip-path="url(#p1fda30cf06)">
     <use style="fill:#0000ff;fill-opacity:0.2;stroke:#0000ff;stroke-opacity:0.2;" x="0" xlink:href="#m9fc0510b33" y="280.699062"/>
    </g>
   </g>
   <g id="PolyCollection_2">
    <defs>
     <path d="M 63.853494 -130.067776 
L 63.853494 -106.540226 
L 79.071676 -96.916364 
L 94.289858 -60.949263 
L 109.50804 -67.091774 
L 124.726222 -90.931288 
L 139.944403 -103.339292 
L 155.162585 -75.26742 
L 170.380767 -97.432044 
L 185.598949 -89.305051 
L 200.817131 -105.727866 
L 216.035312 -79.714686 
L 231.253494 -101.577264 
L 246.471676 -60.416676 
L 261.689858 -90.968202 
L 276.90804 -90.846307 
L 292.126222 -99.29825 
L 307.344403 -76.790042 
L 322.562585 -98.166567 
L 337.780767 -48.490199 
L 352.998949 -61.832013 
L 368.217131 -61.116331 
L 368.217131 -75.874972 
L 368.217131 -75.874972 
L 352.998949 -77.655032 
L 337.780767 -62.877747 
L 322.562585 -127.385795 
L 307.344403 -106.794064 
L 292.126222 -125.402533 
L 276.90804 -122.515125 
L 261.689858 -124.596944 
L 246.471676 -84.126092 
L 231.253494 -127.846211 
L 216.035312 -104.117527 
L 200.817131 -137.241276 
L 185.598949 -122.155029 
L 170.380767 -138.444072 
L 155.162585 -105.881799 
L 139.944403 -136.204897 
L 124.726222 -117.605572 
L 109.50804 -90.717762 
L 94.289858 -78.510263 
L 79.071676 -132.337158 
L 63.853494 -130.067776 
z
" id="m0c5b7f5c33" style="stroke:#ff0000;stroke-opacity:0.2;"/>
    </defs>
    <g clip-path="url(#p1fda30cf06)">
     <use style="fill:#ff0000;fill-opacity:0.2;stroke:#ff0000;stroke-opacity:0.2;" x="0" xlink:href="#m0c5b7f5c33" y="280.699062"/>
    </g>
   </g>
   <g id="matplotlib.axis_1">
    <g id="xtick_1">
     <g id="line2d_1">
      <defs>
       <path d="M 0 0 
L 0 3.5 
" id="m0bf19a0dc8" style="stroke:#000000;stroke-width:0.8;"/>
      </defs>
      <g>
       <use style="stroke:#000000;stroke-width:0.8;" x="63.853494" xlink:href="#m0bf19a0dc8" y="242.0925"/>
      </g>
     </g>
     <g id="text_1">
      <text style="font-family:Arial;font-size:10px;font-style:normal;font-weight:normal;text-anchor:middle;" transform="rotate(-0, 63.853494, 256.250312)" x="63.853494" y="256.250312">10</text>
     </g>
    </g>
    <g id="xtick_2">
     <g id="line2d_2">
      <g>
       <use style="stroke:#000000;stroke-width:0.8;" x="124.726222" xlink:href="#m0bf19a0dc8" y="242.0925"/>
      </g>
     </g>
     <g id="text_2">
      <text style="font-family:Arial;font-size:10px;font-style:normal;font-weight:normal;text-anchor:middle;" transform="rotate(-0, 124.726222, 256.250312)" x="124.726222" y="256.250312">12</text>
     </g>
    </g>
    <g id="xtick_3">
     <g id="line2d_3">
      <g>
       <use style="stroke:#000000;stroke-width:0.8;" x="185.598949" xlink:href="#m0bf19a0dc8" y="242.0925"/>
      </g>
     </g>
     <g id="text_3">
      <text style="font-family:Arial;font-size:10px;font-style:normal;font-weight:normal;text-anchor:middle;" transform="rotate(-0, 185.598949, 256.250312)" x="185.598949" y="256.250312">14</text>
     </g>
    </g>
    <g id="xtick_4">
     <g id="line2d_4">
      <g>
       <use style="stroke:#000000;stroke-width:0.8;" x="246.471676" xlink:href="#m0bf19a0dc8" y="242.0925"/>
      </g>
     </g>
     <g id="text_4">
      <text style="font-family:Arial;font-size:10px;font-style:normal;font-weight:normal;text-anchor:middle;" transform="rotate(-0, 246.471676, 256.250312)" x="246.471676" y="256.250312">16</text>
     </g>
    </g>
    <g id="xtick_5">
     <g id="line2d_5">
      <g>
       <use style="stroke:#000000;stroke-width:0.8;" x="307.344403" xlink:href="#m0bf19a0dc8" y="242.0925"/>
      </g>
     </g>
     <g id="text_5">
      <text style="font-family:Arial;font-size:10px;font-style:normal;font-weight:normal;text-anchor:middle;" transform="rotate(-0, 307.344403, 256.250312)" x="307.344403" y="256.250312">18</text>
     </g>
    </g>
    <g id="xtick_6">
     <g id="line2d_6">
      <g>
       <use style="stroke:#000000;stroke-width:0.8;" x="368.217131" xlink:href="#m0bf19a0dc8" y="242.0925"/>
      </g>
     </g>
     <g id="text_6">
      <text style="font-family:Arial;font-size:10px;font-style:normal;font-weight:normal;text-anchor:middle;" transform="rotate(-0, 368.217131, 256.250312)" x="368.217131" y="256.250312">20</text>
     </g>
    </g>
    <g id="text_7">
     <text style="font-family:Arial;font-size:12px;font-style:normal;font-weight:normal;text-anchor:middle;" transform="rotate(-0, 216.035313, 270.973437)" x="216.035313" y="270.973437">Host Age (in Weeks)</text>
    </g>
   </g>
   <g id="matplotlib.axis_2">
    <g id="ytick_1">
     <g id="line2d_7">
      <defs>
       <path d="M 0 0 
L -3.5 0 
" id="m444f2a4532" style="stroke:#000000;stroke-width:0.8;"/>
      </defs>
      <g>
       <use style="stroke:#000000;stroke-width:0.8;" x="48.635313" xlink:href="#m444f2a4532" y="223.301773"/>
      </g>
     </g>
     <g id="text_8">
      <text style="font-family:Arial;font-size:10px;font-style:normal;font-weight:normal;text-anchor:end;" transform="rotate(-0, 41.635313, 226.880679)" x="41.635313" y="226.880679">0.10</text>
     </g>
    </g>
    <g id="ytick_2">
     <g id="line2d_8">
      <g>
       <use style="stroke:#000000;stroke-width:0.8;" x="48.635313" xlink:href="#m444f2a4532" y="183.095962"/>
      </g>
     </g>
     <g id="text_9">
      <text style="font-family:Arial;font-size:10px;font-style:normal;font-weight:normal;text-anchor:end;" transform="rotate(-0, 41.635313, 186.674868)" x="41.635313" y="186.674868">0.15</text>
     </g>
    </g>
    <g id="ytick_3">
     <g id="line2d_9">
      <g>
       <use style="stroke:#000000;stroke-width:0.8;" x="48.635313" xlink:href="#m444f2a4532" y="142.890151"/>
      </g>
     </g>
     <g id="text_10">
      <text style="font-family:Arial;font-size:10px;font-style:normal;font-weight:normal;text-anchor:end;" transform="rotate(-0, 41.635313, 146.469058)" x="41.635313" y="146.469058">0.20</text>
     </g>
    </g>
    <g id="ytick_4">
     <g id="line2d_10">
      <g>
       <use style="stroke:#000000;stroke-width:0.8;" x="48.635313" xlink:href="#m444f2a4532" y="102.684341"/>
      </g>
     </g>
     <g id="text_11">
      <text style="font-family:Arial;font-size:10px;font-style:normal;font-weight:normal;text-anchor:end;" transform="rotate(-0, 41.635313, 106.263247)" x="41.635313" y="106.263247">0.25</text>
     </g>
    </g>
    <g id="ytick_5">
     <g id="line2d_11">
      <g>
       <use style="stroke:#000000;stroke-width:0.8;" x="48.635313" xlink:href="#m444f2a4532" y="62.47853"/>
      </g>
     </g>
     <g id="text_12">
      <text style="font-family:Arial;font-size:10px;font-style:normal;font-weight:normal;text-anchor:end;" transform="rotate(-0, 41.635313, 66.057436)" x="41.635313" y="66.057436">0.30</text>
     </g>
    </g>
    <g id="text_13">
     <text style="font-family:Arial;font-size:12px;font-style:normal;font-weight:normal;text-anchor:middle;" transform="rotate(-90, 15.789375, 133.3725)" x="15.789375" y="133.3725">Relative Abundance</text>
    </g>
   </g>
   <g id="line2d_12">
    <path clip-path="url(#p1fda30cf06)" d="M 63.853494 153.269328 
L 79.071676 182.730943 
L 94.289858 146.340134 
L 109.50804 140.61034 
L 124.726222 89.86491 
L 139.944403 111.846883 
L 155.162585 163.711074 
L 170.380767 170.167983 
L 185.598949 94.489136 
L 200.817131 96.376571 
L 216.035312 76.400614 
L 231.253494 137.432136 
L 246.471676 127.123512 
L 261.689858 141.456257 
L 276.90804 146.644103 
L 292.126222 127.607136 
L 307.344403 65.373526 
L 322.562585 72.067289 
L 337.780767 120.943215 
L 352.998949 110.957386 
L 368.217131 123.770159 
" style="fill:none;stroke:#0000ff;stroke-linecap:square;stroke-width:1.5;"/>
   </g>
   <g id="line2d_13">
    <path clip-path="url(#p1fda30cf06)" d="M 63.853494 161.876826 
L 79.071676 166.149205 
L 94.289858 211.771671 
L 109.50804 202.6273 
L 124.726222 175.609086 
L 139.944403 160.960331 
L 155.162585 190.629044 
L 170.380767 162.276063 
L 185.598949 174.611136 
L 200.817131 159.040164 
L 216.035312 189.191051 
L 231.253494 165.79683 
L 246.471676 208.187646 
L 261.689858 172.661995 
L 276.90804 175.455748 
L 292.126222 168.56471 
L 307.344403 189.693766 
L 322.562585 167.935111 
L 337.780767 224.650725 
L 352.998949 211.287873 
L 368.217131 212.160337 
" style="fill:none;stroke:#ff0000;stroke-linecap:square;stroke-width:1.5;"/>
   </g>
   <g id="line2d_14"/>
   <g id="line2d_15"/>
   <g id="line2d_16"/>
   <g id="patch_3">
    <path d="M 48.635313 242.0925 
L 48.635313 24.6525 
" style="fill:none;stroke:#000000;stroke-linecap:square;stroke-linejoin:miter;stroke-width:0.8;"/>
   </g>
   <g id="patch_4">
    <path d="M 383.435313 242.0925 
L 383.435313 24.6525 
" style="fill:none;stroke:#000000;stroke-linecap:square;stroke-linejoin:miter;stroke-width:0.8;"/>
   </g>
   <g id="patch_5">
    <path d="M 48.635312 242.0925 
L 383.435313 242.0925 
" style="fill:none;stroke:#000000;stroke-linecap:square;stroke-linejoin:miter;stroke-width:0.8;"/>
   </g>
   <g id="patch_6">
    <path d="M 48.635312 24.6525 
L 383.435313 24.6525 
" style="fill:none;stroke:#000000;stroke-linecap:square;stroke-linejoin:miter;stroke-width:0.8;"/>
   </g>
   <g id="text_14">
    <text style="font-family:Arial;font-size:16px;font-style:normal;font-weight:normal;text-anchor:middle;" transform="rotate(-0, 216.035313, 18.6525)" x="216.035313" y="18.6525">Lachnospiraceae</text>
   </g>
   <g id="legend_1">
    <g id="patch_7">
     <path d="M 402.175313 70.205625 
L 499.770625 70.205625 
Q 501.770625 70.205625 501.770625 68.205625 
L 501.770625 26.6525 
Q 501.770625 24.6525 499.770625 24.6525 
L 402.175313 24.6525 
Q 400.175313 24.6525 400.175313 26.6525 
L 400.175313 68.205625 
Q 400.175313 70.205625 402.175313 70.205625 
z
" style="fill:#ffffff;opacity:0.8;stroke:#cccccc;stroke-linejoin:miter;"/>
    </g>
    <g id="line2d_17">
     <path d="M 404.175313 32.310312 
L 424.175313 32.310312 
" style="fill:none;"/>
    </g>
    <g id="line2d_18"/>
    <g id="text_15">
     <text style="font-family:Arial;font-size:10px;font-style:normal;font-weight:normal;text-anchor:start;" transform="rotate(-0, 432.175313, 35.810312)" x="432.175313" y="35.810312">exposure_type</text>
    </g>
    <g id="line2d_19">
     <path d="M 404.175313 46.572812 
L 424.175313 46.572812 
" style="fill:none;stroke:#0000ff;stroke-linecap:square;stroke-width:1.5;"/>
    </g>
    <g id="line2d_20"/>
    <g id="text_16">
     <text style="font-family:Arial;font-size:10px;font-style:normal;font-weight:normal;text-anchor:start;" transform="rotate(-0, 432.175313, 50.072812)" x="432.175313" y="50.072812">IH</text>
    </g>
    <g id="line2d_21">
     <path d="M 404.175313 60.718125 
L 424.175313 60.718125 
" style="fill:none;stroke:#ff0000;stroke-linecap:square;stroke-width:1.5;"/>
    </g>
    <g id="line2d_22"/>
    <g id="text_17">
     <text style="font-family:Arial;font-size:10px;font-style:normal;font-weight:normal;text-anchor:start;" transform="rotate(-0, 432.175313, 64.218125)" x="432.175313" y="64.218125">IC</text>
    </g>
   </g>
  </g>
 </g>
 <defs>
  <clipPath id="p1fda30cf06">
   <rect height="217.44" width="334.8" x="48.635313" y="24.6525"/>
  </clipPath>
 </defs>
</svg>
